<svg width="1000" height="1000" viewBox="0 0 1000 1000" fill="none" xmlns="http://www.w3.org/2000/svg">
<path d="M460.887 780.094C461.1 780.01 461.333 779.954 461.556 779.908C464.352 779.303 467.093 779.507 469.843 780.271C473.745 781.36 477.108 783.39 480.137 786.025C481.949 787.599 483.491 789.423 484.801 791.435C485.108 791.9 485.461 792.319 486.111 792.245C486.808 792.161 487.245 791.76 487.477 791.127C487.542 790.96 487.588 790.783 487.672 790.615C490.19 785.131 493.86 780.42 497.687 775.82C498.403 774.964 499.202 775.001 500.038 775.802C501.134 776.835 502.24 777.859 503.299 778.921C506.634 782.301 509.849 785.792 512.19 790.001C512.775 791.043 513.704 791.165 514.55 790.317C516.845 788.017 519.112 785.718 521.694 783.734C524.379 781.667 527.204 779.954 530.511 779.126C532.732 778.576 534.962 778.493 537.173 779.219C537.842 779.433 538.343 779.824 538.418 780.56C538.483 781.258 538.009 781.677 537.479 782.059C535.277 783.651 533.54 785.662 532.239 788.045C530.251 791.695 529.694 795.699 529.536 799.768C529.35 804.218 529.527 808.678 529.434 813.119C529.369 816.574 529.099 820 528.635 823.417C528.328 825.605 527.78 827.738 527.148 829.851C525.996 833.752 524.277 837.356 521.685 840.503C518.471 844.45 514.346 847.039 509.514 848.491C506.969 849.255 504.367 849.692 501.738 849.916C500.317 849.935 498.895 849.972 497.474 850C497.241 849.962 497.009 849.907 496.777 849.907C494.064 849.869 491.407 849.422 488.815 848.696C485.665 847.802 482.664 846.555 479.951 844.665C477.192 842.728 474.879 840.41 473.262 837.411C471.701 834.497 470.791 831.35 470.001 828.175C468.431 821.844 468.115 815.373 468.18 808.864C468.217 804.851 468.319 800.839 467.929 796.835C467.492 792.459 466.248 788.39 463.46 784.898C462.578 783.8 461.565 782.831 460.543 781.882C459.809 781.239 459.995 780.429 460.896 780.085L460.887 780.094Z" fill="#3182CE"/>
<path d="M712.567 365.839C712.567 365.839 752.433 386.853 790.739 414.236V414.227C793.768 431.247 795.356 448.77 795.366 466.647C795.366 509.775 786.168 550.742 769.621 587.688C754.183 564.928 754.905 549.015 755.696 531.608C755.76 530.201 755.824 528.784 755.88 527.354C757.032 498.602 760.015 483.146 764.92 475.269C769.816 467.41 780.287 443.873 764.836 431.145C749.367 418.408 720.789 387.859 720.789 387.859L706.946 369.181C708.944 368.297 710.83 367.17 712.567 365.839Z" fill="#3182CE"/>
<path d="M384.668 623.126C386.413 626.732 387.681 629.354 388.182 630.359C388.876 631.751 391.189 634.984 394.413 639.491C403.222 651.804 418.829 673.621 426.794 693.347C436.289 716.857 429.256 746.456 427.324 753.616C370.53 739.212 320.304 708.328 281.998 666.327C303.348 631.113 324.838 595.77 326.863 592.874C328.608 590.376 330.878 589.206 333.489 587.86C337.04 586.03 341.223 583.874 345.575 577.613C348.25 573.74 349.598 568.61 350.211 563.247C354.141 567.111 357.811 570.826 359.121 572.474C361.774 575.809 377.378 608.06 384.668 623.126Z" fill="#3182CE"/>
<path d="M361.286 277.367C350.343 279.376 340.985 281.095 336.925 280.859H336.916C326.018 280.226 281.32 293.177 281.32 293.177C281.32 293.177 270.729 295.365 257.071 298.316C310.382 221.195 399.405 170.684 500.014 170.684C600.623 170.684 689.489 221.111 742.817 298.112C729.615 295.272 719.507 293.177 719.507 293.177C719.507 293.177 674.791 280.226 663.902 280.859C659.839 281.095 650.479 279.375 639.537 277.365C621.13 273.983 598.244 269.778 588.555 272.674C573.104 277.274 515.065 322.869 510.429 331.295C505.774 339.722 500.135 377.17 500.59 384.823C500.627 385.457 500.72 386.034 500.86 386.564C500.878 386.616 500.895 386.667 500.912 386.716C500.937 386.791 500.962 386.864 500.99 386.937C500.767 388.045 500.562 389.116 500.414 390.14C500.265 389.116 500.07 388.045 499.838 386.937C499.861 386.87 499.885 386.809 499.907 386.747C499.929 386.688 499.949 386.628 499.968 386.564C500.107 386.043 500.191 385.457 500.237 384.823C500.692 377.17 495.034 339.712 490.398 331.295C485.762 322.878 427.723 277.293 412.273 272.674C402.577 269.784 379.691 273.987 361.286 277.367Z" fill="#3182CE"/>
<path d="M209.159 414.897C247.753 387.198 288.251 365.848 288.251 365.848C289.988 367.179 291.874 368.297 293.872 369.19L280.029 387.868C280.029 387.868 251.432 418.426 235.982 431.154C220.531 443.882 230.992 467.41 235.898 475.278C240.803 483.146 243.804 498.611 244.938 527.363C244.994 528.779 245.059 530.181 245.123 531.574C245.93 549.183 246.668 565.265 230.714 588.423C213.972 551.282 204.653 510.073 204.653 466.666C204.653 449.012 206.205 431.713 209.159 414.897Z" fill="#3182CE"/>
<path d="M650.635 563.247C651.248 568.619 652.586 573.74 655.271 577.613L655.28 577.604C659.627 583.87 663.81 586.025 667.366 587.857C669.982 589.204 672.258 590.377 674.01 592.883C676.027 595.769 697.321 630.769 718.559 665.806C680.356 707.89 630.214 738.886 573.504 753.439C571.487 745.963 564.668 716.671 574.07 693.356C582.011 673.645 597.609 651.834 606.421 639.513C609.651 634.997 611.969 631.755 612.664 630.359C613.165 629.353 614.436 626.726 616.183 623.113C623.473 608.039 639.065 575.801 641.725 572.474C643.045 570.826 646.705 567.111 650.635 563.247Z" fill="#3182CE"/>
<path fill-rule="evenodd" clip-rule="evenodd" d="M624.514 541.271C616.453 549.475 601.185 565.013 599.424 566.077H599.434C598.409 566.697 593.276 571.504 587.658 576.766C580.444 583.523 572.431 591.029 571.292 591.375C569.239 591.989 513.708 627.091 503.795 666.941C501.231 677.193 500.218 688.84 500.097 700.497C499.977 688.85 498.945 677.193 496.4 666.941C486.468 627.091 430.947 591.989 428.903 591.375C427.735 591.032 419.605 583.417 412.348 576.619C406.792 571.415 401.749 566.691 400.733 566.077C398.975 565.007 383.732 549.499 375.665 541.291C372.993 538.573 371.108 536.656 370.761 536.329C370.23 535.832 367.262 532.217 363.424 527.543C357.123 519.87 348.477 509.341 344.413 505.054C337.872 498.155 335.448 504.514 335.615 504.877C331.276 494.97 326.724 485.315 323.286 478.797C314.237 461.6 320.127 439.701 320.127 439.701C329 432.597 330.588 413.054 330.588 413.054C336.219 409.003 348.817 394.32 348.817 394.32C392.957 365.699 384.958 354.591 384.958 354.591C393.57 356.704 398.569 354.954 398.569 354.954C398.16 356.844 409.587 361.388 431.69 365.01C452.432 368.4 453.93 362.016 454.035 361.217C453.77 364.4 459.042 366.322 459.042 366.322C456.617 376.071 465.647 390 468.332 393.575C469.43 395.041 469.093 398.065 468.652 402.025C468.017 407.72 467.167 415.351 470.061 423.063C474.966 436.135 489.422 432.355 493.055 430.828C496.14 429.534 499.02 415.111 500.079 405.167C501.138 415.111 504.018 429.534 507.103 430.828C510.745 432.355 525.192 436.135 530.097 423.063C532.976 415.361 532.131 407.74 531.499 402.047C531.059 398.077 530.722 395.044 531.825 393.575C534.51 390 543.541 376.071 541.116 366.322C541.116 366.322 546.387 364.4 546.122 361.217C546.228 362.018 547.727 368.408 568.468 365.01C590.57 361.388 601.998 356.844 601.589 354.954C601.589 354.954 606.587 356.704 615.2 354.591C615.2 354.591 607.201 365.699 651.341 394.32C651.341 394.32 663.92 409.003 669.569 413.054C669.569 413.054 671.167 432.597 680.031 439.701C680.031 439.701 685.93 461.591 676.872 478.797C673.453 485.315 668.891 494.961 664.543 504.877C664.71 504.505 662.285 498.155 655.745 505.054C651.658 509.364 642.937 519.985 636.627 527.668C632.838 532.282 629.919 535.836 629.396 536.329C629.05 536.655 627.175 538.563 624.514 541.271ZM567.186 530.147C570.484 533.871 568.904 536.031 568.904 536.031L568.886 536.059C568.886 536.059 576.411 530.882 574.061 525.212C572.1 520.51 568.012 519.411 566.665 519.169C568.616 516.432 570.688 513.778 572.881 511.227C573.531 511.395 573.977 511.534 573.977 511.534C573.977 511.534 573.81 511.413 573.522 510.491C579.263 503.871 584.02 499.775 584.085 499.719L583.556 499.104C583.481 499.151 578.873 503.126 573.262 509.551C572.964 508.313 572.584 506.302 572.156 503.024C571.116 495.017 568.105 484.496 541.097 499.942C538.412 501.46 535.997 502.689 533.785 503.667C534.129 503.322 534.464 502.959 534.807 502.577C534.807 502.577 545.074 493.052 545.018 471.079C544.962 449.105 547.099 426.88 559.772 418.631C559.772 418.631 541.339 421.992 539.081 443.165C539.081 443.165 527.839 430.483 529.79 451.693C529.79 451.693 519.246 443.872 522.637 467.419C522.637 467.419 510.791 456.526 514.619 474.03C514.619 474.03 515.715 478.49 516.941 480.203C516.941 480.203 506.201 474.375 515.706 497.27C515.706 497.27 516.588 499.151 513.485 502.121C511.376 499.213 510.159 495.267 508.944 491.328C508.677 490.462 508.41 489.596 508.134 488.741C504.213 476.628 500.831 471.451 476.685 461.991C459.118 455.109 452.217 442.796 448.222 435.668C446.725 432.999 445.637 431.057 444.548 430.4C440.553 427.988 445.542 445.446 445.542 445.446C436.465 446.554 446.546 460.194 446.546 460.194C436.075 460.492 452.037 474.328 452.037 474.328C435.936 480.38 461.68 493.769 461.68 493.769C448.655 505.65 473.851 512.335 473.851 512.335C467.441 535.621 490.974 525.054 490.974 525.054C487.36 529.597 494.681 528.918 494.681 528.918C494.681 528.918 496.353 528.862 480.299 543.191C470.486 551.944 464.859 552.595 459.714 553.19C456.441 553.569 453.364 553.925 449.528 556.329C439.661 562.52 451.256 568.516 451.256 568.516C442.634 580.155 455.428 578.656 455.428 578.656C451.944 590.732 462.981 585.63 462.981 585.63C464.059 601.03 472.996 590.63 472.996 590.63C477.79 606.002 484.322 592.361 484.322 592.361C487.323 599.233 493.445 591.533 489.543 575.472C485.641 559.41 496.623 556.226 496.623 556.226C516.096 573.246 529.475 557.697 535.69 541.776C541.915 525.854 554.03 514.523 554.03 514.523C562.545 516.845 565.603 513.783 567.378 512.006C567.881 511.503 568.281 511.103 568.672 510.957C569.555 510.622 570.902 510.752 572.017 510.976C569.62 513.797 567.102 517.009 564.705 520.538C564.203 519.867 561.156 516.152 555.609 516.823C549.515 517.558 548.725 526.674 548.725 526.674C548.725 526.674 549.821 524.225 554.69 525.268C558.675 526.106 562.875 522.502 564.287 521.152C561.778 524.895 559.688 528.592 557.969 532.232C557.3 531.795 552.497 528.945 546.644 531.664C540.317 534.597 543.569 543.712 543.569 543.712C543.569 543.712 547.424 537.623 552.125 537.381C554.467 537.279 555.944 536.012 556.845 534.774C555.442 538.098 554.364 541.375 553.64 544.569C552.896 544.727 551.475 545.388 548.697 547.381C543.039 551.431 545.975 564.615 545.975 564.615C546.145 563.502 548.458 561.56 551.008 559.419C553.877 557.01 557.045 554.35 557.802 552.334C559.233 548.535 554.429 544.792 554.429 544.792C554.429 544.792 554.42 544.774 554.42 544.755C555.219 541.18 556.483 537.511 558.155 533.768C557.923 535.351 558.071 537.474 559.902 539.262C563.274 542.567 562.122 549.681 562.122 549.681C562.122 549.681 570.595 545.016 567.79 538.619C565.402 533.154 560.552 531.832 559.196 531.571C560.914 528.089 562.856 524.728 565.03 521.515C565.327 521.078 565.625 520.64 565.931 520.203C565.42 522.391 564.677 527.307 567.186 530.147Z" fill="#3182CE"/>
<path d="M546.114 361.136C546.117 361.163 546.12 361.19 546.122 361.217C546.115 361.165 546.114 361.136 546.114 361.136Z" fill="#3182CE"/>
<path d="M454.043 361.136C454.043 361.136 454.042 361.165 454.035 361.217C454.038 361.19 454.04 361.163 454.043 361.136Z" fill="#3182CE"/>
<path d="M590.1 821.627C590.1 821.627 593.217 821.542 599.002 821.004C604.815 820.463 613.294 819.468 624.037 817.554C645.44 813.732 675.968 806.413 710.353 790.85C727.504 783.072 745.559 773.176 763.49 760.593C781.393 748.012 799.177 732.776 815.473 714.564C831.774 696.415 846.56 675.292 858.808 651.946C871.029 628.601 880.891 603.174 887.756 576.66C889.495 570.046 890.86 563.307 892.396 556.616L893.548 551.59C893.894 550.117 894.121 548.246 894.423 546.588L896.123 536.338C896.774 532.924 896.981 529.549 897.383 526.158C897.729 522.771 898.078 519.415 898.451 516.026C898.629 512.622 898.803 509.187 898.953 505.786C899.075 502.388 899.421 499.001 899.318 495.59C899.62 468.366 896.776 441.543 891.901 416.059C891.397 412.841 890.676 409.704 890.011 406.563C889.347 403.421 888.654 400.282 887.992 397.172C886.529 390.963 884.936 384.86 883.431 378.812C881.68 372.817 880.073 366.872 878.253 361.04C876.352 355.247 874.73 349.46 872.763 343.86C865.191 321.373 856.739 300.626 848.209 281.861C839.681 263.128 831.256 246.206 823.309 231.563C815.362 216.919 808.018 204.388 801.854 194.2C795.664 184.014 790.543 176.181 787.039 170.873C783.506 165.568 781.564 162.821 781.564 162.821L782.08 162.336C782.08 162.336 790.585 172.821 803.839 192.645C810.479 202.541 818.272 214.782 826.654 229.293C835.006 243.775 844.154 260.352 853.05 279.147C861.971 297.908 870.846 318.713 878.905 341.346C886.991 363.976 893.939 388.588 898.889 414.599C903.7 440.622 906.462 468.111 905.796 495.963C905.849 499.441 905.456 502.926 905.314 506.421C905.09 509.922 904.89 513.391 904.666 516.892C904.272 520.377 903.854 523.896 903.433 527.384C902.984 530.874 902.71 534.443 902.026 537.797L900.213 548.025C899.891 549.779 899.692 551.333 899.246 553.255L898.042 558.317C896.372 565.082 894.93 571.891 893.089 578.608C885.835 605.47 875.554 631.216 862.935 654.784C850.287 678.354 835.066 699.608 818.352 717.825C801.669 736.071 783.553 751.337 765.298 763.728C747.046 776.151 728.721 785.82 711.357 793.397C676.568 808.493 645.833 815.36 624.317 818.847C602.743 822.307 590.223 822.401 590.223 822.401L590.155 821.622L590.1 821.627Z" fill="#3182CE"/>
<path d="M911.867 605.759C897.527 614.733 880.542 612.27 880.542 612.27C880.542 612.27 886.783 595.222 901.151 586.245C915.491 577.271 932.475 579.735 932.475 579.735C932.475 579.735 926.204 596.754 911.867 605.759Z" fill="#3182CE"/>
<path d="M857.217 584.828C849.594 568.777 852.738 550.777 852.738 550.777C852.738 550.777 868.249 558.734 875.9 574.783C883.552 590.833 880.382 608.866 880.382 608.866C880.382 608.866 864.871 600.909 857.22 584.86L857.217 584.828Z" fill="#3182CE"/>
<path d="M895.749 642.935C881.409 651.909 864.424 649.446 864.424 649.446C864.424 649.446 870.695 632.426 885.033 623.421C899.372 614.447 916.357 616.91 916.357 616.91C916.357 616.91 910.114 633.927 895.749 642.935Z" fill="#3182CE"/>
<path d="M838.887 625.115C832.336 608.561 836.676 590.833 836.676 590.833C836.676 590.833 851.648 599.967 858.174 616.554C864.726 633.107 860.386 650.836 860.386 650.836C860.386 650.836 845.441 641.7 838.887 625.115Z" fill="#3182CE"/>
<path d="M924.469 560.894C910.783 570.972 893.689 569.804 893.689 569.804C893.689 569.804 898.803 552.322 912.489 542.244C926.174 532.166 943.269 533.334 943.269 533.334C943.269 533.334 938.182 550.814 924.469 560.894V560.894Z" fill="#3182CE"/>
<path d="M866.349 544.658C857.692 529.23 859.588 510.994 859.588 510.994C859.588 510.994 875.58 517.748 884.265 533.174C892.95 548.599 891.027 566.837 891.027 566.837C891.027 566.837 875.035 560.083 866.349 544.658Z" fill="#3182CE"/>
<path d="M931.808 505.603C918.824 516.686 901.702 516.807 901.702 516.807C901.702 516.807 905.64 498.957 918.652 487.872C931.664 476.787 948.758 476.668 948.758 476.668C948.758 476.668 944.817 494.487 931.805 505.572L931.808 505.603Z" fill="#3182CE"/>
<path d="M874.346 493.326C864.716 478.579 865.457 460.226 865.457 460.226C865.457 460.226 881.847 465.784 891.505 480.528C901.163 495.272 900.422 513.626 900.422 513.626C900.422 513.626 884.032 508.068 874.374 493.323L874.346 493.326Z" fill="#3182CE"/>
<path d="M932.297 453.675C920.343 466.016 903.318 467.885 903.318 467.885C903.318 467.885 905.693 449.702 917.646 437.36C929.597 424.988 946.625 423.15 946.625 423.15C946.625 423.15 944.25 441.333 932.297 453.675Z" fill="#3182CE"/>
<path d="M874.639 450.354C863.758 436.627 862.88 418.258 862.88 418.258C862.88 418.258 879.655 422.152 890.564 435.877C901.444 449.604 902.322 467.973 902.322 467.973C902.322 467.973 885.52 464.081 874.639 450.354Z" fill="#3182CE"/>
<path d="M925.043 397.123C913.09 409.464 896.093 411.331 896.093 411.331C896.093 411.331 898.467 393.147 910.421 380.806C922.374 368.465 939.371 366.598 939.371 366.598C939.371 366.598 936.997 384.781 925.043 397.123Z" fill="#3182CE"/>
<path d="M864.789 403.379C851.42 392.473 846.855 374.71 846.855 374.71C846.855 374.71 863.977 374.589 877.346 385.495C890.715 396.4 895.279 414.163 895.279 414.163C895.279 414.163 878.157 414.284 864.789 403.379Z" fill="#3182CE"/>
<path d="M907.634 337.383C899.828 353.125 884.203 360.487 884.203 360.487C884.203 360.487 881.279 342.329 889.085 326.587C896.891 310.845 912.515 303.483 912.515 303.483C912.515 303.483 915.468 321.639 907.634 337.383V337.383Z" fill="#3182CE"/>
<path d="M849.729 355.824C835.503 346.28 829.445 328.993 829.445 328.993C829.445 328.993 846.448 327.189 860.702 336.73C874.929 346.274 881.014 363.559 881.014 363.559C881.014 363.559 864.011 365.363 849.757 355.822L849.729 355.824Z" fill="#3182CE"/>
<path d="M885.384 277.472C877.578 293.215 861.953 300.576 861.953 300.576C861.953 300.576 859.029 282.418 866.835 266.676C874.641 250.934 890.238 243.575 890.238 243.575C890.238 243.575 893.19 261.73 885.356 277.475L885.384 277.472Z" fill="#3182CE"/>
<path d="M827.479 295.945C813.252 286.401 807.167 269.116 807.167 269.116C807.167 269.116 824.17 267.312 838.424 276.853C852.678 286.395 858.736 303.682 858.736 303.682C858.736 303.682 841.705 305.489 827.479 295.945Z" fill="#3182CE"/>
<path d="M854.522 224.716C849.032 239.502 835.851 247.685 835.851 247.685C835.851 247.685 831.597 231.871 837.114 217.082C842.631 202.294 855.785 194.114 855.785 194.114C855.785 194.114 860.039 209.928 854.522 224.716V224.716Z" fill="#3182CE"/>
<path d="M804.891 247.168C791.416 240.162 784.496 225.46 784.496 225.46C784.496 225.46 799.408 222.082 812.883 229.088C826.358 236.094 833.278 250.796 833.278 250.796C833.278 250.796 818.365 254.174 804.891 247.168V247.168Z" fill="#3182CE"/>
<path d="M825.942 184.057C821.379 196.347 810.448 203.14 810.448 203.14C810.448 203.14 806.928 189.991 811.492 177.701C816.055 165.412 826.986 158.619 826.986 158.619C826.986 158.619 830.506 171.768 825.942 184.057Z" fill="#3182CE"/>
<path d="M784.709 202.667C773.514 196.841 767.761 184.641 767.761 184.641C767.761 184.641 780.156 181.829 791.351 187.655C802.544 193.449 808.299 205.681 808.299 205.681C808.299 205.681 795.905 208.493 784.709 202.667Z" fill="#3182CE"/>
<path d="M876.162 684.209C860.652 690.651 844.201 685.349 844.201 685.349C844.201 685.349 852.901 669.623 868.383 663.183C883.896 656.773 900.347 662.075 900.347 662.075C900.347 662.075 891.674 677.799 876.165 684.241L876.162 684.209Z" fill="#3182CE"/>
<path d="M822.505 657.011C818.444 639.58 825.354 622.85 825.354 622.85C825.354 622.85 838.805 634.376 842.894 651.804C846.927 669.237 840.047 685.996 840.047 685.996C840.047 685.996 826.596 674.47 822.532 657.008L822.505 657.011Z" fill="#3182CE"/>
<path d="M854.318 720.35C838.133 724.498 822.458 716.9 822.458 716.9C822.458 716.9 833.039 702.578 849.223 698.43C865.407 694.281 881.082 701.879 881.082 701.879C881.082 701.879 870.53 716.199 854.318 720.35Z" fill="#3182CE"/>
<path d="M804.422 685.794C802.558 667.951 811.468 652.395 811.468 652.395C811.468 652.395 823.402 665.716 825.266 683.559C827.131 701.402 818.193 716.961 818.193 716.961C818.193 716.961 806.259 703.64 804.395 685.797L804.422 685.794Z" fill="#3182CE"/>
<path d="M825.793 753.813C809.296 756.294 794.324 747.161 794.324 747.161C794.324 747.161 806.093 733.989 822.615 731.473C839.109 728.961 854.084 738.125 854.084 738.125C854.084 738.125 842.315 751.297 825.793 753.813Z" fill="#3182CE"/>
<path d="M779.075 714.431C778.766 696.514 789.015 681.907 789.015 681.907C789.015 681.907 799.764 696.367 800.045 714.286C800.326 732.205 790.105 746.81 790.105 746.81C790.105 746.81 779.355 732.35 779.075 714.431Z" fill="#3182CE"/>
<path d="M793.603 781.418C776.91 781.658 763.109 770.602 763.109 770.602C763.109 770.602 776.365 759.119 793.058 758.879C809.748 758.608 823.524 769.697 823.524 769.697C823.524 769.697 810.268 781.18 793.603 781.418V781.418Z" fill="#3182CE"/>
<path d="M751.811 736.114C753.607 718.326 765.495 705.238 765.495 705.238C765.495 705.238 774.462 721.015 772.666 738.803C770.871 756.59 758.983 769.678 758.983 769.678C758.983 769.678 749.988 753.904 751.811 736.114Z" fill="#3182CE"/>
<path d="M758.412 805.678C741.789 803.842 729.267 791.137 729.267 791.137C729.267 791.137 743.683 781.435 760.304 783.24C776.927 785.076 789.448 797.781 789.448 797.781C789.448 797.781 775.032 807.484 758.412 805.678V805.678Z" fill="#3182CE"/>
<path d="M721.724 755.503C725.421 738.082 738.677 726.599 738.677 726.599C738.677 726.599 745.914 743.344 742.192 760.798C738.468 778.221 725.239 789.702 725.239 789.702C725.239 789.702 718.027 772.924 721.724 755.503Z" fill="#3182CE"/>
<path d="M715.195 826.156C698.964 821.775 688.243 807.313 688.243 807.313C688.243 807.313 703.837 799.922 720.068 804.303C736.299 808.683 747.021 823.146 747.021 823.146C747.021 823.146 731.427 830.536 715.195 826.156Z" fill="#3182CE"/>
<path d="M685.512 770.944C691.509 754.294 706.184 745.008 706.184 745.008C706.184 745.008 711.103 762.677 705.107 779.327C699.08 795.948 684.435 805.263 684.435 805.263C684.435 805.263 679.516 787.594 685.54 770.941L685.512 770.944Z" fill="#3182CE"/>
<path d="M409.898 821.627C409.898 821.627 406.781 821.542 400.996 821.004C395.184 820.463 386.704 819.468 375.961 817.554C354.558 813.732 324.03 806.413 289.645 790.85C272.494 783.072 254.44 773.176 236.508 760.593C218.605 748.012 200.821 732.776 184.525 714.564C168.224 696.415 153.438 675.292 141.19 651.946C128.969 628.601 119.107 603.174 112.242 576.66C110.503 570.046 109.138 563.307 107.602 556.616L106.45 551.59C106.104 550.117 105.877 548.246 105.575 546.588L103.875 536.338C103.225 532.924 103.017 529.549 102.615 526.158C102.269 522.771 101.921 519.415 101.547 516.025C101.37 512.622 101.195 509.187 101.046 505.786C100.924 502.388 100.578 499.001 100.68 495.59C100.378 468.366 103.222 441.543 108.097 416.059C108.602 412.841 109.322 409.704 109.987 406.563C110.652 403.421 111.344 400.282 112.006 397.172C113.469 390.963 115.062 384.86 116.567 378.812C118.318 372.817 119.925 366.872 121.746 361.04C123.647 355.247 125.268 349.46 127.236 343.86C134.807 321.373 143.259 300.626 151.79 281.861C160.317 263.128 168.742 246.206 176.689 231.563C184.636 216.919 191.981 204.388 198.144 194.2C204.334 184.014 209.455 176.181 212.96 170.873C216.492 165.568 218.434 162.821 218.434 162.821L217.918 162.336C217.918 162.336 209.413 172.821 196.159 192.645C189.519 202.541 181.726 214.782 173.344 229.293C164.992 243.775 155.844 260.352 146.948 279.147C138.028 297.908 129.152 318.713 121.093 341.346C113.007 363.976 106.059 388.588 101.11 414.599C96.2986 440.622 93.5361 468.111 94.2019 495.963C94.1494 499.441 94.5427 502.926 94.6841 506.421C94.9085 509.922 95.108 513.391 95.3325 516.892C95.7258 520.377 96.1441 523.896 96.5651 527.384C97.0138 530.874 97.2882 534.443 97.972 537.797L99.7856 548.025C100.107 549.779 100.306 551.333 100.752 553.255L101.956 558.317C103.626 565.082 105.069 571.891 106.91 578.608C114.163 605.47 124.444 631.216 137.064 654.784C149.711 678.353 164.932 699.608 181.646 717.825C198.329 736.071 216.445 751.337 234.7 763.728C252.952 776.151 271.277 785.82 288.641 793.397C323.43 808.493 354.165 815.36 375.681 818.847C397.255 822.307 409.775 822.401 409.775 822.401L409.843 821.622L409.898 821.627Z" fill="#3182CE"/>
<path d="M88.1312 605.759C102.471 614.733 119.456 612.27 119.456 612.27C119.456 612.27 113.215 595.222 98.8474 586.245C84.5074 577.271 67.5227 579.735 67.5227 579.735C67.5227 579.735 73.794 596.754 88.1312 605.759Z" fill="#3182CE"/>
<path d="M142.781 584.828C150.404 568.776 147.26 550.776 147.26 550.776C147.26 550.776 131.749 558.733 124.098 574.783C116.446 590.832 119.616 608.865 119.616 608.865C119.616 608.865 135.127 600.908 142.778 584.859L142.781 584.828Z" fill="#3182CE"/>
<path d="M104.251 642.935C118.591 651.909 135.576 649.446 135.576 649.446C135.576 649.446 129.305 632.426 114.967 623.421C100.628 614.447 83.6428 616.91 83.6428 616.91C83.6428 616.91 89.8864 633.927 104.251 642.935Z" fill="#3182CE"/>
<path d="M161.111 625.115C167.662 608.561 163.322 590.833 163.322 590.833C163.322 590.833 148.35 599.966 141.824 616.553C135.273 633.107 139.612 650.835 139.612 650.835C139.612 650.835 154.557 641.699 161.111 625.115Z" fill="#3182CE"/>
<path d="M75.5291 560.894C89.2146 570.972 106.309 569.804 106.309 569.804C106.309 569.804 101.195 552.322 87.5092 542.244C73.8237 532.166 56.7288 533.334 56.7288 533.334C56.7288 533.334 61.8158 550.814 75.5291 560.894V560.894Z" fill="#3182CE"/>
<path d="M133.648 544.658C142.305 529.23 140.409 510.994 140.409 510.994C140.409 510.994 124.417 517.748 115.732 533.174C107.047 548.599 108.97 566.837 108.97 566.837C108.97 566.837 124.963 560.083 133.648 544.658Z" fill="#3182CE"/>
<path d="M68.1934 505.603C81.1773 516.686 98.2991 516.807 98.2991 516.807C98.2991 516.807 94.3606 498.957 81.3489 487.872C68.3373 476.787 51.2431 476.668 51.2431 476.668C51.2431 476.668 55.1844 494.487 68.1961 505.572L68.1934 505.603Z" fill="#3182CE"/>
<path d="M125.653 493.326C135.283 478.579 134.542 460.226 134.542 460.226C134.542 460.226 118.152 465.784 108.494 480.528C98.8358 495.272 99.5773 513.626 99.5773 513.626C99.5773 513.626 115.967 508.068 125.625 493.323L125.653 493.326Z" fill="#3182CE"/>
<path d="M67.7025 453.675C79.6558 466.016 96.6808 467.885 96.6808 467.885C96.6808 467.885 94.306 449.702 82.3527 437.361C70.4022 424.988 53.3744 423.15 53.3744 423.15C53.3744 423.15 55.7492 441.334 67.7025 453.675Z" fill="#3182CE"/>
<path d="M125.359 450.354C136.24 436.627 137.118 418.258 137.118 418.258C137.118 418.258 120.343 422.152 109.435 435.877C98.5539 449.604 97.6758 467.972 97.6758 467.972C97.6758 467.972 114.478 464.081 125.359 450.354Z" fill="#3182CE"/>
<path d="M74.9548 397.122C86.9081 409.464 103.905 411.33 103.905 411.33C103.905 411.33 101.531 393.147 89.5773 380.806C77.624 368.465 60.6267 366.598 60.6267 366.598C60.6267 366.598 63.0016 384.781 74.9548 397.122Z" fill="#3182CE"/>
<path d="M135.211 403.378C148.58 392.473 153.145 374.71 153.145 374.71C153.145 374.71 136.023 374.589 122.654 385.494C109.285 396.4 104.721 414.163 104.721 414.163C104.721 414.163 121.843 414.284 135.211 403.378Z" fill="#3182CE"/>
<path d="M92.364 337.383C100.17 353.125 115.795 360.487 115.795 360.487C115.795 360.487 118.719 342.329 110.913 326.587C103.108 310.845 87.4828 303.483 87.4828 303.483C87.4828 303.483 84.5306 321.639 92.364 337.383V337.383Z" fill="#3182CE"/>
<path d="M150.269 355.824C164.495 346.28 170.553 328.993 170.553 328.993C170.553 328.993 153.55 327.189 139.296 336.73C125.069 346.274 118.984 363.559 118.984 363.559C118.984 363.559 135.987 365.363 150.241 355.822L150.269 355.824Z" fill="#3182CE"/>
<path d="M114.614 277.473C122.42 293.215 138.045 300.576 138.045 300.576C138.045 300.576 140.969 282.419 133.163 266.677C125.358 250.935 109.76 243.575 109.76 243.575C109.76 243.575 106.808 261.731 114.642 277.475L114.614 277.473Z" fill="#3182CE"/>
<path d="M172.518 295.945C186.745 286.401 192.83 269.116 192.83 269.116C192.83 269.116 175.827 267.312 161.573 276.853C147.319 286.395 141.261 303.682 141.261 303.682C141.261 303.682 158.292 305.489 172.518 295.945Z" fill="#3182CE"/>
<path d="M145.476 224.716C150.966 239.502 164.147 247.685 164.147 247.685C164.147 247.685 168.401 231.871 162.884 217.082C157.367 202.294 144.213 194.114 144.213 194.114C144.213 194.114 139.959 209.927 145.476 224.716V224.716Z" fill="#3182CE"/>
<path d="M195.107 247.168C208.582 240.162 215.502 225.46 215.502 225.46C215.502 225.46 200.59 222.082 187.115 229.088C173.64 236.094 166.72 250.796 166.72 250.796C166.72 250.796 181.633 254.174 195.107 247.168V247.168Z" fill="#3182CE"/>
<path d="M174.057 184.058C178.62 196.347 189.551 203.14 189.551 203.14C189.551 203.14 193.071 189.991 188.507 177.702C183.944 165.412 173.013 158.619 173.013 158.619C173.013 158.619 169.493 171.768 174.057 184.058Z" fill="#3182CE"/>
<path d="M215.289 202.667C226.484 196.842 232.237 184.641 232.237 184.641C232.237 184.641 219.842 181.829 208.647 187.655C197.454 193.449 191.699 205.681 191.699 205.681C191.699 205.681 204.093 208.493 215.289 202.667Z" fill="#3182CE"/>
<path d="M123.834 684.209C139.344 690.651 155.795 685.349 155.795 685.349C155.795 685.349 147.095 669.623 131.613 663.183C116.101 656.773 99.6493 662.075 99.6493 662.075C99.6493 662.075 108.322 677.799 123.831 684.241L123.834 684.209Z" fill="#3182CE"/>
<path d="M177.494 657.011C181.555 639.58 174.645 622.85 174.645 622.85C174.645 622.85 161.194 634.376 157.105 651.804C153.072 669.237 159.952 685.996 159.952 685.996C159.952 685.996 173.403 674.47 177.467 657.008L177.494 657.011Z" fill="#3182CE"/>
<path d="M145.681 720.349C161.866 724.498 177.541 716.9 177.541 716.9C177.541 716.9 166.96 702.578 150.776 698.429C134.592 694.281 118.917 701.879 118.917 701.879C118.917 701.879 129.469 716.199 145.681 720.349Z" fill="#3182CE"/>
<path d="M195.576 685.794C197.44 667.951 188.53 652.395 188.53 652.395C188.53 652.395 176.597 665.716 174.732 683.559C172.867 701.402 181.805 716.961 181.805 716.961C181.805 716.961 193.739 703.64 195.603 685.797L195.576 685.794Z" fill="#3182CE"/>
<path d="M174.205 753.812C190.702 756.294 205.674 747.16 205.674 747.16C205.674 747.16 193.905 733.988 177.383 731.473C160.889 728.96 145.914 738.125 145.914 738.125C145.914 738.125 157.683 751.297 174.205 753.812Z" fill="#3182CE"/>
<path d="M220.923 714.43C221.232 696.514 210.983 681.906 210.983 681.906C210.983 681.906 200.234 696.367 199.953 714.286C199.672 732.205 209.893 746.81 209.893 746.81C209.893 746.81 220.643 732.349 220.923 714.43Z" fill="#3182CE"/>
<path d="M206.397 781.418C223.09 781.658 236.891 770.602 236.891 770.602C236.891 770.602 223.635 759.119 206.942 758.879C190.252 758.608 176.476 769.697 176.476 769.697C176.476 769.697 189.732 781.18 206.397 781.418V781.418Z" fill="#3182CE"/>
<path d="M248.187 736.114C246.391 718.326 234.503 705.238 234.503 705.238C234.503 705.238 225.536 721.015 227.332 738.803C229.127 756.59 241.015 769.678 241.015 769.678C241.015 769.678 250.01 753.904 248.187 736.114Z" fill="#3182CE"/>
<path d="M241.586 805.678C258.209 803.842 270.731 791.137 270.731 791.137C270.731 791.137 256.315 781.435 239.695 783.24C223.071 785.076 210.55 797.781 210.55 797.781C210.55 797.781 224.966 807.484 241.586 805.678V805.678Z" fill="#3182CE"/>
<path d="M278.272 755.502C274.575 738.081 261.319 726.598 261.319 726.598C261.319 726.598 254.082 743.343 257.804 760.797C261.529 778.221 274.757 789.701 274.757 789.701C274.757 789.701 281.969 772.923 278.272 755.502Z" fill="#3182CE"/>
<path d="M284.805 826.156C301.036 821.776 311.757 807.313 311.757 807.313C311.757 807.313 296.163 799.923 279.932 804.303C263.701 808.683 252.979 823.146 252.979 823.146C252.979 823.146 268.573 830.536 284.805 826.156Z" fill="#3182CE"/>
<path d="M314.486 770.944C308.489 754.294 293.814 745.007 293.814 745.007C293.814 745.007 288.895 762.677 294.892 779.327C300.918 795.948 315.564 805.263 315.564 805.263C315.564 805.263 320.482 787.594 314.458 770.941L314.486 770.944Z" fill="#3182CE"/>
</svg>
