<svg width="1000" height="1000" viewBox="0 0 1000 1000" fill="none" xmlns="http://www.w3.org/2000/svg">
<path d="M654.926 543.003C654.926 543.003 655.863 540.659 657.648 536.239C658.102 535.141 658.616 533.925 659.161 532.56C659.856 531.255 660.582 529.83 661.399 528.288C662.216 526.745 663.093 525.084 664.031 523.304C664.999 521.524 666.269 519.833 667.509 517.934C672.379 510.339 679.548 501.795 689.228 493.488C698.847 485.121 711.007 477.052 725.164 470.199C739.29 463.227 755.261 457.204 772.382 452.102C789.503 446.939 807.713 442.371 826.346 437.802C835.633 435.458 845.01 433.055 854.326 430.326C863.583 427.507 872.778 424.422 881.52 420.713C890.202 416.945 898.399 412.347 904.661 406.413C906.052 404.811 907.716 403.387 908.926 401.726L910.741 399.204L911.648 397.958C911.92 397.513 912.102 397.039 912.344 396.593L913.735 393.864L914.098 393.182L914.28 392.855C914.28 392.855 914.008 393.567 914.189 393.093L914.28 392.855L914.915 391.075L916.186 387.515C916.458 386.477 916.609 385.587 916.851 384.608C917.395 382.828 917.607 380.573 917.91 378.467C918.242 376.331 918.091 374.135 918.242 371.999C918.091 369.804 918 367.638 917.728 365.443C917.275 363.277 917.153 361.052 916.488 358.886C914.401 350.164 910.741 341.62 906.052 333.58C896.645 317.47 883.849 303.111 870.207 290.591C866.88 287.387 863.25 284.509 859.802 281.454C856.202 278.635 852.754 275.669 849.154 272.939C845.554 270.21 842.045 267.451 838.416 264.929C834.846 262.348 831.247 259.826 827.647 257.453C813.249 247.9 799.092 239.533 785.722 232.235C772.352 224.967 759.738 218.885 748.486 213.574C737.173 208.412 727.221 204.021 718.963 200.58C714.819 198.859 711.128 197.317 707.892 195.982C704.655 194.706 701.872 193.608 699.634 192.718C695.157 190.908 692.767 189.959 692.767 189.959C692.767 189.959 695.278 190.582 699.966 191.739C702.296 192.332 705.199 193.074 708.587 193.934C711.945 194.884 715.817 195.982 720.173 197.228C728.824 199.779 739.32 203.013 751.148 207.255C762.975 211.557 776.315 216.571 790.411 223.068C804.567 229.476 819.661 237.012 834.997 246.238C850.303 255.435 866.124 265.938 880.946 278.932C888.447 285.281 895.646 292.342 902.543 299.907C909.47 307.443 915.823 315.779 921.298 324.917C926.742 334.025 931.371 343.993 934.002 354.851C934.789 357.521 935.061 360.369 935.605 363.129C935.968 365.917 936.12 368.795 936.331 371.613C936.271 377.428 936.029 382.946 934.486 388.999C934.123 390.482 933.73 392.054 933.306 393.449L932.006 397.009L931.37 398.789L931.28 399.026C931.401 398.7 931.007 399.709 931.007 399.709L930.766 400.213L930.251 401.222L928.164 405.227C927.801 405.879 927.468 406.562 927.075 407.214L925.774 409.024L923.113 412.644C921.298 415.017 919.089 416.975 917.063 419.111C908.442 427.092 898.46 432.343 888.659 436.496C868.906 444.744 849.033 448.808 830.158 453.081C811.282 457.234 793.073 460.705 776.163 464.918C759.284 469.19 743.555 473.848 729.61 479.514C715.696 485.21 703.566 491.737 693.675 498.828C683.844 505.918 676.009 513.246 670.504 520.07C669.112 521.761 667.661 523.304 666.572 524.876C665.452 526.478 664.394 527.961 663.426 529.356C662.458 530.75 661.52 532.056 660.703 533.242C659.977 534.518 659.312 535.675 658.737 536.713C656.347 540.837 655.077 543.033 655.077 543.033" fill="#231F20"/>
<path d="M651.234 519.832C651.234 519.832 652.202 517.785 654.048 513.929C654.501 512.979 655.015 511.881 655.59 510.695C656.256 509.567 656.982 508.321 657.798 506.986C658.585 505.651 659.462 504.227 660.37 502.685C661.277 501.171 662.517 499.688 663.667 498.056C668.265 491.529 674.949 484.291 683.722 477.259C692.433 470.199 703.353 463.494 715.997 457.768C728.611 451.983 742.889 447.088 758.194 442.786C773.5 438.484 789.865 434.746 806.714 430.83C823.502 426.795 840.986 422.671 857.562 415.67C865.79 412.139 873.806 407.748 880.279 401.666C886.843 395.585 891.199 387.752 893.165 379C894.254 374.788 894.526 370.308 894.587 365.917C894.436 363.722 894.345 361.497 894.073 359.301C893.649 357.135 893.468 354.91 892.832 352.774C890.775 344.141 887.115 335.953 882.638 328.299C878.162 320.644 872.868 313.524 867.06 306.968C861.253 300.411 855.203 294.211 848.76 288.574C836.025 277.152 822.473 267.48 809.255 258.966C795.975 250.481 782.908 243.271 770.566 237.071C758.255 230.841 746.67 225.738 736.355 221.317C726.01 216.986 716.844 213.456 709.282 210.696C705.471 209.332 702.083 208.115 699.149 207.047C696.184 206.068 693.643 205.208 691.586 204.526C687.473 203.161 685.295 202.419 685.295 202.419L691.617 204.407C693.674 205.06 696.214 205.861 699.239 206.78C702.204 207.789 705.622 208.946 709.464 210.222C717.116 212.833 726.342 216.185 736.778 220.309C747.214 224.522 758.951 229.417 771.322 235.558C783.755 241.64 796.974 248.73 810.434 257.126C823.835 265.552 837.628 275.134 850.514 286.675C857.048 292.342 863.219 298.601 869.117 305.247C875.016 311.892 880.461 319.131 885.089 326.934C889.686 334.736 893.498 343.162 895.706 352.151C897.944 361.111 898.338 370.605 896.129 379.742C895.827 380.899 895.585 382.056 895.252 383.184L894.103 386.388L893.528 387.99C893.286 388.672 892.984 389.087 892.742 389.651L891.108 392.796C890.624 393.864 889.959 394.843 889.233 395.763L887.146 398.611C885.724 400.48 883.939 402.052 882.366 403.773C875.469 410.181 867.151 414.661 858.742 418.251C841.802 425.341 824.228 429.406 807.379 433.381C790.5 437.297 774.136 440.798 758.83 444.892C743.554 449.016 729.307 453.733 716.723 459.311C704.14 464.888 693.22 471.296 684.417 478.12C675.615 484.914 668.809 491.974 664.09 498.383C662.91 499.985 661.67 501.409 660.733 502.922C659.795 504.435 658.918 505.829 658.101 507.135C657.284 508.44 656.528 509.656 655.832 510.784C655.257 511.97 654.713 513.009 654.229 513.988C652.323 517.815 651.295 519.832 651.295 519.832" fill="#231F20"/>
<path d="M53.121 697.66C53.121 697.66 54.9057 701.665 58.2331 709.171C61.8327 716.529 67.2473 727.239 75.5355 740.025C83.8237 752.812 95.2578 767.409 110.14 782.45C125.083 797.402 143.838 812.385 165.95 826.21C188.152 839.857 213.773 852.139 241.905 862.463C270.097 872.728 300.86 880.679 333.105 886.642C365.381 892.606 399.26 895.869 433.713 897.234C468.167 898.48 503.316 897.234 538.012 893.258C572.677 889.372 607.222 882.875 639.134 871.779C647.12 869.02 654.894 865.905 662.335 862.434C669.807 859.022 677.006 855.165 683.57 850.893C687.109 848.52 690.648 846.176 694.187 843.832C697.575 841.459 700.933 839.115 704.29 836.771C707.588 834.339 710.885 831.906 714.182 829.473C717.449 827.011 720.564 824.459 723.771 821.967C736.354 811.88 747.758 800.992 757.71 789.6C767.602 778.178 775.557 765.777 780.004 752.871C784.42 739.936 784.632 726.556 781.093 714.185C777.644 701.754 770.808 690.481 763.094 680.423C755.32 670.366 746.609 661.466 738.048 653.218C729.488 644.941 720.988 637.376 712.972 630.196C696.94 615.896 683.025 602.932 673.527 590.442C668.808 584.211 665.239 578.07 663.182 572.315C661.065 566.589 660.52 561.308 660.883 557.184C661.216 553.031 662.154 549.975 662.91 547.987C663.727 546.029 664.15 545.021 664.15 545.021C664.15 545.021 663.817 546.059 663.182 548.076C662.607 550.094 661.972 553.179 662.002 557.214C662.002 561.219 663.001 566.173 665.511 571.395C667.992 576.646 671.833 582.194 676.794 587.86C686.807 599.223 701.417 610.823 718.235 624.174C734.993 637.613 754.685 652.328 772.562 673.036C781.335 683.449 789.713 695.583 794.614 710.209C797.064 717.508 798.425 725.399 798.516 733.439C798.607 741.479 797.366 749.638 795.068 757.5C790.288 773.194 781.577 787.553 771.201 800.458C760.826 813.423 748.666 825.082 735.749 836.03C732.482 838.7 729.216 841.459 725.888 844.099C722.531 846.71 719.143 849.321 715.725 851.931C712.246 854.483 708.767 857.034 705.258 859.586C701.78 862.018 698.301 864.421 694.792 866.884C679.577 877.238 663.061 884.744 646.061 890.766C612.031 902.811 576.307 909.753 540.402 914.026C504.466 917.912 468.318 918.921 432.836 917.408C397.354 915.924 362.598 911.356 329.476 904.68C296.323 898.035 264.894 888.571 236.127 877C207.36 865.489 181.437 851.486 159.174 836.237C136.911 820.958 118.519 804.285 104.151 787.968C89.7223 771.651 79.2864 755.838 71.8452 742.28C64.3434 728.752 60.0783 717.389 57.0837 709.735C54.452 701.962 53.0605 697.838 53.0605 697.838" fill="#231F20"/>
<path d="M29.5918 703.178C29.5918 703.178 31.3462 707.48 34.6131 715.579C38.2128 723.53 43.5668 735.19 52.0365 749.133C60.5365 763.047 72.3033 779.127 88.0025 795.622C103.732 812.088 123.606 828.672 147.17 844.01C170.824 859.2 198.26 872.995 228.509 884.417C258.788 895.839 291.85 904.858 326.546 911.534C395.997 924.765 472.316 928.088 547.273 919.603C584.691 915.331 621.987 908.27 656.865 896.106C674.258 890.024 691.046 882.489 705.898 872.669C721.083 862.612 735.421 852.169 749.003 841.043C762.554 829.948 774.956 818.021 785.755 805.264C796.494 792.537 805.266 778.564 810.166 763.7C815.006 748.837 815.097 733.142 810.741 719.08C806.476 704.958 798.581 692.617 789.93 681.758C781.188 670.93 771.599 661.466 762.222 652.803C752.845 644.11 743.558 636.219 734.877 628.742C717.483 613.849 702.389 600.588 692.044 587.712C686.902 581.304 683 574.985 680.64 569.051C678.251 563.147 677.494 557.659 677.706 553.298C677.918 548.937 678.795 545.644 679.551 543.537C680.338 541.431 680.761 540.333 680.761 540.333C680.761 540.333 680.368 541.431 679.642 543.567C678.946 545.703 678.16 548.996 678.069 553.327C677.948 557.659 678.825 563.029 681.336 568.814C683.816 574.599 687.779 580.74 692.982 587.03C703.448 599.609 718.693 612.544 736.359 627.111C753.873 641.796 774.412 657.906 792.622 679.711C801.545 690.659 809.834 703.267 814.492 718.012C816.791 725.34 818.092 733.172 818.092 741.153C818.092 749.133 816.791 757.203 814.401 765.035C809.44 780.67 800.487 795.237 789.627 808.409C778.768 821.611 766.063 833.715 752.421 845.048C738.809 856.322 724.108 867.062 709.044 877.149C693.617 887.443 676.496 895.157 658.8 901.417C623.379 913.907 585.749 921.175 547.999 925.596C472.316 933.873 395.513 930.254 325.548 916.666C290.55 909.902 257.306 900.349 226.906 888.511C196.506 876.674 169.009 862.463 145.294 846.858C121.609 831.194 101.887 814.046 86.3691 797.195C70.8514 780.284 59.2963 763.937 51.0383 749.786C42.7198 735.664 37.759 723.797 34.3106 715.757C31.2252 707.599 29.5918 703.238 29.5918 703.238" fill="#231F20"/>
<path d="M701.931 192.214C701.931 192.214 698.18 191.265 691.102 189.485C689.348 189.04 687.381 188.535 685.203 188.001C683.026 187.527 680.636 187.022 678.065 186.459C672.922 185.331 667.024 184.026 660.339 182.869C647.06 180.229 630.725 178.003 612.001 176.075C593.247 174.176 572.012 173.257 548.871 173.553C525.761 173.909 500.745 175.778 474.58 179.517C448.415 183.255 421.191 189.366 393.664 197.584C366.168 205.861 338.46 216.631 311.568 230.04C284.707 243.42 258.542 259.293 234.403 277.686C210.174 295.991 187.729 316.551 167.856 338.742C148.073 360.993 130.286 384.579 114.769 408.402C99.2812 432.254 85.9414 456.285 75.1425 479.93C69.8792 491.797 65.0393 503.457 61.0465 514.997C58.8686 520.693 57.2654 526.479 55.3899 532.056C53.7867 537.723 52.1533 543.27 50.7921 548.729C45.3775 570.683 42.5341 591.302 41.7174 609.666C41.6267 614.265 41.2939 618.715 41.4452 623.017C41.5359 627.319 41.6569 631.472 41.7476 635.448C42.4434 643.369 42.7459 650.726 43.9256 657.283C44.4096 660.576 44.8633 663.661 45.317 666.598C45.922 669.506 46.4967 672.206 47.011 674.727C47.5554 677.249 48.0394 679.593 48.4932 681.759C49.0074 683.895 49.6124 685.793 50.0661 687.514C52.002 694.397 53.0608 698.076 53.0608 698.076C53.0608 698.076 51.7601 694.486 49.3099 687.751C48.7049 686.06 47.9789 684.191 47.2832 682.085C46.6782 679.979 45.9825 677.664 45.2868 675.143C44.5608 672.621 43.8046 669.951 42.9576 667.073C42.3224 664.136 41.6872 661.051 40.9914 657.757C39.3882 651.201 38.6018 643.814 37.3918 635.774C37.0591 631.739 36.7263 627.526 36.3633 623.165C36.0003 618.804 36.0911 614.265 35.9398 609.548C35.7584 590.798 37.6035 569.526 42.3224 546.831C46.9202 524.135 54.543 500.074 64.7671 475.51C70.0002 463.287 75.7172 450.886 82.1603 438.485C88.6033 426.084 95.8025 413.742 103.486 401.43C111.199 389.118 119.487 376.895 128.35 364.82C137.213 352.745 146.56 340.789 156.845 329.338C177.233 306.316 200.252 284.925 225.177 265.938C250.223 247.07 277.296 230.871 305.035 217.254C308.453 215.474 311.992 213.901 315.501 212.299C319.01 210.697 322.518 209.125 325.997 207.552C333.106 204.675 340.123 201.708 347.232 199.067C354.371 196.516 361.388 193.787 368.557 191.591C372.127 190.434 375.666 189.307 379.205 188.15C382.774 187.111 386.314 186.103 389.853 185.094C418.196 177.024 446.237 171.655 473.068 168.569C499.868 165.395 525.398 164.505 548.902 165.039C572.405 165.543 593.852 167.56 612.697 170.409C631.542 173.227 647.786 176.52 660.974 179.962C664.271 180.822 667.417 181.504 670.351 182.335C673.255 183.195 676.008 183.967 678.549 184.708C681.09 185.45 683.419 186.132 685.566 186.755C687.684 187.467 689.62 188.09 691.344 188.654C698.241 190.939 701.931 192.155 701.931 192.155" fill="#231F20"/>
<path d="M684.176 172.454C684.176 172.454 680.426 171.416 673.438 169.488C671.684 169.013 669.717 168.449 667.57 167.886C665.392 167.351 663.032 166.788 660.461 166.194C655.349 164.948 649.451 163.524 642.796 162.249C629.547 159.371 613.243 156.76 594.488 154.594C575.704 152.429 554.408 151.212 531.177 151.212C507.946 151.272 482.779 152.814 456.432 156.434C430.085 160.024 402.619 165.957 374.82 174.056C347.082 182.274 318.981 192.806 291.878 206.364C264.744 219.863 238.337 235.824 213.926 254.396C189.455 272.879 166.828 293.676 146.773 316.105C126.749 338.563 109.144 362.505 93.6562 386.535C78.2292 410.625 64.9802 434.953 54.3023 458.835C43.8059 482.777 35.669 506.214 30.5266 528.406C25.3843 550.597 22.8132 571.394 22.2687 589.877C22.2687 594.505 21.9662 598.985 22.1779 603.287C22.3594 607.618 22.5409 611.771 22.7224 615.777C23.5996 623.727 24.0534 631.115 25.3541 637.642C25.8985 640.935 26.443 644.02 26.927 646.957C27.5925 649.835 28.2277 652.564 28.8024 655.086C29.3772 657.608 29.9519 659.952 30.4359 662.088C30.9804 664.224 31.6458 666.093 32.1601 667.813C34.2473 674.667 35.3665 678.316 35.3665 678.316C35.3665 678.316 34.1263 674.696 31.8273 667.932C31.2829 666.241 30.5569 664.342 29.9519 662.236C29.3772 660.1 28.7722 657.786 28.1067 655.264C27.4412 652.742 26.7455 650.043 25.959 647.165C25.3843 644.228 24.8096 641.142 24.1744 637.849C22.7224 631.322 22.0872 623.906 21.0285 615.925C20.7562 611.89 20.484 607.707 20.2117 603.376C19.9093 599.044 20.0907 594.505 20 589.847C20.0907 571.216 22.2384 550.152 27.1993 527.694C32.0693 505.206 39.9643 481.472 50.2187 457.144C55.482 445.04 61.2898 432.757 67.7631 420.505C74.2666 408.252 81.4659 396.029 89.1794 383.836C104.727 359.508 122.332 335.329 142.478 312.515C162.684 289.73 185.492 268.548 210.205 249.738C235.01 231.048 261.81 214.968 289.306 201.44C316.773 187.852 345.237 177.32 373.278 169.132C401.349 160.943 429.178 155.425 455.797 152.162C482.416 148.869 507.764 147.652 531.147 147.89C554.529 148.097 575.946 149.818 594.73 152.399C613.515 154.98 629.819 157.917 643.038 161.092C646.365 161.863 649.511 162.516 652.445 163.287C655.379 164.058 658.102 164.8 660.673 165.482C663.214 166.165 665.573 166.788 667.751 167.381C669.899 168.034 671.835 168.627 673.559 169.161C680.516 171.297 684.207 172.425 684.207 172.425" fill="#231F20"/>
<path d="M180.172 728.336C189.367 739.936 346.087 665.856 337.466 610.645C334.048 588.661 304.404 569.97 280.507 571.572C245.177 573.946 223.428 620.494 219.495 628.92C207.547 654.523 212.084 668.556 193.784 703.089C184.013 721.512 178.266 725.903 180.172 728.306" fill="#ED1D24"/>
<path d="M212.442 647.225C210.748 646.513 218.492 620.405 234.131 595.306C239.364 586.881 246.533 575.577 259.328 563.651C264.773 558.578 279.776 545.495 303.189 536.446C303.189 536.446 327.569 527.041 348.562 531.017C357.123 532.649 358.816 536.149 359.149 536.95C359.936 538.819 359.996 541.46 358.635 542.884C356.034 545.643 349.318 540.837 341.484 538.938C333.014 536.861 326.269 538.79 315.258 541.905C290.877 548.817 272.91 563.473 270.883 565.134C253.036 579.968 242.933 596.819 223.997 628.415C216.374 641.143 213.259 647.581 212.412 647.195" fill="#231F20"/>
<path d="M352.587 547.601C343.603 539.621 327.903 543.745 315.774 547.097C304.733 550.153 283.196 556.62 263.08 576.023C256.728 582.134 252.493 588.216 243.933 600.261C241.785 603.287 242.178 602.872 220.913 637.494C219.249 640.224 217.374 643.279 217.737 643.517C218.342 643.962 226.176 632.955 237.913 620.287C255.397 601.359 263.504 598.274 266.407 597.295C272.669 595.159 286.22 592.192 290.092 597.532C294.206 603.198 285.978 616.163 287.824 631.412C287.975 632.718 288.217 634.142 289.336 634.883C293.994 637.88 305.156 622.779 313.293 625.983C315.743 626.932 318.254 629.692 319.101 632.658C319.857 635.388 318.768 636.901 319.343 637.346C321.733 639.245 349.925 621.503 358.667 591.361C360.361 585.546 364.656 567.805 356.64 553.031C354.825 549.678 353.313 548.224 352.617 547.601" fill="#231F20"/>
<path d="M448.382 440.561C444.268 451.538 446.87 460.349 446.87 460.349C448.624 466.223 452.224 470.199 454.946 473.195C458.909 477.556 464.384 483.608 471.583 484.083C478.45 484.528 483.864 479.751 485.195 478.654C499.896 466.638 962.07 132.582 978.253 87.042C979.131 84.5499 981.702 77.3407 978.253 73.1872C974.049 68.1141 963.31 70.4282 959.59 71.1995C903.538 83.1259 462.751 402.408 448.382 440.561" fill="#231F20"/>
<path d="M429.484 473.195C441.886 476.904 451.899 490.254 447.875 500.638C446.454 504.346 443.58 506.334 441.584 507.817C412.272 529.237 403.894 554.217 387.378 551.577C385.29 551.251 383.717 550.568 382.598 550.093C373.947 546.415 366.385 537.366 366.718 528.347C366.899 523.452 369.349 519.833 370.499 518.201C386.077 496.039 409.066 467.084 429.484 473.195Z" fill="#231F20"/>
<path d="M417.623 642.122C417.623 642.122 417.714 643.961 417.865 647.403C417.865 649.124 418.198 651.23 418.561 653.692C418.772 654.909 418.863 656.273 419.226 657.638C419.589 659.033 419.982 660.486 420.376 662.059C422.221 668.17 424.943 675.617 430.025 682.974C434.956 690.361 441.913 697.867 450.957 703.742C459.941 709.675 471.194 713.502 482.84 713.977C484.292 714.155 485.774 713.977 487.226 713.947L489.434 713.858L490.523 713.799H491.219C491.672 713.769 490.735 713.799 490.886 713.769L491.188 713.71C492.822 713.473 494.485 713.206 496.149 712.939L498.66 712.553C499.416 712.375 500.021 712.138 500.686 711.93C501.987 711.514 503.288 711.129 504.589 710.713C505.92 710.268 507.311 709.556 508.672 709.022C511.455 708.014 513.966 706.293 516.597 704.928C517.868 704.187 519.048 703.208 520.288 702.377C521.528 701.517 522.738 700.686 523.857 699.647L527.275 696.71C528.364 695.642 529.362 694.515 530.421 693.417L531.994 691.786L533.416 690.006L536.289 686.475C537.923 683.864 539.798 681.491 541.16 678.732C547.209 668.141 550.597 656.155 550.96 644.347C550.9 642.893 550.9 641.41 550.869 639.956V638.443C550.869 638.71 550.779 637.642 550.93 639.007L550.839 638.325L550.506 635.595C550.143 631.442 549.357 629.573 548.964 626.843C547.421 621.058 545.152 615.421 542.4 610.022C539.435 604.711 535.987 599.668 531.994 595.099C527.941 590.59 523.343 586.644 518.412 583.202C513.331 580.117 508.067 577.18 502.38 575.518C500.989 574.955 499.537 574.747 498.085 574.391C496.633 574.094 495.211 573.649 493.76 573.501C492.277 573.353 490.825 573.175 489.373 573.026L488.284 572.908L487.74 572.848C487.347 572.848 488.133 572.789 487.982 572.789H485.078C483.475 572.848 481.872 572.878 480.299 572.908C478.938 573.056 477.576 573.204 476.215 573.382L474.158 573.59L472.071 574.065C470.68 574.361 469.288 574.688 467.897 574.984C462.543 576.705 457.279 578.693 452.742 581.571C443.486 587.059 436.256 594.328 431.175 601.626C426.002 608.894 422.947 616.163 420.92 622.245C419.075 628.416 418.349 633.429 418.016 636.841C417.774 640.283 417.653 642.122 417.653 642.122H417.623ZM417.653 642.122C417.653 642.122 417.744 640.283 417.926 636.841C418.137 633.4 418.924 628.386 420.436 622.096C422.13 615.866 424.792 608.39 429.269 600.409C433.776 592.488 440.068 584.003 449.021 576.438C453.438 572.611 458.641 569.259 464.388 566.232C465.87 565.55 467.382 564.897 468.895 564.215L471.194 563.206L473.704 562.405C475.398 561.871 477.123 561.337 478.847 560.803C480.42 560.447 481.993 560.121 483.596 559.765C497.662 556.828 513.603 558.341 528.636 564.482C536.017 567.716 543.095 572.018 549.569 577.239C555.83 582.668 561.699 588.809 566.448 595.87C571.166 602.931 574.948 610.734 577.609 619.041C578.85 623.432 580.09 628.683 580.392 631.857L580.786 634.586L580.876 635.269C581.028 636.752 580.937 635.803 580.967 636.189V636.812L581.058 638.473L581.27 645.089C580.574 662.711 574.796 679.77 564.754 693.477C562.485 697.037 559.46 700.092 556.738 703.267C555.256 704.75 553.683 706.174 552.17 707.628L549.901 709.764L547.391 711.663C540.978 716.944 533.507 720.8 526.096 723.886C522.224 725.162 518.503 726.615 514.571 727.238C512.605 727.624 510.759 728.069 508.733 728.336C506.676 728.514 504.619 728.692 502.592 728.87C501.594 728.929 500.535 729.048 499.628 729.048L497.117 728.929C495.423 728.84 493.76 728.781 492.096 728.692H491.793C491.793 728.692 490.795 728.692 491.158 728.692H490.977L490.281 728.573L488.92 728.366L486.197 727.95C484.413 727.654 482.628 727.446 480.934 726.912C467.08 723.411 455.676 716.499 447.116 708.696C438.525 700.804 432.475 692.171 428.18 684.161C423.824 676.121 421.495 668.526 419.982 662.266C419.65 660.694 419.347 659.181 419.045 657.787C418.712 656.392 418.652 655.027 418.47 653.781C418.137 651.289 417.835 649.183 417.895 647.462L417.744 642.181" fill="#231F20"/>
<path d="M492.521 575.074C492.521 575.074 491.735 575.252 490.253 575.578C488.801 575.964 486.532 576.231 483.901 577.18C482.6 577.625 481.118 578.011 479.575 578.604C478.063 579.257 476.399 579.969 474.644 580.711C472.95 581.571 471.196 582.609 469.351 583.618C467.566 584.775 465.721 586.021 463.846 587.326C460.246 590.234 456.465 593.468 453.137 597.502C451.353 599.401 449.901 601.656 448.267 603.851C447.511 604.979 446.846 606.195 446.089 607.352C445.333 608.509 444.637 609.725 444.033 611.001C441.28 615.926 439.435 621.474 437.922 627.14C436.41 632.777 435.805 638.8 436.077 644.614C436.168 646.157 436.077 647.878 436.319 649.243L436.864 653.485C437.045 654.909 437.468 656.363 437.771 657.787C438.073 659.241 438.406 660.665 438.92 662.029C440.554 667.666 443.065 672.947 445.847 677.842C447.39 680.216 448.812 682.589 450.536 684.725C452.109 686.98 453.924 688.938 455.678 690.866C457.402 692.854 459.429 694.397 461.184 696.147C463.15 697.63 464.965 699.232 466.901 700.508C470.742 703.06 474.523 705.077 478.032 706.62C479.817 707.302 481.481 707.955 483.054 708.548C484.657 708.993 486.139 709.408 487.47 709.764C490.162 710.625 492.37 710.714 493.852 711.07C495.365 711.337 496.151 711.456 496.151 711.456C496.151 711.456 495.335 711.485 493.822 711.545C493.066 711.545 492.098 711.604 491.009 711.663C490.465 711.663 489.86 711.693 489.224 711.722C488.589 711.663 487.924 711.604 487.198 711.545C485.746 711.396 484.173 711.248 482.449 711.07C480.755 710.684 478.909 710.298 476.913 709.853C474.917 709.408 472.95 708.578 470.773 707.866C468.595 707.154 466.538 705.937 464.239 704.899C462 703.742 459.853 702.288 457.523 700.864C455.406 699.203 453.077 697.601 450.99 695.613C446.664 691.786 442.641 687.187 439.132 681.966C438.225 680.69 437.499 679.266 436.652 677.901C435.835 676.537 434.988 675.142 434.353 673.659C433.657 672.205 432.961 670.722 432.266 669.239C431.721 667.696 431.177 666.123 430.632 664.581C430.027 663.038 429.634 661.436 429.241 659.804C428.878 658.173 428.364 656.6 428.122 654.879L427.396 649.747C427.123 647.997 427.184 646.543 427.093 644.911C426.912 638.117 427.728 631.383 429.543 625.004C431.267 618.626 433.869 612.603 437.136 607.233C437.892 605.839 438.709 604.534 439.646 603.288C440.524 602.012 441.371 600.766 442.339 599.579C444.335 597.295 446.15 594.951 448.298 593.023C452.29 588.869 456.858 585.754 461.063 583.114C463.271 581.927 465.388 580.77 467.445 579.821C469.593 579.02 471.589 578.218 473.495 577.566C475.461 577.061 477.276 576.587 478.97 576.142C480.694 575.786 482.297 575.637 483.719 575.43C486.562 574.896 488.801 575.192 490.313 575.074C491.826 575.074 492.642 575.074 492.642 575.074" fill="#231F20"/>
</svg>
