<svg width="1024" height="1025" viewBox="0 0 1024 1025" fill="none" xmlns="http://www.w3.org/2000/svg">
<path d="M1023.14 511.57C1023.14 579.45 1009.92 644.23 985.91 703.5C967.35 749.35 942.33 791.89 911.97 830C897.94 847.64 882.76 864.32 866.54 879.93C863.49 882.88 860.39 885.79 857.26 888.67C855.08 890.67 852.88 892.65 850.66 894.61C849.68 895.49 848.69 896.36 847.7 897.21C847.15 897.69 846.62 898.16 846.09 898.61C843.51 900.85 840.9 903.05 838.28 905.23C837.51 905.88 836.74 906.51 835.97 907.14C834.42 908.41 832.88 909.68 831.31 910.92C830.2 911.81 829.08 912.7 827.96 913.58C826.84 914.47 825.71 915.35 824.59 916.22C823.96 916.72 823.31 917.22 822.65 917.71C822 918.21 821.36 918.71 820.7 919.2C819.77 919.91 818.83 920.61 817.88 921.31C814.42 923.91 810.93 926.46 807.39 928.97C806.22 929.8 805.05 930.63 803.88 931.44C802.71 932.26 801.53 933.08 800.35 933.88C799.17 934.69 797.99 935.49 796.8 936.29C795.56 937.12 794.32 937.95 793.07 938.77C791.82 939.59 790.58 940.41 789.32 941.22C788.77 941.58 788.22 941.93 787.67 942.29C787.12 942.63 786.57 942.99 786.02 943.34C781.87 946 777.66 948.59 773.42 951.11C772.27 951.79 771.13 952.48 769.98 953.15C768.66 953.93 767.32 954.71 765.99 955.46C765.31 955.86 764.63 956.25 763.95 956.63C760.07 958.84 756.15 961 752.2 963.11C751.22 963.64 750.23 964.17 749.24 964.68C749.1 964.76 748.95 964.84 748.81 964.9C747.61 965.53 746.41 966.16 745.2 966.77C745.13 966.83 745.06 966.86 744.98 966.89C743.42 967.7 741.85 968.49 740.27 969.28C736.38 971.23 732.45 973.13 728.5 974.99C725.32 976.48 722.11 977.94 718.9 979.37C681.16 996.13 641.01 1008.45 599.1 1015.66C586.99 1017.76 574.75 1019.42 562.37 1020.65H562.36C545.65 1022.3 528.71 1023.14 511.57 1023.14C497.93 1023.14 484.41 1022.61 471.03 1021.55C448.13 1019.76 425.65 1016.45 403.7 1011.75C364.71 1003.38 327.38 990.57 292.25 973.86C254.41 955.89 219.12 933.39 187.09 907.08C118.9 851.08 65.45 777.78 33.45 693.9C11.84 637.26 0 575.8 0 511.57C0 229.04 229.04 0 511.57 0C794.1 0 1023.14 229.04 1023.14 511.57Z" fill="#66B7F4"/>
<path d="M665.77 209.01C665.77 211.8 614.4 216.27 602.11 220.18C589.83 224.09 581.46 231.34 567.49 231.35C566.75 231.35 566.05 231.33 565.36 231.27C550.07 230.16 546.52 217.06 538.58 212.06C537.68 211.48 536.71 211.02 535.67 210.69C525.06 207.34 497.59 220.74 497.59 220.74V148.71C497.59 148.71 523.95 130.28 546.28 131.96C548.27 132.11 550.08 132.42 551.73 132.85C568.58 137.28 568.81 155.3 576.43 159.88C576.62 159.99 576.82 160.11 577.02 160.22C585.79 165.1 598.52 163.77 612.17 162.68C626.13 161.56 655.73 148.16 658.52 150.95C661.31 153.74 627.25 186.69 627.25 188.92C627.25 191.15 665.78 206.23 665.78 209.02L665.77 209.01Z" fill="white"/>
<path d="M502.15 112.97V314.32C502.15 317.4 499.65 319.9 496.57 319.9C495.21 319.9 493.97 319.41 493 318.59C495.18 317.5 496.57 315.81 496.57 313.91V107.38C499.65 107.38 502.15 109.88 502.15 112.96V112.97Z" fill="white"/>
<path d="M496.57 107.38V313.91C496.57 315.81 495.17 317.5 493 318.59C491.77 317.57 490.99 316.03 490.99 314.31V112.97C490.99 109.89 493.49 107.39 496.57 107.39V107.38Z" fill="#3182CE"/>
<path d="M291.439 975.54C253.459 957.5 218.039 934.92 185.899 908.52C117.459 852.31 63.8192 778.75 31.6992 694.56C50.3992 672.89 89.9592 628.09 96.7392 628.94C105.669 630.06 123.539 691.48 131.359 704.88C139.179 718.28 174.919 721.63 184.969 737.27C195.019 752.91 197.249 817.68 214.009 836.67C230.759 855.66 250.859 854.54 254.219 859.01C257.569 863.48 263.149 902.57 267.619 912.62C270.909 920.02 284.519 956.75 291.439 975.55V975.54Z" fill="#3182CE"/>
<path d="M470.878 1023.4C447.898 1021.6 425.338 1018.29 403.298 1013.56C364.168 1005.16 326.698 992.31 291.438 975.53C284.518 956.72 270.908 920 267.618 912.6C263.148 902.55 257.568 863.46 254.218 858.99C250.868 854.52 230.768 855.64 214.008 836.65C197.258 817.66 195.018 752.89 184.968 737.25C174.918 721.61 139.178 718.26 131.358 704.86C123.538 691.46 105.668 630.03 96.7383 628.92C106.238 627.28 141.408 648.43 164.428 657.58C167.558 658.82 170.458 659.85 173.048 660.56C194.648 666.52 237.818 663.54 250.488 671.73C259.498 677.57 243.038 706.73 250.488 721.62C257.928 736.51 321.968 770.01 330.898 780.44C339.828 790.86 335.368 825.85 342.808 839.25C350.258 852.65 385.998 860.1 392.698 874.25C399.398 888.39 393.448 922.64 401.628 934.56C407.858 943.62 450.708 997.93 470.868 1023.39L470.878 1023.4Z" fill="white"/>
<path d="M599.419 1017.5C587.269 1019.61 574.979 1021.27 562.549 1022.5H562.539C545.769 1024.15 528.769 1025 511.569 1025C497.879 1025 484.309 1024.46 470.879 1023.4C450.719 997.94 407.869 943.63 401.639 934.57C393.449 922.65 399.409 888.4 392.709 874.26C386.009 860.11 350.269 852.66 342.819 839.26C335.379 825.86 339.849 790.87 330.909 780.45C321.979 770.02 257.939 736.51 250.499 721.63C243.049 706.74 259.509 677.58 250.499 671.74C237.839 663.55 194.659 666.54 173.059 660.57C170.469 659.86 167.569 658.83 164.439 657.59C186.989 629.61 269.159 527.68 278.789 516.13C289.959 502.73 308.939 451.36 313.409 448C317.879 444.65 330.159 453.58 337.979 448C344.089 443.63 371.749 398.02 388.279 374.64C388.279 374.63 388.279 374.62 388.299 374.61C391.169 370.54 393.709 367.15 395.729 364.77C396.969 363.31 398.019 362.22 398.829 361.6C399.349 361.2 399.729 361.59 399.999 362.62C402.419 372.06 395.149 435.38 397.159 442.43C399.389 450.25 445.179 480.4 445.179 484.87C445.179 489.34 435.109 552.31 436.249 566.4C439.599 607.72 505.489 671.38 506.609 681.43C507.729 691.48 483.159 726.1 487.619 735.04C492.089 743.97 514.419 768.54 516.659 780.83C518.889 793.12 490.969 884.69 501.019 910.38C508.639 929.83 570.039 989.63 599.399 1017.5H599.419Z" fill="#3182CE"/>
<path d="M729.288 976.68C726.098 978.18 722.878 979.64 719.648 981.08C681.768 997.9 641.468 1010.26 599.408 1017.5C570.048 989.62 508.648 929.83 501.028 910.38C490.978 884.69 518.898 793.11 516.668 780.83C514.438 768.55 492.098 743.98 487.628 735.04C483.158 726.11 507.728 691.48 506.618 681.43C505.498 671.38 439.608 607.72 436.258 566.4C435.118 552.32 445.188 489.34 445.188 484.87C445.188 480.4 399.398 450.25 397.168 442.43C395.158 435.38 402.428 372.06 400.008 362.62C404.078 361.13 409.348 360.56 416.158 361.45L450.778 365.93C450.778 365.93 450.968 366.03 451.318 366.22C455.718 368.64 486.088 385.61 487.638 394.41C489.318 403.9 463.068 436.29 465.858 451.37C468.648 466.45 481.498 485.43 483.168 493.25C484.848 501.07 467.528 541.83 475.348 564.17C483.168 586.51 528.958 630.06 543.478 655.75C557.998 681.44 576.978 766.31 589.268 776.37C601.548 786.42 616.068 776.37 622.768 787.54C629.468 798.71 641.758 855.67 650.688 869.07C657.928 879.91 709.788 950.27 729.288 976.7V976.68Z" fill="white"/>
<path d="M867.819 881.27C864.759 884.23 861.639 887.16 858.509 890.04C856.319 892.05 854.109 894.04 851.889 896C850.909 896.88 849.909 897.75 848.919 898.61C848.369 899.09 847.839 899.56 847.299 900.02C844.709 902.26 842.099 904.48 839.459 906.66C838.689 907.31 837.919 907.94 837.139 908.58C835.589 909.85 834.039 911.13 832.459 912.38C831.339 913.27 830.229 914.17 829.099 915.05C827.969 915.94 826.839 916.83 825.719 917.7C825.079 918.2 824.439 918.71 823.779 919.2C823.129 919.7 822.479 920.21 821.829 920.7C820.889 921.41 819.949 922.12 818.999 922.82C815.529 925.43 812.019 927.99 808.469 930.5C807.299 931.34 806.119 932.16 804.949 932.98C803.779 933.81 802.589 934.62 801.409 935.43C800.229 936.25 799.039 937.05 797.849 937.85C796.609 938.69 795.359 939.51 794.109 940.34C792.859 941.17 791.609 941.98 790.349 942.8C789.799 943.16 789.239 943.51 788.699 943.87C788.149 944.22 787.589 944.57 787.049 944.92C782.879 947.59 778.659 950.19 774.409 952.72C773.259 953.4 772.109 954.09 770.959 954.76C769.629 955.54 768.289 956.32 766.949 957.08C766.269 957.48 765.589 957.87 764.909 958.25C761.009 960.47 757.079 962.64 753.119 964.75C752.139 965.29 751.139 965.81 750.149 966.32C749.999 966.4 749.859 966.48 749.709 966.54C748.499 967.18 747.299 967.8 746.089 968.42C746.019 968.48 745.939 968.51 745.869 968.54C744.309 969.36 742.729 970.15 741.149 970.94L658.549 859.55L618.899 757.36L493.259 522.83L498.289 383.79L480.209 318.58L480.189 318.5L479.869 317.34C479.869 317.34 481.179 315.84 483.199 313.64C483.209 313.64 483.209 313.63 483.209 313.63C483.619 313.17 484.069 312.69 484.549 312.19C488.859 307.59 495.259 301.11 499.949 297.96C500.709 297.46 501.409 297.03 502.059 296.72C502.999 296.27 503.799 296.05 504.439 296.12C510.019 296.68 535.519 341.9 538.499 343.58C546.409 348.07 580.379 341.9 588.199 349.72C596.019 357.54 707.699 549.63 711.049 561.91C714.399 574.19 712.729 611.61 711.049 616.08C709.369 620.55 692.059 621.66 692.619 632.83C693.179 644 742.879 694.24 748.459 707.38C754.039 720.5 775.259 754.01 786.429 763.5C797.599 772.99 819.929 781.37 829.989 800.91C837.459 815.43 857.869 859.54 867.869 881.25L867.819 881.27Z" fill="white"/>
<path d="M745.828 968.55C744.268 969.37 742.688 970.16 741.108 970.95C737.198 972.9 733.258 974.81 729.288 976.68C709.788 950.26 657.928 879.9 650.688 869.05C641.758 855.65 629.468 798.69 622.768 787.52C616.068 776.35 601.548 786.4 589.268 776.35C576.988 766.3 557.998 681.42 543.478 655.73C528.958 630.04 483.168 586.49 475.348 564.15C467.528 541.81 484.838 501.05 483.168 493.23C481.488 485.41 468.648 466.43 465.858 451.35C463.068 436.27 489.308 403.89 487.638 394.39C486.088 385.59 455.718 368.63 451.318 366.2L480.138 316.26L484.498 312.18C488.808 307.58 495.208 301.1 499.898 297.95C500.658 297.45 501.358 297.02 502.008 296.71C502.938 313.65 506.408 346.87 511.568 358.09C518.078 372.26 535.658 392.71 533.978 413.37C532.298 434.03 498.238 463.63 499.358 492.66C500.478 521.7 553.508 590.38 561.608 602.11C569.718 613.84 588.698 608.81 591.498 618.86C594.298 628.91 584.238 654.6 587.588 659.62C590.938 664.65 632.818 707.64 642.868 732.21C652.918 756.78 647.338 812.06 654.598 823.23C661.858 834.4 687.548 844.45 694.248 857.85C700.948 871.25 706.528 919.83 718.258 933.79C726.128 943.16 738.528 959.06 745.828 968.51V968.55Z" fill="#3182CE"/>
<path d="M913.42 831.16C899.34 848.86 884.1 865.6 867.82 881.27C857.81 859.56 837.41 815.45 829.94 800.93C819.89 781.39 797.55 773.01 786.38 763.52C775.21 754.03 753.99 720.52 748.41 707.4C742.83 694.27 693.13 644.02 692.57 632.85C692.01 621.68 709.32 620.57 711 616.1C712.68 611.63 714.35 574.22 711 561.93C709.57 556.68 688.35 518.59 663.92 476.08C691.95 478.55 782.45 486.86 785.27 491.57C788.62 497.15 777.45 594.32 785.27 607.72C793.09 621.12 850.6 649.6 854.51 659.09C858.42 668.58 851.16 694.27 857.86 710.46C864.56 726.65 895.27 757.37 898.07 767.98C900.86 778.59 901.52 803.01 907 817.68C908.81 822.52 911.13 827.14 913.42 831.16Z" fill="#3182CE"/>
<path d="M987.628 704.2C968.998 750.21 943.898 792.91 913.418 831.16C911.128 827.14 908.808 822.52 906.998 817.68C901.518 803.02 900.858 778.59 898.068 767.98C895.278 757.37 864.568 726.66 857.858 710.46C851.158 694.27 858.418 668.58 854.508 659.09C850.598 649.6 793.088 621.12 785.268 607.72C777.448 594.32 788.618 497.16 785.268 491.57C794.188 494.36 865.118 638.43 873.498 646.25C881.878 654.07 900.858 656.3 940.508 673.05C961.988 682.12 977.718 694.64 987.638 704.2H987.628Z" fill="white"/>
</svg>
