<svg width="1000" height="1000" viewBox="0 0 1000 1000" fill="none" xmlns="http://www.w3.org/2000/svg">
<path d="M500 980C765.096 980 980 765.096 980 500C980 234.904 765.096 20 500 20C234.904 20 20 234.904 20 500C20 765.096 234.904 980 500 980Z" fill="#FF4F00"/>
<path d="M707.198 406.3C707.198 406.3 746.06 426.759 783.4 453.395H783.364C786.367 470.225 787.883 487.287 787.892 504.383C787.947 544.963 779.391 585.092 762.787 622.119C747.738 599.989 748.442 584.503 749.213 567.57C749.275 566.201 749.338 564.824 749.393 563.432C750.516 535.466 753.441 520.423 758.205 512.77C762.969 505.117 773.157 482.249 758.114 469.842C743.071 457.434 715.213 427.719 715.213 427.719L701.719 409.552C703.665 408.685 705.504 407.594 707.198 406.3Z" fill="white"/>
<path d="M387.665 656.79C389.312 660.189 390.508 662.657 390.986 663.617V663.58C391.663 664.934 393.917 668.077 397.059 672.458C405.647 684.434 420.868 705.658 428.626 724.848C437.882 747.716 431.026 776.507 429.142 783.472C374.637 769.639 325.382 740.133 287.47 698.602C308.282 664.35 329.23 629.971 331.204 627.155C332.904 624.725 335.117 623.587 337.663 622.278C341.124 620.497 345.201 618.401 349.444 612.311C352.061 608.543 353.374 603.553 353.972 598.337C357.803 602.095 361.381 605.709 362.658 607.303C365.257 610.563 380.604 642.224 387.665 656.79Z" fill="white"/>
<path d="M364.766 320.263C354.1 322.217 344.979 323.888 341.021 323.659V323.623C330.398 323.007 286.827 335.605 286.827 335.605C286.827 335.605 276.502 337.733 263.189 340.604C315.156 265.624 401.918 216.528 500.001 216.528C598.084 216.528 684.701 265.534 736.695 340.441C723.826 337.679 713.972 335.641 713.972 335.641C713.972 335.641 670.392 323.043 659.769 323.659C655.813 323.888 646.707 322.215 636.058 320.258C618.108 316.96 595.772 312.856 586.319 315.698C571.258 320.226 514.682 364.568 510.153 372.755C505.625 380.942 500.119 417.368 500.563 424.812C500.6 425.387 500.691 425.957 500.834 426.515C500.879 426.642 500.916 426.759 500.961 426.877C500.735 427.955 500.544 428.996 500.399 429.992C500.245 428.996 500.055 427.955 499.829 426.877C499.858 426.808 499.885 426.738 499.909 426.668C499.926 426.617 499.942 426.566 499.956 426.515C500.103 425.958 500.194 425.387 500.227 424.812C500.671 417.368 495.156 380.978 490.637 372.755C486.117 364.531 429.558 320.181 414.479 315.698C405.022 312.887 382.709 316.975 364.766 320.263Z" fill="white"/>
<path d="M216.484 454.038C254.105 427.094 293.583 406.328 293.583 406.328C295.277 407.621 297.115 408.712 299.062 409.579L285.568 427.746C285.568 427.746 257.701 457.452 242.639 469.842C227.578 482.231 237.767 505.117 242.549 512.77C247.331 520.423 250.256 535.466 251.361 563.432C251.416 564.824 251.479 566.201 251.541 567.57C252.321 584.681 253.035 600.317 237.495 622.826C220.693 585.606 212.029 545.229 212.082 504.392C212.082 487.511 213.555 470.663 216.484 454.038Z" fill="white"/>
<path d="M646.79 598.337C647.397 603.562 648.71 608.543 651.319 612.311L651.346 612.302C655.585 618.392 659.662 620.493 663.121 622.275C665.67 623.588 667.882 624.728 669.577 627.164C671.542 629.971 692.3 664.024 713.003 698.104C675.203 739.713 626.047 769.342 571.602 783.336C569.637 776.063 562.99 747.535 572.155 724.894C579.896 705.729 595.079 684.541 603.671 672.552C606.829 668.144 609.097 664.98 609.776 663.617C610.254 662.657 611.451 660.187 613.1 656.785C620.162 642.215 635.506 610.555 638.105 607.303C639.391 605.709 642.959 602.095 646.79 598.337Z" fill="white"/>
<path fill-rule="evenodd" clip-rule="evenodd" d="M623.03 575.24C615.86 582.546 598.753 599.976 596.906 601.09C595.912 601.689 590.962 606.326 585.526 611.417C578.483 618.014 570.625 625.373 569.501 625.706C567.509 626.294 513.377 660.447 503.714 699.209C501.196 709.171 500.209 720.474 500.091 731.813C499.955 720.519 498.95 709.171 496.468 699.209C486.823 660.447 432.674 626.294 430.672 625.706C429.522 625.367 421.375 617.757 414.222 611.076C408.931 606.133 404.183 601.698 403.212 601.09C401.528 600.034 387.173 585.454 379.213 577.369C376.384 574.496 374.363 572.443 374.005 572.109C373.487 571.625 370.59 568.106 366.844 563.556C360.7 556.094 352.272 545.857 348.311 541.688C341.935 534.977 339.581 541.162 339.744 541.515C335.505 531.897 331.068 522.497 327.717 516.157C318.895 499.42 324.637 478.119 324.637 478.119C333.287 471.218 334.835 452.199 334.835 452.199C340.323 448.26 352.604 433.977 352.604 433.977C395.632 406.137 387.834 395.333 387.834 395.333C396.23 397.389 401.102 395.686 401.102 395.686C400.713 397.515 411.835 401.989 433.389 405.467C453.626 408.732 455.079 402.545 455.181 401.777C454.92 404.882 460.061 406.744 460.061 406.744C457.688 416.226 466.527 429.775 469.117 433.253C470.178 434.676 469.851 437.61 469.423 441.451C468.805 446.994 467.977 454.425 470.802 461.935C475.584 474.651 489.667 470.974 493.208 469.488C496.224 468.229 499.022 454.201 500.064 444.528C501.096 454.201 503.904 468.229 506.91 469.488C510.452 470.992 524.544 474.651 529.317 461.935C532.13 454.441 531.303 447.026 530.685 441.487C530.255 437.628 529.926 434.681 531.001 433.253C533.619 429.775 542.431 416.226 540.058 406.744C540.058 406.744 545.199 404.882 544.938 401.776C545.039 402.544 546.49 408.777 566.73 405.467C588.275 401.944 599.406 397.497 599.016 395.686C599.016 395.686 603.889 397.389 612.284 395.333C612.284 395.333 604.486 406.137 647.514 433.977C647.514 433.977 659.786 448.26 665.283 452.199C665.283 452.199 666.841 471.2 675.481 478.119C675.481 478.119 681.232 499.429 672.402 516.157C669.06 522.497 664.613 531.87 660.384 541.515C660.538 541.153 658.192 534.977 651.807 541.688C647.69 546.015 638.76 556.861 632.574 564.374C629.167 568.512 626.593 571.639 626.114 572.109C625.856 572.361 624.719 573.52 623.03 575.24ZM567.171 571.84C567.326 571.599 568.487 569.539 565.479 566.14C563.034 563.423 563.759 558.596 564.248 556.468C564.162 556.59 564.078 556.712 563.994 556.834C563.784 557.137 563.575 557.441 563.342 557.745C561.222 560.87 559.322 564.138 557.655 567.526C559.5 567.91 561.225 568.734 562.683 569.928C564.142 571.121 565.291 572.649 566.032 574.382C568.749 580.604 560.508 585.15 560.508 585.15C560.508 585.15 561.622 578.222 558.334 575.016C557.635 574.332 557.114 573.488 556.817 572.556C556.52 571.625 556.456 570.634 556.631 569.672C555.069 573.104 553.855 576.685 553.008 580.359C553.008 580.359 557.691 583.982 556.287 587.704C555.544 589.674 552.456 592.259 549.662 594.598C547.177 596.677 544.924 598.563 544.758 599.65C544.758 599.65 541.896 586.826 547.412 582.877C550.129 580.939 551.515 580.296 552.239 580.16C552.994 576.897 554.04 573.709 555.363 570.632C554.847 571.384 554.162 572.005 553.364 572.446C552.565 572.886 551.674 573.133 550.762 573.168C546.18 573.404 542.421 579.327 542.421 579.327C542.421 579.327 539.252 570.46 545.419 567.608C547.161 566.779 549.082 566.395 551.009 566.492C552.936 566.588 554.808 567.161 556.459 568.16C558.24 564.419 560.299 560.816 562.618 557.383C561.241 558.696 557.184 562.21 553.262 561.386C548.517 560.371 547.448 562.753 547.448 562.753C547.448 562.753 548.218 553.887 554.159 553.171C555.823 552.951 557.516 553.17 559.069 553.805C560.623 554.441 561.983 555.471 563.016 556.794C565.224 553.568 567.603 550.463 570.144 547.493C569.073 547.23 567.954 547.23 566.883 547.493C566.502 547.635 566.112 548.022 565.623 548.51C563.893 550.232 560.912 553.199 552.61 550.961C552.61 550.961 540.837 561.974 534.733 577.461C528.628 592.948 515.632 608.081 496.649 591.526C496.649 591.526 485.945 594.614 489.748 610.246C493.552 625.878 487.584 633.358 484.667 626.675C484.667 626.675 478.328 639.943 473.627 624.981C473.627 624.981 464.906 635.097 463.865 620.118C463.865 620.118 453.096 625.081 456.502 613.334C456.502 613.334 444.031 614.801 452.435 603.472C452.435 603.472 441.133 597.639 450.751 591.617C454.491 589.274 457.492 588.929 460.684 588.562C465.698 587.986 471.183 587.355 480.746 578.838C496.396 564.9 494.766 564.954 494.766 564.954C494.766 564.954 487.629 565.615 491.143 561.195C491.143 561.195 468.193 571.484 474.442 548.824C474.442 548.824 449.881 542.321 462.588 530.765C462.588 530.765 437.483 517.742 453.187 511.855C453.187 511.855 437.627 498.397 447.834 498.107C447.834 498.107 438.008 484.839 446.847 483.761C446.847 483.761 441.984 466.78 445.878 469.126C446.94 469.765 448.001 471.654 449.459 474.25C453.354 481.181 460.081 493.154 477.205 499.855C500.743 509.066 504.049 514.092 507.862 525.875C508.131 526.703 508.391 527.544 508.652 528.385C509.838 532.214 511.029 536.058 513.078 538.88C516.112 535.991 515.243 534.17 515.243 534.17C505.978 511.9 516.447 517.57 516.447 517.57C515.261 515.903 514.192 511.565 514.192 511.565C510.461 494.539 522.008 505.135 522.008 505.135C518.702 482.231 528.982 489.838 528.982 489.838C527.089 469.208 538.038 481.543 538.038 481.543C540.239 460.939 558.207 457.678 558.207 457.678C545.863 465.703 543.78 487.321 543.834 508.694C543.889 530.068 533.872 539.333 533.872 539.333C533.537 539.704 533.211 540.057 532.876 540.383C535.313 539.302 537.693 538.092 540.003 536.761C566.331 521.736 569.265 531.97 570.28 539.758C570.531 541.889 570.891 544.005 571.357 546.098C574.477 542.492 577.829 539.095 581.392 535.927L581.908 536.525C578.246 539.784 574.805 543.285 571.611 547.004C571.892 547.909 572.055 548.018 572.055 548.018C572.055 548.018 571.62 547.873 570.995 547.719C568.858 550.201 566.838 552.782 564.936 555.435C566.542 555.723 568.049 556.413 569.316 557.441C570.583 558.469 571.569 559.801 572.182 561.313C574.381 566.608 567.709 571.46 567.171 571.84Z" fill="white"/>
<path d="M544.93 401.7C544.933 401.725 544.935 401.751 544.938 401.776C544.931 401.726 544.93 401.7 544.93 401.7Z" fill="white"/>
<path d="M455.188 401.7C455.188 401.7 455.187 401.727 455.181 401.777C455.183 401.751 455.185 401.725 455.188 401.7Z" fill="white"/>
<path d="M400.392 830.445C407.019 832.377 412.42 835.011 416.595 838.347C420.769 841.683 423.62 845.277 425.147 849.128C426.583 853.028 426.822 856.882 425.864 860.69C425.701 861.248 425.349 861.676 424.809 861.972C424.178 862.318 423.549 862.4 422.921 862.217L409.736 858.374C408.899 858.13 408.287 857.762 407.9 857.271C407.423 856.829 406.997 856.213 406.622 855.423C406.244 853.344 405.216 851.417 403.539 849.642C401.861 847.866 399.348 846.49 395.999 845.514C392.023 844.355 388.805 844.098 386.346 844.744C383.887 845.39 382.343 846.794 381.712 848.957C381.265 850.492 381.457 851.91 382.289 853.212C383.05 854.494 384.47 855.854 386.549 857.292C388.628 858.731 391.792 860.599 396.042 862.897C403.905 867.082 409.442 871.458 412.651 876.027C415.771 880.645 416.416 886.093 414.586 892.372C413.345 896.628 411.051 900.084 407.703 902.741C404.355 905.399 400.209 907.029 395.265 907.631C390.321 908.234 384.919 907.681 379.058 905.973C372.989 904.204 368.027 901.622 364.172 898.228C360.317 894.834 357.706 891.196 356.34 887.316C354.883 883.485 354.532 880.015 355.287 876.905C355.47 876.277 355.832 875.815 356.372 875.518C356.913 875.221 357.497 875.165 358.125 875.348L371.938 879.374C372.775 879.618 373.432 879.961 373.909 880.402C374.316 880.824 374.637 881.409 374.873 882.159C374.824 883.886 375.578 885.582 377.137 887.247C378.625 888.892 380.73 890.111 383.451 890.904C386.59 891.819 389.16 891.962 391.159 891.334C393.159 890.706 394.474 889.311 395.104 887.148C395.531 885.683 395.434 884.33 394.811 883.089C394.119 881.827 392.849 880.473 391 879.026C389.061 877.628 386.225 875.931 382.493 873.935C376.35 870.858 371.625 867.853 368.317 864.921C364.918 862.038 362.729 858.902 361.749 855.513C360.749 852.194 360.868 848.407 362.109 844.151C363.471 839.477 366.021 835.792 369.759 833.097C373.406 830.451 377.911 828.888 383.274 828.408C388.546 827.977 394.252 828.656 400.392 830.445Z" fill="white"/>
<path d="M366.704 821.089C367.217 821.361 367.597 821.809 367.842 822.433C367.989 823.087 367.926 823.67 367.653 824.184C367.449 824.569 367.264 824.841 367.097 824.999L311.68 874.819C311.079 875.487 310.321 875.908 309.407 876.081C308.493 876.254 307.522 876.068 306.495 875.523L292.243 867.965C291.216 867.42 290.518 866.72 290.148 865.866C289.778 865.012 289.702 864.149 289.918 863.277L300.173 789.505L300.44 788.536C300.712 788.022 301.192 787.66 301.88 787.449C302.469 787.268 303.053 787.331 303.631 787.637L315.475 793.919C317.016 794.736 317.685 795.955 317.484 797.575L316.03 809.389L341.741 823.025L350.609 815.144C351.838 814.068 353.255 813.956 354.859 814.807L366.704 821.089ZM312.527 825.299L308 855.47L330.438 834.798L312.527 825.299Z" fill="white"/>
<path d="M297.501 782.279C298.053 782.751 298.384 783.37 298.496 784.134C298.504 784.907 298.273 785.569 297.8 786.121L251.748 839.967C251.228 840.575 250.61 840.907 249.893 840.962C249.12 840.971 248.458 840.739 247.906 840.267L238.959 832.615C237.633 831.482 237.186 830.048 237.618 828.313L245.356 789.749L208.458 803.374C206.812 804.069 205.326 803.85 204 802.717L195.136 795.136C194.529 794.616 194.197 793.998 194.141 793.28C194.03 792.516 194.234 791.83 194.754 791.222L240.806 737.376C241.326 736.769 241.972 736.461 242.744 736.452C243.462 736.396 244.124 736.628 244.731 737.148L254.589 745.579C255.197 746.098 255.556 746.74 255.667 747.505C255.723 748.222 255.492 748.884 254.972 749.492L228.403 780.557L252.489 771.178C254.293 770.522 255.803 770.714 257.018 771.753L261.326 775.437C262.044 776.051 262.482 776.713 262.64 777.422C262.799 778.131 262.784 778.931 262.595 779.822L257.149 805.142L283.717 774.077C284.19 773.525 284.808 773.193 285.573 773.082C286.29 773.026 286.952 773.257 287.56 773.777L297.501 782.279Z" fill="white"/>
<path d="M236.495 725.213C236.933 725.793 237.124 726.468 237.069 727.239C236.912 727.995 236.544 728.592 235.964 729.031L179.448 771.758C178.81 772.24 178.135 772.432 177.423 772.333C176.666 772.176 176.069 771.807 175.631 771.228L144.933 730.623C144.451 729.985 144.259 729.31 144.358 728.598C144.457 727.885 144.826 727.288 145.463 726.806L153.636 720.627C154.216 720.189 154.891 719.997 155.661 720.052C156.374 720.151 156.971 720.519 157.453 721.157L178.423 748.894L190.161 740.019L170.638 714.196C170.155 713.558 169.993 712.861 170.15 712.105C170.249 711.392 170.617 710.795 171.255 710.313L178.819 704.594C179.399 704.156 180.074 703.964 180.844 704.02C181.557 704.119 182.154 704.487 182.636 705.124L202.159 730.948L214.245 721.811L192.75 693.379C192.268 692.741 192.077 692.066 192.176 691.354C192.275 690.641 192.643 690.044 193.28 689.562L201.454 683.383C202.033 682.945 202.708 682.753 203.479 682.808C204.191 682.907 204.789 683.276 205.271 683.913L236.495 725.213Z" fill="white"/>
<path d="M198.542 671.87C198.856 672.525 198.91 673.225 198.703 673.969C198.399 674.679 197.919 675.192 197.264 675.506L133.391 706.164C132.67 706.51 131.971 706.564 131.292 706.325C130.582 706.021 130.069 705.542 129.755 704.886L124.755 694.47C123.969 692.832 124.057 691.42 125.019 690.233L151.245 648.144L114.1 665.973C113.379 666.319 112.68 666.372 112.001 666.134C111.291 665.83 110.779 665.35 110.464 664.695L104.804 652.903C104.458 652.183 104.405 651.483 104.643 650.804C104.882 650.126 105.361 649.613 106.082 649.267L169.857 618.657C170.578 618.311 171.31 618.241 172.054 618.448C172.733 618.687 173.245 619.166 173.591 619.887L178.638 630.402C179.33 631.843 179.226 633.223 178.327 634.541L153.477 675.969L189.246 658.801C189.901 658.486 190.601 658.433 191.345 658.64C192.024 658.878 192.536 659.358 192.882 660.078L198.542 671.87Z" fill="white"/>
<path d="M158.875 559.283C159.24 561.579 158.397 563.222 156.347 564.21L90.9411 597.119L90.0064 597.488C89.4323 597.58 88.8957 597.444 88.3967 597.082C87.8145 596.659 87.4721 596.125 87.3694 595.479L85.2481 582.131C85.0884 581.126 85.2443 580.255 85.7158 579.518C86.1759 578.709 86.7476 578.14 87.4311 577.811L134.736 554.621L82.5896 547.346C81.8377 547.245 81.1234 546.917 80.4466 546.362C79.7584 545.736 79.3345 544.92 79.1748 543.915L77.0364 530.459C76.9451 529.885 77.1165 529.343 77.5504 528.832C77.9012 528.262 78.3636 527.931 78.9377 527.839L79.9408 527.901L152.326 538.912C154.582 539.216 155.892 540.516 156.257 542.813L158.875 559.283Z" fill="white"/>
<path d="M155.493 479.723C155.007 489.958 152.12 497.896 146.832 503.537C141.545 509.178 134.029 511.95 124.285 511.85C122.177 511.823 119.054 511.711 114.917 511.514C110.707 511.314 107.551 511.128 105.45 510.956C95.8856 510.137 88.6682 506.63 83.7975 500.433C78.8576 494.16 76.6256 486.016 77.1015 475.999C77.5773 465.982 80.5714 458.086 86.0838 452.309C91.5235 446.53 99.0409 443.722 108.636 443.887C112.853 443.942 116.014 444.019 118.119 444.119C120.151 444.216 123.269 444.437 127.472 444.782C137.181 445.607 144.4 449.078 149.129 455.196C153.858 461.313 155.979 469.489 155.493 479.723ZM139.815 478.978C140.004 474.986 138.957 471.772 136.672 469.335C134.39 466.826 130.785 465.382 125.856 465.002C121.653 464.657 118.681 464.443 116.939 464.36C115.051 464.271 112.072 464.202 108 464.154C103.058 464.065 99.3318 465.161 96.8227 467.442C94.3136 469.724 92.966 472.824 92.7798 476.744C92.5936 480.663 93.6412 483.878 95.9227 486.387C98.2077 488.823 101.813 490.268 106.738 490.72C108.767 490.889 111.741 491.067 115.661 491.253C119.508 491.436 122.486 491.541 124.594 491.568C129.54 491.585 133.266 490.489 135.772 488.28C138.277 486.071 139.625 482.97 139.815 478.978Z" fill="white"/>
<path d="M167.121 408.815C164.518 418.725 160.043 425.889 153.698 430.308C147.353 434.727 139.426 435.875 129.916 433.752C127.859 433.287 124.828 432.528 120.822 431.475C116.745 430.404 113.697 429.566 111.678 428.96C102.493 426.172 96.1623 421.24 92.6864 414.166C89.1587 407.003 88.6688 398.573 91.2169 388.874C93.765 379.175 98.3354 372.073 104.928 367.57C111.451 363.047 119.388 361.864 128.739 364.02C132.852 364.95 135.928 365.683 137.966 366.219C139.934 366.736 142.937 367.6 146.977 368.812C156.302 371.637 162.642 376.533 165.996 383.5C169.349 390.467 169.725 398.905 167.121 408.815ZM151.94 404.827C152.956 400.961 152.599 397.599 150.871 394.741C149.161 391.813 145.935 389.65 141.193 388.254C137.153 387.043 134.29 386.215 132.603 385.772C130.776 385.292 127.876 384.605 123.903 383.712C119.087 382.597 115.215 382.894 112.286 384.604C109.358 386.314 107.395 389.067 106.398 392.862C105.401 396.657 105.757 400.019 107.467 402.948C109.196 405.806 112.422 407.968 117.145 409.435C119.095 410.022 121.967 410.814 125.762 411.811C129.487 412.79 132.378 413.512 134.435 413.977C139.269 415.022 143.142 414.724 146.052 413.085C148.962 411.445 150.925 408.692 151.94 404.827Z" fill="white"/>
<path d="M179.879 366.916C179.552 367.562 179.032 368.03 178.317 368.318C177.571 368.51 176.874 368.442 176.228 368.115L113.171 336.232C112.46 335.872 111.992 335.352 111.768 334.67C111.577 333.924 111.645 333.227 111.972 332.581L125.314 306.194C129.598 297.722 134.873 292.106 141.141 289.347C147.376 286.49 154.019 286.844 161.068 290.409C165.595 292.698 168.904 295.71 170.994 299.447C173.083 303.183 174.021 307.352 173.806 311.953L204.39 310.729C204.876 310.732 205.281 310.814 205.604 310.978C206.122 311.24 206.492 311.711 206.716 312.393C206.908 312.977 206.873 313.528 206.611 314.045L200.088 326.948C199.14 328.823 197.596 329.707 195.457 329.601L168.524 329.869L163.52 339.764L185.057 350.653C185.768 351.013 186.219 351.566 186.41 352.312C186.634 352.993 186.566 353.69 186.207 354.401L179.879 366.916ZM155.386 321.643C156.89 318.668 157.323 316.044 156.685 313.773C155.982 311.468 154.338 309.662 151.751 308.354C149.164 307.046 146.734 306.792 144.462 307.592C142.158 308.295 140.237 310.166 138.7 313.206L133.059 324.362L149.745 332.799L155.386 321.643Z" fill="white"/>
<path d="M242.89 268.43C241.31 270.136 239.498 270.488 237.454 269.486L171.172 238.38L170.304 237.873C169.878 237.478 169.653 236.972 169.629 236.356C169.602 235.637 169.81 235.038 170.255 234.558L179.442 224.644C180.133 223.898 180.914 223.483 181.785 223.398C182.706 223.26 183.506 223.358 184.188 223.692L231.645 246.568L205.154 201.066C204.769 200.412 204.586 199.648 204.604 198.773C204.672 197.845 205.051 197.008 205.743 196.262L215.004 186.268C215.399 185.842 215.931 185.641 216.6 185.667C217.266 185.591 217.812 185.75 218.238 186.145L218.81 186.972L254.864 250.697C256.019 252.659 255.806 254.492 254.225 256.198L242.89 268.43Z" fill="white"/>
<path d="M279.835 232.512C279.247 232.934 278.569 233.107 277.803 233.032C277.054 232.856 276.469 232.474 276.047 231.885L234.954 174.497C234.491 173.849 234.317 173.172 234.434 172.465C234.61 171.716 234.993 171.131 235.581 170.709L259.596 153.513C267.307 147.992 274.575 145.459 281.4 145.914C288.243 146.268 293.961 149.652 298.555 156.068C301.505 160.188 303.042 164.386 303.164 168.661C303.287 172.936 302.19 177.061 299.871 181.036L327.519 194.094C327.949 194.321 328.269 194.581 328.48 194.875C328.817 195.346 328.927 195.935 328.81 196.642C328.71 197.248 328.424 197.72 327.953 198.057L316.211 206.465C314.504 207.688 312.728 207.757 310.884 206.674L286.91 194.457L277.905 200.905L291.94 220.506C292.403 221.153 292.547 221.852 292.371 222.601C292.254 223.308 291.872 223.893 291.225 224.357L279.835 232.512ZM279.081 181.098C281.788 179.159 283.385 177.037 283.87 174.73C284.314 172.365 283.692 170.005 282.006 167.651C280.321 165.296 278.287 163.948 275.905 163.606C273.539 163.162 270.973 163.931 268.207 165.912L258.054 173.182L268.927 188.368L279.081 181.098Z" fill="white"/>
<path d="M340.145 192.951C339.496 193.278 338.798 193.344 338.05 193.15C337.334 192.859 336.813 192.389 336.487 191.739L304.686 128.427C304.327 127.713 304.261 127.015 304.487 126.332C304.779 125.616 305.249 125.095 305.898 124.769L318.95 118.213C319.664 117.855 320.363 117.788 321.046 118.015C321.794 118.208 322.347 118.662 322.706 119.376L354.507 182.688C354.866 183.403 354.899 184.118 354.608 184.833C354.382 185.516 353.912 186.037 353.198 186.396L340.145 192.951Z" fill="white"/>
<path d="M395.463 171.011C390.148 172.746 384.919 173.459 379.777 173.151C374.682 172.751 370.168 171.207 366.235 168.518C362.371 165.807 359.548 161.954 357.766 156.96C357.563 156.338 357.601 155.753 357.88 155.204C358.137 154.585 358.61 154.164 359.301 153.938L373.28 149.377C374.177 149.084 374.946 149.1 375.587 149.426C376.297 149.729 377.017 150.296 377.747 151.127C380.653 156.289 385.11 157.891 391.115 155.931C394.567 154.804 396.853 152.798 397.974 149.912C399.094 147.026 398.956 143.442 397.56 139.162L387.794 109.236L354.244 120.184C353.554 120.41 352.854 120.371 352.144 120.068C351.48 119.673 351.036 119.131 350.81 118.44L347.465 108.189C347.217 107.429 347.256 106.729 347.582 106.088C347.976 105.425 348.519 104.981 349.209 104.755L399.327 88.401C400.087 88.1532 400.787 88.192 401.428 88.5176C402.138 88.8206 402.617 89.3518 402.865 90.1112L416.989 133.395C418.904 139.263 419.26 144.685 418.057 149.66C416.854 154.636 414.29 158.948 410.363 162.597C406.436 166.247 401.469 169.051 395.463 171.011Z" fill="white"/>
<path d="M438.243 158.83C437.451 158.91 436.778 158.723 436.224 158.271C435.669 157.818 435.352 157.196 435.272 156.404L428.187 86.2629C428.107 85.4716 428.294 84.7987 428.746 84.2443C429.271 83.6825 429.893 83.3653 430.613 83.2927L444.533 81.8866C445.324 81.8066 445.997 81.993 446.552 82.4458C447.178 82.8912 447.531 83.5096 447.611 84.3009L450.238 110.307L476.784 107.626L474.157 81.6195C474.077 80.8282 474.263 80.1553 474.716 79.6009C475.169 79.0464 475.791 78.7292 476.582 78.6493L490.503 77.2432C491.294 77.1632 491.967 77.3496 492.521 77.8024C493.076 78.2551 493.393 78.8771 493.473 79.6684L500.558 149.81C500.638 150.601 500.451 151.274 499.999 151.829C499.546 152.383 498.924 152.7 498.133 152.78L484.212 154.186C483.421 154.266 482.748 154.08 482.194 153.627C481.639 153.174 481.322 152.552 481.242 151.761L478.528 124.891L451.982 127.573L454.696 154.442C454.776 155.234 454.554 155.91 454.029 156.472C453.576 157.026 452.954 157.344 452.163 157.424L438.243 158.83Z" fill="white"/>
<path d="M513.85 153.458C513.127 153.386 512.501 153.067 511.974 152.503C511.526 151.874 511.338 151.197 511.411 150.474L518.497 79.9797C518.577 79.1843 518.895 78.5591 519.452 78.1038C520.082 77.6558 520.758 77.4682 521.481 77.5409L572.129 82.6319C572.924 82.7118 573.549 83.0303 574.004 83.5873C574.46 84.1443 574.647 84.8205 574.567 85.6158L573.543 95.8104C573.47 96.5334 573.151 97.1587 572.587 97.6863C572.03 98.1415 571.354 98.3291 570.559 98.2492L535.962 94.7716L534.49 109.413L566.701 112.651C567.496 112.731 568.118 113.085 568.566 113.714C569.021 114.271 569.209 114.948 569.129 115.743L568.18 125.178C568.108 125.901 567.789 126.527 567.225 127.054C566.668 127.509 565.992 127.697 565.197 127.617L532.986 124.379L531.471 139.454L566.935 143.019C567.73 143.099 568.355 143.418 568.811 143.975C569.266 144.532 569.454 145.208 569.374 146.003L568.349 156.198C568.276 156.921 567.958 157.546 567.394 158.074C566.837 158.529 566.16 158.716 565.365 158.637L513.85 153.458Z" fill="white"/>
<path d="M580.347 163.192C579.643 163.011 579.073 162.603 578.636 161.966C578.287 161.277 578.203 160.58 578.383 159.876L595.955 91.2396C596.153 90.4652 596.562 89.8947 597.181 89.5281C597.87 89.1795 598.567 89.0953 599.271 89.2755L613.42 92.898C614.195 93.0963 614.765 93.5048 615.132 94.1238C615.569 94.7607 615.688 95.4664 615.49 96.2407L597.918 164.877C597.72 165.652 597.276 166.213 596.587 166.562C595.968 166.928 595.271 167.012 594.497 166.814L580.347 163.192Z" fill="white"/>
<path d="M615.155 172.213C614.487 171.922 613.987 171.426 613.656 170.726C613.42 169.988 613.448 169.284 613.738 168.616L642.078 103.434C642.398 102.698 642.894 102.198 643.565 101.934C644.303 101.698 645.007 101.726 645.675 102.017L671.748 113.353C681.576 117.625 688.18 123.279 691.56 130.313C694.94 137.347 694.831 145.368 691.233 154.376C690.457 156.344 689.371 158.932 687.976 162.141C686.581 165.35 685.443 167.876 684.562 169.719C680.188 178.866 674.405 184.579 667.214 186.858C660.119 189.099 651.624 188.069 641.73 183.767L615.155 172.213ZM647.507 169.108C651.919 171.027 655.612 171.4 658.585 170.229C661.588 168.991 664.159 166.094 666.298 161.539C667.275 159.659 668.432 157.181 669.769 154.106C671.106 151.03 672.114 148.528 672.795 146.598C674.608 142.06 674.844 138.228 673.501 135.1C672.225 132.002 669.381 129.493 664.968 127.575L654.94 123.215L636.977 164.53L647.507 169.108Z" fill="white"/>
<path d="M704.023 219.608C703.463 219.143 703.123 218.528 703 217.765C702.981 216.991 703.204 216.325 703.669 215.766L749.013 161.211C749.524 160.596 750.139 160.255 750.856 160.189C751.629 160.169 752.295 160.392 752.855 160.857L792.05 193.435C792.666 193.946 793.006 194.561 793.073 195.278C793.139 195.995 792.916 196.661 792.404 197.277L785.847 205.166C785.382 205.726 784.767 206.067 784.004 206.189C783.287 206.255 782.62 206.032 782.005 205.521L755.231 183.267L745.813 194.598L770.741 215.316C771.356 215.828 771.674 216.47 771.693 217.244C771.759 217.961 771.537 218.627 771.025 219.243L764.956 226.545C764.491 227.104 763.877 227.445 763.113 227.567C762.396 227.633 761.729 227.41 761.114 226.899L736.187 206.18L726.49 217.846L753.935 240.658C754.551 241.169 754.891 241.784 754.957 242.501C755.024 243.218 754.801 243.885 754.289 244.5L747.732 252.39C747.267 252.949 746.652 253.29 745.889 253.412C745.171 253.478 744.505 253.255 743.89 252.744L704.023 219.608Z" fill="white"/>
<path d="M753.402 262.748C752.944 262.182 752.731 261.511 752.761 260.737C752.894 259.974 753.244 259.364 753.811 258.906L809.074 214.271C809.697 213.767 810.368 213.553 811.085 213.63C811.848 213.763 812.458 214.113 812.916 214.679L820.195 223.691C821.34 225.108 821.579 226.507 820.915 227.887L805.022 275.001L837.16 249.044C837.783 248.54 838.454 248.327 839.171 248.403C839.934 248.536 840.544 248.886 841.002 249.453L849.243 259.655C849.746 260.278 849.96 260.949 849.884 261.666C849.807 262.383 849.457 262.994 848.834 263.497L793.656 308.064C793.032 308.568 792.334 308.804 791.56 308.774C790.843 308.697 790.232 308.347 789.729 307.724L782.381 298.627C781.374 297.38 781.157 296.01 781.73 294.516L796.432 248.364L765.485 273.359C764.918 273.817 764.248 274.031 763.474 274C762.757 273.924 762.146 273.574 761.643 272.951L753.402 262.748Z" fill="white"/>
<path d="M818.039 363.245C817.147 361.098 817.582 359.304 819.345 357.863L875.236 310.565L876.058 309.988C876.595 309.765 877.148 309.771 877.718 310.006C878.383 310.281 878.841 310.72 879.092 311.324L884.277 323.806C884.668 324.745 884.72 325.629 884.434 326.455C884.176 327.35 883.753 328.037 883.166 328.517L842.599 362.13L895 357.003C895.755 356.926 896.526 357.078 897.314 357.459C898.129 357.907 898.732 358.6 899.123 359.54L904.35 372.122C904.573 372.659 904.533 373.226 904.231 373.824C904.023 374.461 903.651 374.891 903.114 375.114L902.125 375.289L829.172 381.518C826.908 381.751 825.33 380.793 824.438 378.646L818.039 363.245Z" fill="white"/>
<path d="M835.503 411.942C835.362 411.229 835.485 410.538 835.871 409.869C836.343 409.258 836.935 408.881 837.648 408.74L907.153 395.003C907.938 394.848 908.628 394.971 909.226 395.371C909.838 395.843 910.214 396.435 910.355 397.148L920.225 447.085C920.38 447.869 920.257 448.56 919.857 449.158C919.456 449.755 918.864 450.132 918.08 450.287L908.028 452.273C907.315 452.414 906.624 452.292 905.956 451.905C905.358 451.505 904.982 450.913 904.827 450.128L898.085 416.017L883.649 418.87L889.926 450.629C890.081 451.413 889.923 452.111 889.451 452.723C889.05 453.321 888.458 453.697 887.674 453.852L878.371 455.691C877.658 455.831 876.967 455.709 876.298 455.322C875.701 454.922 875.324 454.33 875.169 453.546L868.892 421.787L854.029 424.725L860.94 459.691C861.095 460.475 860.972 461.166 860.572 461.764C860.171 462.362 859.579 462.738 858.795 462.893L848.743 464.879C848.031 465.02 847.34 464.898 846.671 464.511C846.073 464.111 845.697 463.519 845.542 462.735L835.503 411.942Z" fill="white"/>
<path d="M846.559 476.066C846.571 475.34 846.836 474.69 847.354 474.117C847.943 473.618 848.602 473.374 849.328 473.386L920.169 474.536C920.968 474.549 921.618 474.814 922.118 475.331C922.617 475.92 922.861 476.578 922.849 477.305L922.368 506.949C922.213 516.467 919.913 523.842 915.468 529.076C911.094 534.383 904.947 536.972 897.027 536.843C891.941 536.761 887.638 535.492 884.117 533.036C880.595 530.581 877.924 527.231 876.104 522.986L849.051 537.482C848.611 537.693 848.21 537.795 847.847 537.789C847.265 537.78 846.725 537.517 846.224 537C845.795 536.557 845.586 536.045 845.595 535.463L845.83 520.968C845.865 518.861 846.87 517.388 848.845 516.548L873.024 504.513L873.204 493.396L849.01 493.003C848.21 492.99 847.561 492.689 847.062 492.1C846.562 491.583 846.318 490.925 846.331 490.125L846.559 476.066ZM888.477 506.181C888.423 509.523 889.181 512.079 890.751 513.849C892.394 515.619 894.668 516.528 897.574 516.576C900.481 516.623 902.784 515.788 904.483 514.071C906.254 512.429 907.167 509.9 907.223 506.485L907.426 493.952L888.68 493.647L888.477 506.181Z" fill="white"/>
<path d="M843.866 546.978C844.015 546.267 844.397 545.678 845.014 545.213C845.687 544.834 846.379 544.719 847.09 544.867L916.446 559.344C917.228 559.507 917.816 559.89 918.21 560.491C918.59 561.164 918.705 561.857 918.556 562.568L911.764 595.112C909.893 604.074 906.655 610.339 902.051 613.906C897.502 617.56 891.849 618.681 885.091 617.27C881.535 616.528 878.705 614.972 876.601 612.603C874.554 610.32 873.198 607.921 872.535 605.408C870.575 608.042 867.893 610.043 864.49 611.411C861.087 612.779 857.535 613.077 853.836 612.305C846.723 610.821 841.665 607.315 838.661 601.789C835.658 596.263 835.062 589.16 836.873 580.482L843.866 546.978ZM882.546 586.786C881.952 589.632 882.211 591.95 883.322 593.74C884.504 595.546 886.304 596.701 888.723 597.206C891.07 597.696 893.111 597.342 894.845 596.146C896.58 594.949 897.744 592.928 898.338 590.082L901.233 576.211L885.442 572.915L882.546 586.786ZM851.189 581.243C850.581 584.16 850.959 586.614 852.325 588.607C853.691 590.599 855.583 591.848 858.001 592.352C860.562 592.887 862.831 592.507 864.809 591.212C866.858 589.933 868.186 587.834 868.795 584.918L871.891 570.087L854.285 566.412L851.189 581.243Z" fill="white"/>
<path d="M825.543 617.914C825.803 617.235 826.274 616.715 826.956 616.353C827.681 616.086 828.383 616.082 829.061 616.341L895.245 641.627C895.992 641.913 896.512 642.384 896.806 643.04C897.074 643.765 897.078 644.467 896.818 645.145L891.605 658.79C891.32 659.536 890.849 660.056 890.192 660.35C889.51 660.712 888.795 660.75 888.048 660.464L821.864 635.178C821.118 634.893 820.611 634.388 820.343 633.663C820.049 633.006 820.045 632.305 820.33 631.558L825.543 617.914Z" fill="white"/>
<path d="M812.649 651.506C813.012 650.874 813.56 650.432 814.294 650.18C815.054 650.029 815.75 650.134 816.382 650.498L878.022 685.923C878.717 686.322 879.159 686.871 879.347 687.567C879.499 688.328 879.393 689.024 879.03 689.656L873.253 699.708C872.344 701.288 871.126 702.018 869.598 701.897L819.885 704.107L855.731 724.708C856.426 725.108 856.868 725.656 857.056 726.353C857.208 727.113 857.103 727.809 856.739 728.441L850.199 739.821C849.8 740.516 849.251 740.958 848.554 741.146C847.858 741.335 847.161 741.229 846.466 740.829L784.921 705.459C784.226 705.059 783.753 704.493 783.501 703.759C783.313 703.063 783.419 702.366 783.818 701.671L789.65 691.524C790.449 690.133 791.649 689.435 793.25 689.43L841.635 686.457L807.117 666.619C806.485 666.255 806.043 665.707 805.792 664.974C805.603 664.277 805.709 663.581 806.109 662.886L812.649 651.506Z" fill="white"/>
<path d="M773.669 713.189C774.156 712.65 774.784 712.335 775.551 712.244C776.323 712.257 776.979 712.506 777.518 712.993L830.104 760.474C830.697 761.01 831.012 761.637 831.049 762.356C831.037 763.128 830.787 763.784 830.3 764.323L811.308 785.357C804.149 793.286 796.709 797.73 788.989 798.689C781.269 799.649 773.725 796.998 766.357 790.737C764.745 789.379 762.644 787.531 760.055 785.193C757.466 782.856 755.441 780.978 753.98 779.561C746.726 772.522 743.165 765.243 743.296 757.725C743.432 750.309 747.104 742.61 754.312 734.628L773.669 713.189ZM766.327 744.743C763.113 748.302 761.587 751.673 761.749 754.854C761.965 758.085 763.885 761.434 767.509 764.902C768.976 766.422 770.95 768.302 773.431 770.542C775.912 772.783 777.956 774.53 779.564 775.786C783.274 778.941 786.821 780.381 790.202 780.106C793.535 779.884 796.809 777.994 800.023 774.434L807.328 766.344L773.997 736.248L766.327 744.743Z" fill="white"/>
<path d="M721.376 766.325C721.942 765.867 722.613 765.654 723.387 765.684C724.15 765.817 724.76 766.167 725.218 766.734L769.853 821.997C770.357 822.62 770.571 823.291 770.494 824.008C770.361 824.771 770.011 825.381 769.445 825.839L758.052 835.041C757.429 835.545 756.758 835.758 756.041 835.682C755.267 835.651 754.628 835.324 754.125 834.701L709.489 779.438C708.986 778.814 708.8 778.121 708.933 777.358C709.01 776.641 709.36 776.031 709.983 775.527L721.376 766.325Z" fill="white"/>
<path d="M693.011 788.323C693.642 787.962 694.336 787.858 695.093 788.011C695.823 788.264 696.368 788.705 696.729 789.336L731.886 850.848C732.283 851.542 732.386 852.236 732.197 852.93C731.945 853.66 731.503 854.206 730.872 854.566L720.841 860.299C719.264 861.201 717.849 861.214 716.596 860.34L672.736 837.198L693.181 872.97C693.577 873.664 693.681 874.358 693.492 875.052C693.24 875.782 692.798 876.327 692.167 876.688L680.811 883.178C680.117 883.575 679.423 883.679 678.729 883.49C678.035 883.3 677.49 882.859 677.093 882.165L641.99 820.748C641.594 820.054 641.472 819.328 641.625 818.571C641.814 817.877 642.256 817.332 642.95 816.935L653.076 811.147C654.464 810.354 655.847 810.359 657.226 811.161L700.329 832.978L680.641 798.531C680.281 797.9 680.177 797.206 680.33 796.449C680.519 795.755 680.961 795.21 681.655 794.813L693.011 788.323Z" fill="white"/>
<path d="M600.825 830.074C610.798 826.906 619.36 826.856 626.509 829.922C633.681 833.058 638.87 839.072 642.076 847.966C642.783 849.952 643.829 853.127 645.215 857.49C646.601 861.854 647.578 865.05 648.147 867.081C650.594 875.987 649.737 883.731 645.575 890.313C641.345 896.918 634.347 901.771 624.581 904.872C618.002 906.962 611.947 907.703 606.417 907.096C600.818 906.51 596.209 904.963 592.591 902.452C588.904 899.964 586.43 896.975 585.169 893.487C584.971 892.864 585.049 892.267 585.402 891.698C585.685 891.15 586.139 890.778 586.762 890.58L601.929 885.762C602.622 885.542 603.209 885.47 603.69 885.546C604.172 885.622 604.639 885.893 605.092 886.359C606.63 888.081 608.6 889.362 611.001 890.201C613.424 891.108 616.367 891.012 619.83 889.912C628.072 887.295 631.015 881.557 628.659 872.698C628.112 870.737 627.19 867.714 625.892 863.627C624.616 859.61 623.625 856.609 622.918 854.622C619.599 845.612 613.714 842.449 605.265 845.133C601.179 846.43 598.254 848.503 596.489 851.351C594.678 854.289 594.465 857.941 595.851 862.304L596.478 864.278L606.243 861.176C607.005 860.934 607.705 860.979 608.344 861.309C609.005 861.709 609.456 862.29 609.698 863.052L612.14 870.74C612.382 871.502 612.337 872.202 612.007 872.841C611.698 873.549 611.162 874.024 610.401 874.266L584.221 882.58C583.459 882.822 582.748 882.743 582.087 882.343C581.449 882.012 581.008 881.466 580.766 880.704L577.005 868.861C575.135 862.974 574.869 857.455 576.206 852.303C577.565 847.221 580.375 842.745 584.636 838.875C588.849 835.097 594.246 832.164 600.825 830.074Z" fill="white"/>
<path d="M465.225 855.997C465.437 855.918 465.655 855.857 465.877 855.816C468.558 855.265 471.335 855.389 473.956 856.178C477.677 857.26 481.104 859.171 483.981 861.766C485.726 863.303 487.25 865.074 488.51 867.028C488.818 867.49 489.162 867.934 489.796 867.816C490.101 867.79 490.392 867.672 490.63 867.479C490.867 867.285 491.041 867.023 491.127 866.729C491.191 866.566 491.236 866.394 491.317 866.231C493.772 860.888 497.34 856.269 501.08 851.84C501.778 851.007 502.557 851.034 503.372 851.84C504.44 852.845 505.518 853.842 506.55 854.883C509.915 858.063 512.83 861.685 515.217 865.651C515.299 865.876 515.441 866.074 515.626 866.224C515.812 866.374 516.035 866.47 516.272 866.503C516.509 866.536 516.75 866.503 516.969 866.409C517.189 866.315 517.378 866.162 517.518 865.968C519.696 863.683 522.022 861.544 524.482 859.565C526.994 857.465 529.924 855.921 533.077 855.037C535.206 854.448 537.458 854.476 539.571 855.119C539.885 855.18 540.172 855.339 540.39 855.573C540.608 855.807 540.746 856.105 540.784 856.423C540.848 857.102 540.386 857.519 539.878 857.881C537.759 859.414 536.016 861.408 534.78 863.713C532.842 867.254 532.299 871.149 532.145 875.107C531.963 879.436 532.144 883.774 532.045 888.094C531.976 891.448 531.716 894.795 531.266 898.119C530.937 900.238 530.452 902.33 529.817 904.377C528.762 908.159 526.951 911.687 524.492 914.747C521.42 918.484 517.281 921.195 512.627 922.518C510.151 923.239 507.609 923.707 505.038 923.913L500.881 923.985C500.657 923.942 500.43 923.912 500.202 923.894C497.574 923.85 494.963 923.454 492.44 922.717C489.36 921.905 486.439 920.579 483.8 918.796C481.095 916.997 478.86 914.578 477.28 911.74C475.846 908.891 474.778 905.873 474.1 902.756C472.701 896.598 472.092 890.286 472.289 883.973C472.416 880.071 472.334 876.165 472.045 872.272C471.778 868.055 470.262 864.013 467.688 860.661C466.812 859.613 465.859 858.632 464.836 857.727C464.681 857.617 464.562 857.465 464.494 857.287C464.426 857.11 464.411 856.917 464.453 856.732C464.495 856.547 464.59 856.378 464.728 856.248C464.865 856.117 465.038 856.03 465.225 855.997V855.997Z" fill="white"/>
</svg>
