<svg width="290" height="266" viewBox="0 0 290 266" fill="none" xmlns="http://www.w3.org/2000/svg">
  <rect width="290" height="265.014" rx="19" fill="white"/>
  <path d="M128.333 99.7425H108.081L120.748 21.4199H140.999L128.333 99.7425Z" fill="#00579F"/>
  <path d="M201.748 23.3345C197.753 21.7498 191.418 20 183.584 20C163.584 20 149.501 30.6646 149.415 45.9119C149.248 57.1613 159.498 63.4094 167.164 67.1603C174.999 70.9932 177.662 73.4949 177.662 76.9113C177.582 82.1584 171.331 84.577 165.5 84.577C157.415 84.577 153.082 83.3301 146.499 80.4109L143.832 79.1595L140.998 96.7412C145.748 98.9051 154.499 100.825 163.584 100.91C184.834 100.91 198.668 90.4099 198.832 74.1616C198.913 65.2456 193.501 58.4138 181.833 52.8312C174.749 49.2475 170.412 46.8311 170.412 43.1643C170.495 39.8309 174.081 36.4167 182.076 36.4167C188.66 36.2495 193.497 37.832 197.162 39.4156L198.994 40.2473L201.748 23.3345V23.3345Z" fill="#00579F"/>
  <path d="M228.664 71.9956C230.332 67.4961 236.749 50.0816 236.749 50.0816C236.665 50.2488 238.414 45.499 239.414 42.5831L240.829 49.3318C240.829 49.3318 244.664 68.0797 245.497 71.9956C242.332 71.9956 232.664 71.9956 228.664 71.9956ZM253.662 21.4199H237.997C233.167 21.4199 229.497 22.8352 227.412 27.9184L197.331 99.7414H218.581C218.581 99.7414 222.079 90.0745 222.831 87.9926C225.162 87.9926 245.834 87.9926 248.833 87.9926C249.414 90.7423 251.249 99.7414 251.249 99.7414H270L253.662 21.4199V21.4199Z" fill="#00579F"/>
  <path d="M91.1658 21.4199L71.3327 74.8284L69.1654 63.9966C65.4987 51.498 53.999 37.9186 41.166 31.1665L59.3325 99.6595H80.7481L112.58 21.4199H91.1658V21.4199Z" fill="#00579F"/>
  <path d="M52.9164 21.4199H20.3333L20 23.0025C45.4169 29.502 62.2499 45.169 69.1659 63.9999L62.0827 28.0037C60.9166 23.0013 57.3329 21.5849 52.9164 21.4199Z" fill="#FAA61A"/>
  <path d="M167.574 139.535H115.903V232.389H167.574V139.535Z" fill="#FF5F00"/>
  <path d="M119.184 185.962C119.176 177.02 121.202 168.192 125.11 160.149C129.017 152.105 134.704 145.056 141.738 139.535C133.027 132.688 122.565 128.429 111.548 127.247C100.531 126.064 89.403 128.005 79.4368 132.848C69.4707 137.691 61.0681 145.24 55.1894 154.632C49.3108 164.025 46.1934 174.882 46.1934 185.962C46.1934 197.043 49.3108 207.899 55.1894 217.292C61.0681 226.684 69.4707 234.233 79.4368 239.076C89.403 243.919 100.531 245.86 111.548 244.677C122.565 243.495 133.027 239.236 141.738 232.389C134.704 226.868 129.018 219.819 125.11 211.775C121.202 203.732 119.176 194.905 119.184 185.962V185.962Z" fill="#EB001B"/>
  <path d="M237.28 185.962C237.281 197.042 234.164 207.899 228.285 217.292C222.407 226.684 214.005 234.233 204.039 239.076C194.073 243.919 182.946 245.86 171.929 244.677C160.912 243.495 150.45 239.236 141.738 232.389C148.767 226.862 154.449 219.812 158.356 211.77C162.263 203.728 164.293 194.903 164.293 185.962C164.293 177.021 162.263 168.197 158.356 160.154C154.449 152.112 148.767 145.062 141.738 139.535C150.45 132.688 160.912 128.429 171.929 127.247C182.946 126.064 194.073 128.006 204.039 132.848C214.005 137.691 222.407 145.24 228.285 154.633C234.164 164.025 237.281 174.882 237.28 185.962V185.962Z" fill="#F79E1B"/>
  <path d="M233.904 222.474V217.497H235.907V216.483H230.807V217.497H232.81V222.474H233.904ZM243.807 222.474V216.474H242.243L240.445 220.601L238.646 216.474H237.082V222.474H238.186V217.948L239.872 221.85H241.017L242.704 217.938V222.474H243.807Z" fill="#F79E1B"/>
</svg>
