<svg width="1024" height="1025" viewBox="0 0 1024 1025" fill="none" xmlns="http://www.w3.org/2000/svg">
<path d="M1023.24 511.57C1023.24 579.44 1010.02 644.23 986.021 703.5C967.461 749.35 942.441 791.89 912.081 829.99C898.041 847.63 882.871 864.31 866.641 879.92C863.591 882.87 860.491 885.78 857.361 888.65C855.181 890.65 852.971 892.63 850.761 894.59C849.781 895.47 848.791 896.34 847.801 897.19C847.261 897.68 846.721 898.14 846.191 898.6C843.621 900.84 841.011 903.04 838.381 905.22C837.621 905.86 836.851 906.5 836.071 907.13C834.521 908.4 832.971 909.66 831.411 910.91C830.291 911.8 829.181 912.69 828.051 913.57C826.931 914.46 825.801 915.34 824.681 916.2C824.051 916.7 823.391 917.2 822.741 917.69C822.101 918.19 821.451 918.69 820.791 919.18C819.861 919.89 818.931 920.6 817.981 921.3C814.521 923.9 811.031 926.45 807.491 928.95C806.321 929.79 805.151 930.61 803.991 931.42C802.821 932.24 801.641 933.05 800.471 933.86C799.291 934.67 798.101 935.47 796.921 936.28C795.681 937.11 794.441 937.93 793.201 938.76C791.951 939.58 790.711 940.39 789.451 941.21C788.911 941.57 788.351 941.92 787.811 942.28C787.261 942.63 786.701 942.98 786.161 943.32C782.011 945.98 777.801 948.58 773.571 951.09C772.421 951.76 771.271 952.46 770.121 953.13C768.801 953.9 767.471 954.68 766.131 955.44C765.451 955.85 764.771 956.23 764.091 956.61C760.211 958.83 756.291 960.99 752.341 963.09C751.361 963.62 750.371 964.14 749.381 964.65C749.241 964.73 749.091 964.81 748.951 964.88C747.741 965.51 746.541 966.14 745.341 966.74C745.281 966.8 745.201 966.83 745.121 966.87C743.561 967.68 741.991 968.47 740.411 969.26C736.521 971.21 732.591 973.11 728.641 974.97C725.461 976.46 722.251 977.92 719.041 979.36C707.491 984.49 695.701 989.21 683.711 993.48C656.541 1003.19 628.321 1010.65 599.241 1015.65C587.131 1017.76 574.901 1019.41 562.511 1020.64C545.801 1022.28 528.861 1023.13 511.721 1023.13C498.081 1023.13 484.551 1022.6 471.181 1021.54C448.281 1019.75 425.801 1016.44 403.851 1011.74C387.961 1008.32 372.351 1004.18 357.041 999.34C334.801 992.28 313.201 983.76 292.391 973.85C254.541 955.88 219.261 933.38 187.231 907.08C119.041 851.08 65.6007 777.78 33.5907 693.91C11.9807 637.27 0.140625 575.81 0.140625 511.58C0.140625 451.03 10.6507 392.96 29.9707 339.06C51.8107 278.08 84.9006 222.45 126.751 174.68C220.491 67.61 358.191 0 511.681 0C665.171 0 789.251 61.1 882.441 159.11C916.191 194.59 944.881 234.9 967.391 278.91C1003.1 348.71 1023.24 427.78 1023.24 511.57Z" fill="#66B7F4"/>
<path d="M684.301 995.24C657.041 1004.99 628.711 1012.47 599.531 1017.49C587.381 1019.61 575.101 1021.27 562.671 1022.5C545.901 1024.15 528.901 1025 511.701 1025C498.011 1025 484.441 1024.46 471.011 1023.4C470.491 1023.36 469.971 1023.32 469.451 1023.27C447.001 1021.45 424.971 1018.17 403.441 1013.56C387.491 1010.13 371.821 1005.97 356.461 1001.11L374.321 780.58C374.991 772.35 381.851 766.01 390.111 766.01H653.401C661.721 766.01 668.621 772.44 669.201 780.74L684.311 995.24H684.301Z" fill="white"/>
<path d="M637.351 780.92H403.301L404.081 773.97L439.121 465.23H603.611L637.351 780.92Z" fill="white"/>
<path d="M632.881 365.27V449.67C632.881 458.27 625.911 465.24 617.311 465.24H423.341C414.751 465.24 407.771 458.27 407.771 449.67V365.27C407.771 356.67 414.751 349.7 423.341 349.7H617.311C625.911 349.7 632.881 356.67 632.881 365.27Z" fill="white"/>
<path d="M594.351 349.7H446.301L455.281 268.9C455.831 263.99 459.971 260.28 464.911 260.28H575.741C580.681 260.28 584.831 264 585.381 268.9L594.351 349.7Z" fill="white"/>
<path d="M577.931 198.67H462.721C460.331 198.67 458.991 195.92 460.461 194.04L516.921 122.02L518.06 120.56C519.21 119.1 521.43 119.1 522.57 120.56L580.181 194.04C581.651 195.92 580.311 198.67 577.921 198.67H577.931Z" fill="white"/>
<path d="M520.331 511.57C534.841 511.57 546.631 523.35 546.631 537.87V587.81C546.631 590.75 544.241 593.13 541.311 593.13H499.371C496.431 593.13 494.051 590.74 494.051 587.81V537.87C494.051 523.36 505.831 511.57 520.351 511.57H520.331Z" fill="#3182CE"/>
<path d="M520.331 634.77C534.841 634.77 546.631 646.55 546.631 661.07V711.01C546.631 713.95 544.241 716.33 541.311 716.33H499.371C496.431 716.33 494.051 713.94 494.051 711.01V661.07C494.051 646.56 505.831 634.77 520.351 634.77H520.331Z" fill="#3182CE"/>
<path d="M969.06 278.06L520.33 236.43L883.8 157.83C917.67 193.44 946.47 233.9 969.06 278.07V278.06Z" fill="white"/>
<path d="M520.32 236.43L28.1797 338.41C50.0997 277.2 83.3197 221.37 125.31 173.43L520.32 236.42V236.43Z" fill="white"/>
<path d="M474.121 198.67V260.27H566.531V198.67H474.121ZM494.271 253.07H478.891V213.56C478.891 209.33 482.321 205.87 486.581 205.87C490.841 205.87 494.271 209.33 494.271 213.56V253.07ZM530.001 253.07H510.641V215.56C510.641 210.21 514.981 205.87 520.331 205.87C525.681 205.87 530.011 210.21 530.011 215.56V253.07H530.001ZM561.761 253.07H546.371V213.56C546.371 209.33 549.821 205.87 554.061 205.87C558.301 205.87 561.761 209.33 561.761 213.56V253.07Z" fill="#3182CE"/>
<path d="M469.431 766.02V1023.27C446.981 1021.45 424.951 1018.17 403.421 1013.56C387.471 1010.13 371.801 1005.97 356.441 1001.11L374.301 780.58C374.971 772.35 381.831 766.01 390.091 766.01H469.431V766.02Z" fill="#3182CE"/>
<path d="M501.33 465.23L466.17 515.63L446.3 773.97H404.08L439.12 465.23H501.33Z" fill="#3182CE"/>
<path d="M452.542 349.7V465.24H423.341C414.751 465.24 407.771 458.27 407.771 449.67V365.27C407.771 356.67 414.751 349.7 423.341 349.7H452.542Z" fill="#3182CE"/>
<path d="M486.051 260.27L479.341 349.69H446.301L455.281 268.89C455.831 263.98 459.971 260.27 464.911 260.27H486.041H486.051Z" fill="#3182CE"/>
<path d="M516.931 122.02L502.231 198.67H462.721C460.331 198.67 458.991 195.92 460.461 194.04L516.921 122.02H516.931Z" fill="#3182CE"/>
</svg>
