<svg width="500" height="500" viewBox="0 0 500 500" fill="none" xmlns="http://www.w3.org/2000/svg">
  <path d="M250 500C388.071 500 500 388.071 500 250C500 111.929 388.071 0 250 0C111.929 0 0 111.929 0 250C0 388.071 111.929 500 250 500Z" fill="#3182CE"/>
  <path d="M357.915 201.198C357.915 201.198 378.156 211.854 397.604 225.726H397.585C399.149 234.492 399.938 243.379 399.943 252.283C399.972 273.418 395.516 294.319 386.868 313.604C379.03 302.077 379.397 294.012 379.798 285.192C379.83 284.48 379.863 283.762 379.892 283.038C380.476 268.472 382 260.637 384.481 256.651C386.962 252.665 392.269 240.755 384.434 234.292C376.599 227.83 362.113 212.354 362.113 212.354L355.085 202.891C356.091 202.438 357.04 201.87 357.915 201.198Z" fill="white"/>
  <path d="M191.492 331.662C192.35 333.432 192.973 334.717 193.222 335.217V335.198C193.574 335.903 194.748 337.54 196.385 339.822C200.858 346.06 208.785 357.114 212.825 367.108C217.646 379.019 214.075 394.014 213.094 397.641C184.706 390.437 159.053 375.069 139.307 353.439C150.146 335.599 161.057 317.693 162.085 316.226C162.971 314.961 164.123 314.368 165.449 313.686C167.252 312.759 169.375 311.667 171.585 308.495C172.948 306.533 173.632 303.934 173.943 301.217C175.939 303.174 177.802 305.056 178.467 305.887C179.821 307.585 187.814 324.076 191.492 331.662Z" fill="white"/>
  <path d="M179.565 156.387C174.01 157.405 169.259 158.275 167.198 158.156V158.137C161.665 157.816 138.972 164.377 138.972 164.377C138.972 164.377 133.594 165.486 126.66 166.981C153.726 127.929 198.915 102.358 250 102.358C301.085 102.358 346.198 127.882 373.278 166.896C366.575 165.457 361.443 164.396 361.443 164.396C361.443 164.396 338.745 157.835 333.212 158.156C331.152 158.275 326.41 157.404 320.863 156.384C311.514 154.667 299.881 152.529 294.958 154.009C287.113 156.368 257.646 179.462 255.288 183.726C252.929 187.99 250.061 206.962 250.292 210.84C250.312 211.139 250.359 211.436 250.434 211.726C250.458 211.792 250.5 211.854 250.5 211.915C250.382 212.476 250.283 213.019 250.208 213.538C250.127 213.019 250.028 212.476 249.91 211.915C249.937 211.854 249.959 211.791 249.976 211.726C250.053 211.436 250.101 211.139 250.118 210.84C250.349 206.962 247.476 188.009 245.123 183.726C242.769 179.443 213.311 156.344 205.458 154.009C200.532 152.545 188.91 154.674 179.565 156.387Z" fill="white"/>
  <path d="M102.358 226.061C121.929 212.028 142.491 201.212 142.491 201.212H142.514C143.396 201.886 144.354 202.454 145.368 202.906L138.34 212.368C138.34 212.368 123.825 227.84 115.981 234.292C108.137 240.745 113.443 252.665 115.934 256.651C118.425 260.637 119.948 268.472 120.524 283.038C120.552 283.762 120.585 284.48 120.617 285.193C121.024 294.105 121.395 302.249 113.302 313.972C104.551 294.586 100.038 273.557 100.066 252.288C100.066 243.495 100.833 234.72 102.358 226.061Z" fill="white"/>
  <path d="M326.467 301.212C326.783 303.934 327.467 306.528 328.825 308.49C331.033 311.662 333.157 312.756 334.956 313.684C336.282 314.367 337.433 314.96 338.311 316.226C339.358 317.689 350.17 335.424 360.953 353.174C341.265 374.845 315.663 390.278 287.307 397.566C286.283 393.778 282.821 378.92 287.594 367.127C291.626 357.146 299.534 346.11 304.009 339.866C305.654 337.57 306.835 335.922 307.189 335.212C307.438 334.712 308.061 333.425 308.92 331.654C312.598 324.065 320.59 307.576 321.943 305.882C322.613 305.052 324.472 303.17 326.467 301.212Z" fill="white"/>
  <path fill-rule="evenodd" clip-rule="evenodd" d="M314.078 289.187C310.344 292.992 301.434 302.07 300.472 302.651C299.954 302.963 297.373 305.383 294.541 308.039C290.874 311.478 286.784 315.313 286.198 315.486C285.16 315.792 256.967 333.58 251.934 353.769C250.623 358.957 250.108 364.844 250.047 370.75C249.976 364.868 249.453 358.957 248.16 353.769C243.137 333.58 214.934 315.792 213.891 315.486C213.292 315.309 209.049 311.346 205.324 307.866C202.568 305.292 200.095 302.982 199.59 302.665C198.713 302.115 191.236 294.522 187.09 290.311C185.617 288.814 184.564 287.745 184.377 287.571C184.108 287.319 182.599 285.486 180.648 283.116C177.448 279.23 173.058 273.898 170.995 271.726C167.674 268.231 166.448 271.453 166.533 271.637C164.325 266.627 162.014 261.731 160.269 258.429C155.674 249.712 158.665 238.618 158.665 238.618C163.17 235.023 163.976 225.118 163.976 225.118C166.835 223.066 173.231 215.627 173.231 215.627C195.641 201.127 191.58 195.5 191.58 195.5C195.953 196.571 198.49 195.684 198.49 195.684C198.288 196.637 204.08 198.967 215.307 200.778C225.847 202.479 226.603 199.256 226.656 198.856C226.521 200.473 229.198 201.443 229.198 201.443C227.962 206.382 232.566 213.439 233.915 215.25C234.467 215.991 234.297 217.519 234.074 219.52C233.753 222.407 233.321 226.277 234.792 230.189C237.283 236.811 244.618 234.896 246.462 234.123C248.033 233.467 249.49 226.16 250.033 221.123C250.571 226.16 252.033 233.467 253.599 234.123C255.443 234.906 262.783 236.792 265.269 230.189C266.734 226.297 266.303 222.429 265.982 219.537C265.758 217.521 265.586 215.98 266.146 215.236C267.509 213.424 272.099 206.368 270.863 201.429C270.863 201.429 273.541 200.459 273.405 198.842C273.458 199.242 274.214 202.488 284.755 200.764C295.976 198.929 301.774 196.613 301.571 195.67C301.571 195.67 304.108 196.556 308.481 195.486C308.481 195.486 304.42 201.113 326.83 215.613C326.83 215.613 333.222 223.052 336.085 225.104C336.085 225.104 336.896 235 341.396 238.604C341.396 238.604 344.391 249.703 339.792 258.415C338.052 261.717 335.736 266.599 333.533 271.623C333.613 271.434 332.391 268.217 329.066 271.712C326.922 273.966 322.27 279.615 319.049 283.528C317.274 285.683 315.933 287.312 315.684 287.556C315.55 287.688 314.957 288.291 314.078 289.187ZM284.104 284.448C285.773 286.335 284.976 287.429 284.976 287.429L285.009 287.434C285.009 287.434 288.83 284.811 287.637 281.939C287.318 281.151 286.804 280.457 286.144 279.922C285.484 279.386 284.7 279.027 283.863 278.877C284.854 277.495 285.906 276.151 287.019 274.858C287.344 274.939 287.571 275.014 287.571 275.014C287.571 275.014 287.486 274.957 287.34 274.486C289.003 272.549 290.795 270.726 292.703 269.028L292.434 268.717C290.578 270.367 288.832 272.136 287.207 274.014C286.965 272.924 286.777 271.822 286.646 270.712C286.118 266.656 284.59 261.325 270.877 269.151C269.674 269.844 268.435 270.474 267.165 271.038C267.34 270.868 267.509 270.684 267.684 270.49C267.684 270.49 272.901 265.665 272.873 254.533C272.844 243.401 273.929 232.141 280.358 227.962C280.358 227.962 271 229.66 269.854 240.391C269.854 240.391 264.151 233.967 265.137 244.712C265.137 244.712 259.783 240.75 261.505 252.679C261.505 252.679 255.49 247.16 257.434 256.028C257.434 256.028 257.99 258.288 258.608 259.156C258.608 259.156 253.156 256.203 257.981 267.802C257.981 267.802 258.434 268.75 256.854 270.255C255.786 268.785 255.166 266.782 254.548 264.788C254.412 264.35 254.277 263.912 254.137 263.481C252.151 257.344 250.429 254.726 238.17 249.929C229.251 246.439 225.747 240.203 223.719 236.593C222.959 235.241 222.406 234.257 221.854 233.924C219.825 232.703 222.358 241.547 222.358 241.547C217.755 242.108 222.873 249.019 222.873 249.019C217.557 249.17 225.66 256.179 225.66 256.179C217.481 259.245 230.557 266.028 230.557 266.028C223.939 272.047 236.731 275.434 236.731 275.434C233.476 287.236 245.429 281.877 245.429 281.877C243.599 284.179 247.316 283.835 247.316 283.835C247.316 283.835 248.165 283.806 240.014 291.066C235.033 295.502 232.177 295.83 229.565 296.131C227.903 296.322 226.34 296.502 224.391 297.722C219.382 300.858 225.269 303.896 225.269 303.896C220.891 309.797 227.387 309.033 227.387 309.033C225.613 315.151 231.222 312.566 231.222 312.566C231.764 320.368 236.307 315.099 236.307 315.099C238.755 322.891 242.057 315.981 242.057 315.981C243.575 319.462 246.684 315.566 244.703 307.424C242.722 299.283 248.297 297.674 248.297 297.674C258.16 306.297 264.929 298.415 268.108 290.349C271.288 282.283 277.42 276.547 277.42 276.547C281.743 277.713 283.296 276.167 284.197 275.27C284.452 275.016 284.655 274.814 284.854 274.74C285.411 274.604 285.994 274.604 286.552 274.74C285.229 276.288 283.989 277.905 282.84 279.585C282.302 278.896 281.593 278.359 280.784 278.028C279.975 277.697 279.093 277.583 278.226 277.698C275.132 278.071 274.731 282.689 274.731 282.689C274.731 282.689 275.288 281.448 277.759 281.976C279.802 282.406 281.915 280.575 282.632 279.891C281.424 281.68 280.352 283.556 279.424 285.505C278.565 284.985 277.589 284.686 276.586 284.636C275.582 284.586 274.582 284.785 273.674 285.217C270.462 286.703 272.113 291.321 272.113 291.321C272.113 291.321 274.071 288.236 276.457 288.113C276.932 288.095 277.396 287.966 277.812 287.737C278.228 287.507 278.585 287.184 278.854 286.792C278.158 288.392 277.607 290.052 277.207 291.75C276.83 291.821 276.108 292.156 274.693 293.165C271.821 295.222 273.311 301.901 273.311 301.901C273.398 301.335 274.571 300.353 275.865 299.27C277.321 298.051 278.929 296.705 279.316 295.679C280.047 293.74 277.608 291.854 277.608 291.854C278.049 289.94 278.681 288.075 279.495 286.288C279.404 286.789 279.437 287.304 279.592 287.79C279.747 288.275 280.018 288.715 280.382 289.071C282.094 290.74 281.514 294.349 281.514 294.349C281.514 294.349 285.807 291.981 284.391 288.74C284.005 287.838 283.407 287.042 282.647 286.421C281.888 285.799 280.989 285.37 280.028 285.17C280.897 283.405 281.886 281.703 282.99 280.075C283.112 279.917 283.221 279.759 283.33 279.601C283.374 279.537 283.418 279.474 283.462 279.41C283.207 280.519 282.83 283.033 284.104 284.448Z" fill="white"/>
  <path d="M273.401 198.802C273.402 198.815 273.404 198.828 273.405 198.842C273.401 198.816 273.401 198.802 273.401 198.802Z" fill="white"/>
  <path d="M226.66 198.816C226.66 198.816 226.66 198.83 226.656 198.856C226.657 198.843 226.659 198.829 226.66 198.816Z" fill="white"/>
  <path d="M169.483 412.897C170.051 413.234 170.415 413.655 170.576 414.16C170.737 414.665 170.699 415.205 170.46 415.78L155.63 456.192L155.417 456.68C155.215 457.021 154.933 457.237 154.571 457.33C154.172 457.4 153.82 457.345 153.517 457.165L148.52 454.201C147.573 453.64 147.267 452.947 147.603 452.123L158.146 423.6L143.167 437.209C142.227 437.931 141.321 438.034 140.45 437.518L137.384 435.699C136.437 435.138 136.112 434.305 136.408 433.201L141.074 413.553L121.138 436.428C120.815 436.8 120.495 436.994 120.178 437.011C119.801 437.043 119.366 436.913 118.874 436.621L113.876 433.657C113.573 433.478 113.376 433.207 113.283 432.845C113.191 432.483 113.246 432.132 113.448 431.791C113.56 431.602 113.669 431.461 113.774 431.37L142.121 398.974C142.983 397.951 143.983 397.776 145.119 398.449L148.924 400.706C149.454 401.02 149.811 401.411 149.994 401.878C150.178 402.345 150.203 402.82 150.069 403.304L145.181 426.045L162.791 410.848C163.731 410.126 164.693 410.057 165.677 410.641L169.483 412.897Z" fill="white"/>
  <path d="M126.993 383.333C127.292 383.654 127.434 384.032 127.419 384.466C127.404 384.901 127.235 385.268 126.914 385.567L95.5307 414.801C95.1772 415.13 94.7981 415.303 94.3935 415.32C93.959 415.305 93.5771 415.12 93.2478 414.767L73.4893 393.555C73.16 393.202 73.003 392.808 73.0184 392.373C73.0338 391.939 73.2183 391.557 73.5718 391.227L76.7535 388.264C77.107 387.934 77.5011 387.777 77.9356 387.793C78.338 387.838 78.7038 388.038 79.0331 388.391L93.8071 404.251L102.34 396.303L88.5538 381.503C88.2245 381.15 88.0675 380.756 88.0829 380.321C88.0662 379.917 88.2346 379.55 88.5881 379.22L91.577 376.436C91.9305 376.107 92.3245 375.95 92.7591 375.965C93.1615 376.011 93.5273 376.21 93.8566 376.564L107.643 391.363L116.465 383.146L101.331 366.9C101.002 366.546 100.845 366.152 100.861 365.718C100.876 365.283 101.06 364.901 101.414 364.572L104.596 361.608C104.949 361.279 105.343 361.122 105.778 361.137C106.18 361.183 106.546 361.382 106.875 361.736L126.993 383.333Z" fill="white"/>
  <path d="M97.4761 348.564C97.687 348.95 97.731 349.353 97.6081 349.771C97.4852 350.189 97.2305 350.503 96.8441 350.714L59.1063 371.307C58.6811 371.539 58.2701 371.613 57.873 371.528C57.4549 371.405 57.1298 371.131 56.8979 370.706L42.9798 345.2C42.7478 344.775 42.6933 344.353 42.8162 343.935C42.9391 343.517 43.2131 343.192 43.6382 342.96L47.4642 340.872C47.8893 340.64 48.3109 340.586 48.729 340.709C49.1085 340.853 49.4143 341.137 49.6462 341.562L60.0531 360.634L70.3137 355.035L60.6026 337.239C60.3707 336.814 60.3161 336.392 60.439 335.974C60.5233 335.577 60.778 335.262 61.2031 335.03L64.7972 333.069C65.2223 332.837 65.6439 332.783 66.062 332.906C66.4415 333.05 66.7473 333.334 66.9792 333.759L76.6902 351.556L87.2986 345.767L76.6386 326.232C76.4066 325.806 76.3521 325.385 76.475 324.967C76.5979 324.549 76.8719 324.223 77.297 323.991L81.123 321.904C81.5481 321.672 81.9697 321.617 82.3878 321.74C82.7673 321.884 83.0731 322.169 83.305 322.594L97.4761 348.564Z" fill="white"/>
  <path d="M74.8623 293.41C75.8027 297.21 76.0345 300.62 75.5577 303.638C75.0809 306.657 74.0773 309.103 72.547 310.977C71.0167 312.851 69.1731 314.1 67.0163 314.725C66.632 314.82 66.28 314.771 65.9604 314.578C65.6408 314.385 65.4334 314.097 65.3383 313.712L63.9278 308.011C63.801 307.499 63.8126 307.088 63.9628 306.779C64.0596 306.438 64.2899 306.086 64.6535 305.724C65.9998 304.938 66.9739 303.655 67.5757 301.874C68.1775 300.094 68.1509 297.88 67.4958 295.232C66.7456 292.2 65.6892 290.037 64.3266 288.743C62.9213 287.459 61.3219 287.039 59.5283 287.483C58.3326 287.779 57.4508 288.427 56.8829 289.429C56.3044 290.388 55.933 291.726 55.7688 293.443C55.594 295.118 55.4813 297.593 55.4307 300.869C55.4818 306.204 54.8157 310.288 53.4324 313.123C51.9958 315.926 49.4413 317.781 45.7687 318.69C43.2918 319.303 40.9288 319.185 38.6796 318.337C36.4197 317.446 34.423 315.878 32.6893 313.633C30.945 311.345 29.6555 308.515 28.8208 305.141C27.9544 301.639 27.8234 298.454 28.4279 295.586C29.0323 292.717 30.1103 290.388 31.6617 288.599C33.1599 286.779 34.8166 285.598 36.6317 285.058C37.0161 284.963 37.368 285.012 37.6877 285.205C38.0073 285.398 38.2146 285.686 38.3097 286.071L39.7837 292.028C40.0056 292.925 39.7531 293.644 39.0262 294.187C37.7231 294.781 36.8028 295.915 36.2652 297.589C35.685 299.274 35.659 301.183 36.1873 303.319C36.779 305.71 37.6923 307.478 38.9272 308.623C40.1621 309.767 41.6336 310.128 43.3418 309.706C44.5375 309.41 45.4352 308.825 46.0348 307.952C46.6345 307.078 47.0536 305.842 47.2922 304.242C47.5202 302.599 47.6539 300.3 47.693 297.345C47.6173 293.375 47.8385 290.148 48.3567 287.664C48.8643 285.136 49.7974 283.138 51.1561 281.669C52.5147 280.2 54.4538 279.153 56.9733 278.53C59.7064 277.854 62.288 278.031 64.7182 279.061C67.0952 280.059 69.1608 281.814 70.9152 284.325C72.6591 286.794 73.9747 289.822 74.8623 293.41Z" fill="white"/>
  <path d="M71.2101 225.308C70.677 229.19 69.63 232.446 68.069 235.076C66.508 237.705 64.6691 239.608 62.5523 240.784C60.4356 241.959 58.259 242.438 56.0226 242.22C55.6301 242.166 55.3209 241.99 55.0952 241.693C54.8694 241.395 54.7835 241.05 54.8374 240.657L55.6371 234.835C55.709 234.311 55.8719 233.934 56.1259 233.702C56.3423 233.421 56.6866 233.179 57.1587 232.977C58.7015 232.745 60.0823 231.912 61.3011 230.48C62.5199 229.047 63.315 226.979 63.6864 224.275C64.1117 221.178 63.9306 218.776 63.1431 217.068C62.312 215.354 60.9805 214.371 59.1486 214.12C57.9274 213.952 56.8673 214.229 55.9684 214.949C55.0755 215.627 54.2347 216.733 53.4461 218.269C52.6634 219.762 51.6421 222.021 50.3821 225.047C48.4541 230.026 46.3221 233.578 43.9863 235.701C41.6129 237.775 38.5508 238.554 34.7998 238.039C32.2701 237.691 30.1167 236.707 28.3397 235.085C26.5687 233.42 25.2929 231.223 24.5123 228.494C23.7377 225.721 23.587 222.612 24.0602 219.166C24.5514 215.59 25.6091 212.58 27.2334 210.137C28.8577 207.693 30.7222 205.927 32.827 204.839C34.8941 203.701 36.8714 203.217 38.7589 203.387C39.1514 203.441 39.4606 203.617 39.6863 203.915C39.9121 204.212 39.998 204.557 39.9441 204.95L39.1085 211.034C38.9827 211.95 38.4815 212.526 37.6049 212.761C36.1732 212.831 34.8976 213.544 33.778 214.901C32.6148 216.253 31.8834 218.019 31.5839 220.199C31.2485 222.642 31.4429 224.624 32.1671 226.145C32.8914 227.667 34.1258 228.547 35.8704 228.787C37.0917 228.955 38.1428 228.744 39.0237 228.154C39.9046 227.564 40.7522 226.569 41.5665 225.17C42.3868 223.727 43.3623 221.639 44.4932 218.906C45.8926 215.188 47.2933 212.269 48.6951 210.151C50.103 207.989 51.7105 206.477 53.5177 205.614C55.3248 204.751 57.5151 204.497 60.0884 204.85C62.8798 205.233 65.2145 206.354 67.0924 208.212C68.9327 210.02 70.2033 212.416 70.9044 215.401C71.6114 218.342 71.7133 221.645 71.2101 225.308Z" fill="white"/>
  <path d="M81.2346 184.128C81.0671 184.535 80.7822 184.823 80.3799 184.99C79.9776 185.158 79.5729 185.158 79.1658 184.991L45.3952 171.092L40.7455 182.39C40.578 182.797 40.2931 183.084 39.8908 183.252C39.4885 183.42 39.0838 183.42 38.6767 183.252L34.1577 181.392C33.7098 181.208 33.3937 180.935 33.2092 180.573C33.0415 180.171 33.0499 179.746 33.2342 179.298L46.052 148.154C46.2363 147.706 46.5296 147.398 46.9319 147.23C47.3342 147.063 47.7592 147.071 48.2071 147.255L52.7261 149.115C53.1332 149.283 53.4206 149.567 53.5883 149.97C53.756 150.372 53.7477 150.797 53.5634 151.245L48.9389 162.481L82.7096 176.38C83.1167 176.548 83.4041 176.832 83.5718 177.235C83.7395 177.637 83.7312 178.062 83.5469 178.51L81.2346 184.128Z" fill="white"/>
  <path d="M96.3148 153.25C96.0521 153.603 95.7052 153.812 95.274 153.875C94.8428 153.939 94.4506 153.839 94.0973 153.576L59.5971 127.926C59.2085 127.637 58.9693 127.295 58.8796 126.899C58.8162 126.468 58.9289 126.058 59.2179 125.669L76.5543 102.351C76.8433 101.963 77.2033 101.737 77.6345 101.673C78.0657 101.61 78.4756 101.722 78.8643 102.011L82.362 104.612C82.7506 104.901 82.9766 105.261 83.0401 105.692C83.0682 106.097 82.9378 106.494 82.6488 106.882L69.6859 124.318L79.0661 131.292L91.1622 115.022C91.4512 114.634 91.8112 114.408 92.2424 114.344C92.6383 114.254 93.0305 114.354 93.4192 114.643L96.7049 117.086C97.0935 117.375 97.3196 117.735 97.383 118.166C97.4111 118.571 97.2807 118.968 96.9918 119.356L84.8956 135.626L94.5938 142.836L107.872 124.977C108.161 124.588 108.521 124.362 108.952 124.299C109.383 124.235 109.793 124.348 110.182 124.637L113.68 127.238C114.068 127.527 114.294 127.887 114.358 128.318C114.386 128.723 114.255 129.119 113.966 129.508L96.3148 153.25Z" fill="white"/>
  <path d="M124.579 117.94C124.193 118.233 123.798 118.368 123.393 118.345C122.961 118.286 122.598 118.065 122.305 117.679L96.2531 83.4816C95.9597 83.0963 95.8421 82.6878 95.9005 82.2559C95.9589 81.824 96.1807 81.4613 96.566 81.1678L100.716 78.0064C101.451 77.4462 102.23 77.3787 103.052 77.804L127.597 88.9917L123.434 62.2769C123.278 61.3448 123.55 60.6119 124.25 60.0783L128.347 56.9569C128.733 56.6634 129.141 56.5459 129.573 56.6043C130.005 56.6627 130.368 56.8845 130.661 57.2697L156.713 91.4676C157.006 91.8528 157.124 92.2614 157.066 92.6933C156.98 93.0901 156.745 93.4353 156.36 93.7288L151.947 97.0903C151.597 97.3571 151.206 97.4613 150.774 97.4029C150.342 97.3445 149.993 97.1402 149.726 96.79L132.398 74.0439L135.729 93.6723C135.861 94.7896 135.559 95.6284 134.823 96.1886L132.669 97.8294C131.934 98.3896 131.045 98.4579 130.003 98.0343L111.964 89.611L129.292 112.357C129.558 112.707 129.663 113.098 129.604 113.53C129.581 113.935 129.376 114.285 128.991 114.578L124.579 117.94Z" fill="white"/>
  <path d="M204.009 74.7425C202.768 75.0419 201.81 74.6388 201.136 73.5334L177.458 35.6324L177.19 35.0856C177.097 34.7004 177.148 34.3485 177.343 34.0297C177.538 33.711 177.828 33.5052 178.213 33.4123L183.862 32.0498C184.419 31.9156 184.883 31.9621 185.255 32.1895C185.659 32.3637 185.972 32.6279 186.193 32.9821L205.016 63.4268L207.892 27.7487C207.895 27.3857 208.031 27.0131 208.301 26.6309C208.571 26.2488 208.985 25.9906 209.541 25.8564L215.19 24.4938C215.533 24.4113 215.863 24.4674 216.182 24.6623C216.544 24.8468 216.771 25.1316 216.864 25.5168L216.875 26.1256L213.077 70.6534C212.981 71.9447 212.312 72.74 211.071 73.0393L204.009 74.7425Z" fill="white"/>
  <path d="M256.409 69.64C250.426 69.429 245.815 67.7466 242.579 64.5928C239.342 61.439 237.741 56.8671 237.776 50.8772C237.777 49.5997 237.821 47.7291 237.908 45.2652C237.996 42.7573 238.085 40.8662 238.174 39.5918C238.556 33.7463 240.519 29.3222 244.061 26.3193C247.603 23.3165 252.277 21.9176 258.085 22.1224C263.893 22.3272 268.458 24.0521 271.779 27.297C275.145 30.5434 276.812 35.0956 276.782 40.9535C276.78 43.5085 276.757 45.402 276.714 46.6339C276.672 47.8218 276.562 49.6902 276.384 52.239C275.953 58.2149 274.012 62.6618 270.561 65.5797C267.11 68.4976 262.393 69.8511 256.409 69.64ZM256.677 62.0504C259.625 62.1544 262.01 61.3574 263.832 59.6596C265.655 57.9178 266.697 55.2233 266.958 51.5761C267.139 48.9393 267.246 47.159 267.279 46.235C267.314 45.2231 267.333 43.4396 267.335 40.8846C267.332 37.2282 266.482 34.4889 264.784 32.667C263.087 30.801 260.765 29.816 257.818 29.712C254.914 29.6096 252.55 30.4293 250.726 32.1712C248.904 33.869 247.863 36.5415 247.602 40.1887C247.513 41.463 247.428 43.2442 247.348 45.5321C247.269 47.7759 247.228 49.5586 247.225 50.8801C247.228 54.5366 248.056 57.297 249.708 59.1615C251.406 60.9835 253.729 61.9464 256.677 62.0504Z" fill="white"/>
  <path d="M305.249 78.1755C299.55 76.3373 295.575 73.459 293.324 69.5407C291.072 65.6224 290.782 60.7871 292.452 55.0348C292.802 53.8062 293.356 52.0187 294.113 49.6724C294.883 47.2842 295.486 45.4893 295.919 44.2877C297.885 38.7692 300.981 35.0498 305.209 33.1293C309.437 31.2087 314.316 31.1406 319.847 32.9248C325.377 34.709 329.297 37.6157 331.605 41.6448C333.956 45.6875 334.316 50.5221 332.686 56.1487C331.985 58.6059 331.446 60.421 331.068 61.5942C330.703 62.7255 330.086 64.4927 329.219 66.8958C327.171 72.5264 324.088 76.2736 319.971 78.1374C315.854 80.0011 310.947 80.0138 305.249 78.1755ZM307.58 70.948C310.388 71.8536 312.899 71.7388 315.116 70.6035C317.346 69.4263 319.085 67.1192 320.333 63.6822C321.227 61.1953 321.817 59.5119 322.101 58.632C322.412 57.6683 322.917 55.9579 323.617 53.5008C324.613 49.9826 324.544 47.1152 323.409 44.8986C322.287 42.6401 320.322 41.058 317.515 40.1524C314.75 39.2603 312.252 39.4028 310.022 40.58C307.805 41.7153 306.073 44.0014 304.826 47.4385C304.392 48.64 303.823 50.3302 303.12 52.5089C302.431 54.6457 301.905 56.3494 301.541 57.6199C300.545 61.138 300.587 64.0196 301.667 66.2646C302.802 68.4812 304.773 70.0424 307.58 70.948Z" fill="white"/>
  <path d="M336.898 90.1466C336.532 89.9044 336.306 89.5707 336.22 89.1454C336.134 88.7201 336.212 88.3248 336.454 87.9594L360.099 52.2772C360.365 51.8753 360.693 51.619 361.081 51.5085C361.507 51.4223 361.92 51.5123 362.322 51.7786L376.518 61.1857C380.976 64.1398 383.776 67.4936 384.917 71.2472C386.095 75.025 385.412 78.8323 382.87 82.6691C381.102 85.3366 378.955 87.148 376.429 88.1034C373.964 89.0464 371.314 89.1571 368.479 88.4355L367.22 107.715C367.184 108.007 367.106 108.244 366.985 108.427C366.767 108.756 366.457 108.945 366.056 108.995C365.692 109.069 365.363 109.009 365.071 108.815L360.083 105.51C359.498 105.123 359.126 104.692 358.967 104.219C358.844 103.769 358.812 103.222 358.871 102.578L360.408 84.9018L352.79 79.8533L344.073 93.008C343.831 93.3734 343.497 93.5992 343.072 93.6855C342.683 93.796 342.288 93.7181 341.886 93.4517L336.898 90.1466ZM364.622 78.7808C366.815 80.2336 368.786 80.83 370.536 80.5698C372.323 80.3338 373.833 79.284 375.068 77.4204C376.303 75.5568 376.693 73.7382 376.238 71.9644C375.82 70.2148 374.515 68.6136 372.322 67.1608L364.594 62.0396L356.894 73.6596L364.622 78.7808Z" fill="white"/>
  <path d="M397.745 145.273C397.026 144.218 397.064 143.179 397.86 142.158L424.938 106.606L425.355 106.162C425.682 105.939 426.029 105.862 426.396 105.932C426.763 106.001 427.058 106.2 427.282 106.527L430.554 111.33C430.876 111.803 430.997 112.253 430.916 112.681C430.896 113.121 430.759 113.507 430.506 113.84L408.685 142.213L443.075 132.285C443.415 132.16 443.812 132.156 444.265 132.273C444.718 132.391 445.106 132.686 445.428 133.159L448.7 137.961C448.899 138.252 448.963 138.582 448.894 138.949C448.849 139.352 448.663 139.665 448.335 139.888L447.77 140.114L404.776 152.308C403.534 152.675 402.554 152.331 401.835 151.276L397.745 145.273Z" fill="white"/>
  <path d="M416.486 176.984C416.344 176.567 416.369 176.163 416.561 175.772C416.753 175.381 417.058 175.114 417.474 174.972L458.159 161.082C458.617 160.926 459.035 160.923 459.412 161.073C459.803 161.265 460.077 161.59 460.234 162.049L465.76 178.235C467.495 183.318 467.666 187.702 466.273 191.388C464.893 195.115 462.017 197.726 457.642 199.219C454.6 200.258 451.782 200.382 449.187 199.594C446.647 198.832 444.471 197.296 442.659 194.984L429.837 209.549C429.63 209.759 429.422 209.9 429.214 209.971C428.839 210.099 428.476 210.06 428.127 209.854C427.792 209.689 427.567 209.44 427.453 209.107L425.512 203.42C425.284 202.753 425.252 202.183 425.416 201.708C425.594 201.275 425.904 200.82 426.346 200.344L438.405 187.225L435.439 178.538L420.44 183.659C420.023 183.801 419.619 183.776 419.228 183.584C418.851 183.434 418.584 183.129 418.428 182.671L416.486 176.984ZM445.509 184.939C446.363 187.439 447.565 189.122 449.117 189.988C450.683 190.895 452.528 190.986 454.653 190.261C456.778 189.536 458.203 188.328 458.929 186.638C459.669 184.99 459.612 182.916 458.759 180.416L455.75 171.604L442.501 176.127L445.509 184.939Z" fill="white"/>
  <path d="M429.432 224.93C429.379 224.493 429.486 224.103 429.755 223.76C430.024 223.417 430.377 223.219 430.814 223.166L473.557 217.978C474.038 217.92 474.428 218.028 474.727 218.302C475.07 218.57 475.268 218.923 475.321 219.36L476.069 225.523C476.128 226.003 476.02 226.394 475.746 226.693C475.52 227.031 475.168 227.229 474.687 227.287L431.944 232.475C431.507 232.528 431.117 232.42 430.774 232.151C430.436 231.926 430.238 231.573 430.18 231.092L429.432 224.93Z" fill="white"/>
  <path d="M429.996 263.309C430.26 260.062 431.05 257.123 432.368 254.491C433.683 251.903 435.503 249.887 437.828 248.441C440.154 246.996 442.879 246.355 446.001 246.52C446.396 246.553 446.715 246.711 446.956 246.996C447.242 247.284 447.369 247.625 447.337 248.02L446.83 254.273C446.751 255.239 446.127 255.851 444.958 256.109C442.651 256.231 440.889 256.993 439.671 258.396C438.449 259.843 437.742 261.751 437.55 264.121C437.325 266.885 438.054 269.065 439.736 270.659C441.414 272.297 443.854 273.246 447.058 273.506L468.252 275.226L470.063 252.912C470.099 252.474 470.282 252.113 470.615 251.831C470.947 251.549 471.332 251.425 471.771 251.461L476.378 251.835C476.861 251.874 477.222 252.058 477.46 252.386C477.742 252.719 477.865 253.104 477.83 253.543L475.389 283.623C475.349 284.106 475.164 284.488 474.832 284.77C474.5 285.053 474.092 285.174 473.609 285.135L446.03 282.897C442.388 282.601 439.311 281.601 436.799 279.895C434.288 278.189 432.442 275.897 431.262 273.019C430.123 270.188 429.701 266.951 429.996 263.309Z" fill="white"/>
  <path d="M425.855 296.865C426.009 296.453 426.284 296.156 426.681 295.975C427.077 295.794 427.482 295.78 427.894 295.934L468.175 310.954C468.629 311.124 468.954 311.386 469.151 311.741C469.332 312.137 469.338 312.563 469.169 313.016L467.069 318.647C466.9 319.101 466.625 319.398 466.244 319.537C465.847 319.718 465.422 319.724 464.968 319.555L449.004 313.602L442.198 331.856L458.162 337.809C458.616 337.978 458.941 338.24 459.137 338.595C459.318 338.992 459.324 339.417 459.155 339.87L457.078 345.439C456.909 345.893 456.626 346.21 456.23 346.392C455.833 346.573 455.408 346.579 454.955 346.409L414.673 331.389C414.22 331.22 413.902 330.937 413.721 330.54C413.581 330.159 413.596 329.742 413.765 329.288L415.842 323.719C415.996 323.307 416.271 323.01 416.667 322.829C417.064 322.648 417.468 322.634 417.881 322.788L434.463 328.972L441.27 310.718L424.687 304.535C424.275 304.381 423.978 304.106 423.797 303.709C423.6 303.354 423.587 302.95 423.756 302.496L425.855 296.865Z" fill="white"/>
  <path d="M404.914 344.78C405.172 344.424 405.516 344.211 405.946 344.142C406.377 344.073 406.77 344.168 407.127 344.426L441.951 369.634C442.343 369.918 442.587 370.258 442.682 370.652C442.75 371.083 442.643 371.494 442.359 371.886L425.321 395.423C425.037 395.816 424.68 396.046 424.25 396.115C423.819 396.184 423.408 396.077 423.016 395.793L419.485 393.237C419.093 392.953 418.862 392.596 418.793 392.165C418.76 391.761 418.885 391.363 419.169 390.97L431.909 373.371L422.441 366.517L410.553 382.94C410.269 383.332 409.912 383.562 409.481 383.631C409.087 383.726 408.693 383.631 408.301 383.348L404.984 380.947C404.592 380.663 404.361 380.306 404.293 379.875C404.259 379.471 404.385 379.072 404.669 378.68L416.556 362.258L406.767 355.171L393.718 373.199C393.434 373.591 393.077 373.821 392.646 373.89C392.216 373.959 391.805 373.852 391.412 373.568L387.882 371.012C387.489 370.728 387.259 370.371 387.19 369.941C387.157 369.536 387.282 369.138 387.566 368.745L404.914 344.78Z" fill="white"/>
  <path d="M375.248 380.568C375.569 380.269 375.947 380.127 376.382 380.142C376.816 380.158 377.183 380.326 377.483 380.647L406.761 412.079C407.091 412.432 407.233 412.81 407.187 413.213C407.172 413.647 407.003 414.014 406.682 414.313L402.15 418.535C401.797 418.864 401.419 419.006 401.017 418.961C400.612 418.977 400.245 418.809 399.916 418.455L370.637 387.024C370.338 386.703 370.196 386.325 370.211 385.89C370.195 385.486 370.363 385.119 370.717 384.789L375.248 380.568Z" fill="white"/>
  <path d="M356.521 397.329C356.899 397.104 357.3 397.045 357.722 397.152C358.145 397.259 358.469 397.502 358.694 397.88L380.687 434.819C380.935 435.235 381.024 435.643 380.955 436.043C380.848 436.466 380.586 436.801 380.17 437.048L366.325 445.292C355.204 451.914 346.467 450.147 340.114 439.993C338.732 437.844 337.815 436.392 337.365 435.635C336.937 434.916 336.108 433.438 334.877 431.199C331.875 425.813 330.962 421.053 332.139 416.919C333.338 412.823 336.756 409.098 342.393 405.742L356.521 397.329ZM346.561 412.098C343.384 413.99 341.512 416.052 340.946 418.285C340.402 420.556 341.061 423.341 342.922 426.639C344.198 428.954 345.005 430.395 345.342 430.962C345.703 431.567 346.574 432.944 347.956 435.093C349.879 438.15 352.036 439.966 354.427 440.54C356.781 441.137 359.546 440.49 362.724 438.598L369.76 434.408L353.881 407.74L346.561 412.098Z" fill="white"/>
  <path d="M225.584 435.353C225.73 435.298 225.881 435.256 226.035 435.228C227.889 434.85 229.808 434.935 231.62 435.477C234.193 436.22 236.563 437.532 238.552 439.315C239.759 440.37 240.812 441.586 241.683 442.928C241.896 443.245 242.134 443.55 242.572 443.469C242.783 443.452 242.984 443.371 243.149 443.238C243.313 443.104 243.433 442.925 243.493 442.723C243.537 442.611 243.568 442.493 243.624 442.381C245.321 438.711 247.788 435.539 250.374 432.498C250.857 431.925 251.395 431.944 251.959 432.498C252.698 433.188 253.443 433.872 254.157 434.587C256.483 436.771 258.499 439.259 260.149 441.983C260.206 442.137 260.303 442.273 260.432 442.376C260.56 442.479 260.715 442.545 260.878 442.568C261.042 442.59 261.209 442.568 261.36 442.503C261.512 442.438 261.643 442.334 261.74 442.2C263.245 440.631 264.854 439.162 266.555 437.803C268.292 436.361 270.317 435.301 272.497 434.693C273.969 434.289 275.526 434.308 276.987 434.749C277.204 434.791 277.403 434.9 277.553 435.061C277.704 435.222 277.8 435.427 277.826 435.645C277.87 436.111 277.551 436.397 277.2 436.646C275.734 437.699 274.529 439.069 273.675 440.652C272.335 443.084 271.959 445.758 271.852 448.476C271.727 451.449 271.852 454.429 271.783 457.395C271.736 459.699 271.556 461.998 271.245 464.281C271.017 465.736 270.682 467.172 270.243 468.579C269.52 471.186 268.269 473.62 266.567 475.731C264.443 478.298 261.582 480.159 258.364 481.068C256.653 481.563 254.894 481.884 253.117 482.026L250.243 482.075C250.088 482.046 249.931 482.025 249.773 482.013C247.956 481.982 246.151 481.71 244.407 481.205C242.277 480.647 240.258 479.736 238.433 478.511C236.563 477.277 235.017 475.615 233.925 473.666C232.934 471.71 232.195 469.637 231.727 467.496C230.759 463.267 230.338 458.932 230.474 454.596C230.562 451.917 230.506 449.234 230.305 446.561C230.121 443.664 229.073 440.888 227.293 438.587C226.688 437.867 226.028 437.193 225.321 436.572C225.203 436.501 225.11 436.395 225.055 436.269C225 436.143 224.986 436.003 225.015 435.869C225.044 435.735 225.114 435.613 225.216 435.52C225.318 435.428 225.447 435.369 225.584 435.353V435.353Z" fill="white"/>
</svg>
