<svg width="268" height="265" viewBox="0 0 268 265" fill="none" xmlns="http://www.w3.org/2000/svg">
  <rect width="268" height="265" rx="20" fill="white"/>
  <path d="M175.898 200.985C174.928 207.332 170.066 207.332 165.364 207.332H162.688L164.565 195.482C164.678 194.765 165.298 194.238 166.025 194.238H167.251C170.453 194.238 173.476 194.238 175.035 196.056C175.968 197.144 176.25 198.757 175.898 200.985V200.985ZM173.851 184.425H156.116C154.903 184.425 153.871 185.305 153.682 186.499L146.511 231.839C146.369 232.733 147.063 233.542 147.97 233.542H157.07C157.919 233.542 158.642 232.926 158.774 232.091L160.808 219.237C160.996 218.043 162.029 217.163 163.241 217.163H168.854C180.535 217.163 187.277 211.527 189.039 200.355C189.832 195.469 189.071 191.63 186.777 188.942C184.254 185.988 179.784 184.425 173.851 184.425" fill="#459ADB"/>
  <path d="M49.4056 200.985C48.4362 207.332 43.5743 207.332 38.8718 207.332H36.1962L38.0731 195.482C38.1863 194.765 38.8059 194.238 39.5332 194.238H40.7596C43.9607 194.238 46.9845 194.238 48.5431 196.056C49.4757 197.144 49.758 198.757 49.4056 200.985V200.985ZM47.3591 184.425H29.6238C28.4111 184.425 27.3787 185.305 27.1898 186.499L20.0184 231.839C19.8768 232.733 20.5703 233.542 21.4788 233.542H29.9465C31.1591 233.542 32.1915 232.663 32.3804 231.468L34.3159 219.237C34.5044 218.043 35.5368 217.163 36.7494 217.163H42.3616C54.043 217.163 60.7851 211.527 62.5471 200.355C63.3403 195.469 62.5789 191.63 60.2847 188.942C57.7622 185.988 53.2922 184.425 47.3591 184.425Z" fill="#253B7D"/>
  <path d="M88.5313 217.262C87.711 222.1 83.8592 225.348 78.9459 225.348C76.4831 225.348 74.5113 224.558 73.2436 223.062C71.9872 221.579 71.5145 219.467 71.9129 217.115C72.6776 212.32 76.5912 208.968 81.4298 208.968C83.8411 208.968 85.7994 209.765 87.0915 211.275C88.3926 212.795 88.9036 214.922 88.5313 217.262V217.262ZM100.366 200.782H91.8744C91.1464 200.782 90.5269 201.31 90.4139 202.027L90.0403 204.394L89.4465 203.536C87.6074 200.874 83.5087 199.985 79.4158 199.985C70.0341 199.985 62.0193 207.074 60.4594 217.016C59.6475 221.976 60.8002 226.715 63.6207 230.024C66.2123 233.063 69.9106 234.329 74.3166 234.329C81.8787 234.329 86.0733 229.485 86.0733 229.485L85.6941 231.838C85.5519 232.733 86.2455 233.543 87.1543 233.543H94.8019C96.0142 233.543 97.0466 232.664 97.2355 231.47L101.827 202.485C101.968 201.591 101.275 200.782 100.366 200.782Z" fill="#253B7D"/>
  <path d="M215.022 217.262C214.203 222.1 210.35 225.348 205.438 225.348C202.974 225.348 201.003 224.558 199.735 223.062C198.479 221.579 198.006 219.467 198.404 217.115C199.169 212.32 203.083 208.968 207.922 208.968C210.333 208.968 212.291 209.765 213.583 211.275C214.884 212.795 215.395 214.922 215.022 217.262V217.262ZM226.858 200.782H218.366C217.638 200.782 217.019 201.31 216.906 202.027L216.532 204.394L215.939 203.536C214.099 200.874 210 199.985 205.907 199.985C196.525 199.985 188.511 207.074 186.95 217.016C186.139 221.976 187.292 226.715 190.112 230.024C192.703 233.063 196.402 234.329 200.808 234.329C208.37 234.329 212.565 229.485 212.565 229.485L212.185 231.838C212.043 232.733 212.737 233.543 213.646 233.543H221.294C222.506 233.543 223.538 232.664 223.727 231.47L228.318 202.485C228.46 201.591 227.766 200.782 226.858 200.782" fill="#459ADB"/>
  <path d="M145.596 200.782H137.06C136.244 200.782 135.48 201.186 135.022 201.859L123.247 219.148L118.257 202.534C117.945 201.495 116.985 200.782 115.897 200.782H107.506C106.493 200.782 105.78 201.776 106.106 202.732L115.506 230.237L106.665 242.674C105.971 243.65 106.671 245 107.871 245H116.399C117.207 245 117.964 244.605 118.424 243.943L146.811 203.096C147.49 202.118 146.789 200.782 145.596 200.782Z" fill="#253B7D"/>
  <path d="M236.868 185.671L229.59 231.84C229.449 232.734 230.142 233.542 231.05 233.542H238.37C239.583 233.542 240.615 232.663 240.804 231.468L247.981 186.13C248.123 185.235 247.429 184.425 246.521 184.425H238.329C237.601 184.425 236.981 184.954 236.868 185.671Z" fill="#459ADB"/>
  <path d="M189.295 57.2736C191.09 45.8612 189.283 38.0957 183.091 31.0621C176.275 23.318 163.961 20.0004 148.205 20.0004H102.471C99.2511 20.0004 96.5095 22.3365 96.0078 25.5079L76.9639 145.908C76.588 148.283 78.4297 150.431 80.8418 150.431H109.075L107.127 162.752C106.798 164.83 108.409 166.709 110.52 166.709H134.318C137.134 166.709 139.533 164.666 139.972 161.892L140.205 160.686L144.688 132.342L144.977 130.776C145.416 128.002 147.814 125.958 150.631 125.958H154.191C177.246 125.958 195.298 116.619 200.574 89.6118C202.777 78.3267 201.638 68.9061 195.809 62.2841C194.046 60.2807 191.853 58.6248 189.295 57.2736" fill="#459ADB"/>
  <path d="M189.295 57.2733C191.09 45.8609 189.283 38.0954 183.091 31.0618C176.275 23.3177 163.961 20.0001 148.205 20.0001H102.471C99.2511 20.0001 96.5095 22.3362 96.0078 25.5076L76.9639 145.907C76.588 148.283 78.4297 150.431 80.8418 150.431H109.075L116.168 105.593L115.948 106.998C116.45 103.827 119.169 101.491 122.388 101.491H135.807C162.161 101.491 182.797 90.8165 188.827 59.9436C189.006 59.0294 189.158 58.144 189.295 57.2733" fill="#232D62"/>
  <path d="M123.787 57.4244C124.089 55.5171 125.316 53.9557 126.97 53.1655C127.721 52.8065 128.56 52.6069 129.441 52.6069H165.29C169.537 52.6069 173.497 52.8837 177.118 53.4653C178.152 53.632 179.159 53.8226 180.137 54.0386C181.115 54.2555 182.064 54.497 182.983 54.7656C183.443 54.8986 183.895 55.0391 184.34 55.1861C186.117 55.7751 187.772 56.4691 189.295 57.2733C191.09 45.8609 189.283 38.0954 183.091 31.0618C176.275 23.3177 163.961 20.0001 148.205 20.0001H102.471C99.2511 20.0001 96.5095 22.3362 96.0078 25.5076L76.9639 145.907C76.588 148.283 78.4297 150.431 80.8418 150.431H109.075L116.168 105.593L123.787 57.4244Z" fill="#253B7D"/>
</svg>
