<svg width="1000" height="1000" viewBox="0 0 1000 1000" fill="none" xmlns="http://www.w3.org/2000/svg">
<path d="M500 980C765.096 980 980 765.096 980 500C980 234.904 765.096 20 500 20C234.904 20 20 234.904 20 500C20 765.096 234.904 980 500 980Z" fill="#3182CE"/>
<path d="M783.399 453.395C746.058 426.759 707.196 406.3 707.196 406.3C705.503 407.594 703.664 408.685 701.717 409.552L715.212 427.719C715.212 427.719 743.07 457.434 758.113 469.842C773.156 482.249 762.967 505.117 758.204 512.77C753.44 520.423 750.515 535.466 749.391 563.432C748.658 582.044 746.521 598.201 762.786 622.119C779.39 585.092 787.946 544.963 787.891 504.383C787.881 487.287 786.366 470.225 783.363 453.395H783.399ZM390.985 663.617C388.458 658.545 365.862 611.324 362.656 607.303C361.379 605.709 357.802 602.095 353.971 598.337C353.373 603.553 352.06 608.543 349.443 612.311C342.08 622.88 335.215 621.422 331.203 627.155C329.229 629.971 308.281 664.35 287.468 698.602C325.381 740.133 374.636 769.639 429.141 783.472C431.024 776.507 437.88 747.716 428.625 724.848C418.028 698.639 393.512 668.634 390.985 663.58V663.617ZM341.02 323.659C351.634 324.275 399.399 311.215 414.478 315.698C429.557 320.181 486.116 364.531 490.635 372.755C495.155 380.978 500.67 417.368 500.226 424.812C500.193 425.387 500.102 425.958 499.955 426.515C499.92 426.638 499.878 426.759 499.828 426.877C500.054 427.955 500.244 428.996 500.398 429.992C500.543 428.996 500.733 427.955 500.96 426.877C500.914 426.759 500.878 426.642 500.833 426.515C500.69 425.957 500.599 425.387 500.561 424.812C500.118 417.368 505.624 380.942 510.152 372.755C514.68 364.568 571.257 320.226 586.318 315.698C601.379 311.17 649.144 324.275 659.767 323.659C670.391 323.043 713.971 335.641 713.971 335.641C713.971 335.641 723.825 337.679 736.694 340.441C684.7 265.534 598.083 216.528 500 216.528C401.917 216.528 315.154 265.624 263.188 340.604C276.501 337.733 286.825 335.605 286.825 335.605C286.825 335.605 330.397 323.007 341.02 323.623V323.659ZM293.582 406.328C293.582 406.328 254.104 427.094 216.483 454.038C213.553 470.663 212.081 487.511 212.081 504.392C212.028 545.229 220.691 585.606 237.494 622.826C254.276 598.518 252.102 582.225 251.36 563.432C250.255 535.466 247.33 520.423 242.548 512.77C237.766 505.117 227.577 482.231 242.638 469.842C257.699 457.452 285.566 427.746 285.566 427.746L299.061 409.579C297.114 408.712 295.275 407.621 293.582 406.328ZM651.318 612.311C648.709 608.543 647.396 603.562 646.789 598.337C642.958 602.095 639.39 605.709 638.104 607.303C634.898 611.315 612.302 658.545 609.775 663.617C607.248 668.688 582.741 698.684 572.154 724.894C562.988 747.535 569.636 776.063 571.601 783.336C626.046 769.342 675.202 739.713 713.002 698.104C692.299 664.024 671.541 629.971 669.576 627.164C665.582 621.422 658.708 622.88 651.345 612.302L651.318 612.311Z" fill="white"/>
<path d="M596.905 601.09C599.187 599.713 624.763 573.431 626.113 572.109C627.462 570.786 645.421 548.398 651.806 541.688C658.191 534.977 660.537 541.153 660.383 541.515C664.612 531.87 669.059 522.497 672.401 516.157C681.231 499.429 675.48 478.119 675.48 478.119C666.84 471.2 665.282 452.199 665.282 452.199C659.785 448.26 647.513 433.977 647.513 433.977C604.485 406.137 612.283 395.333 612.283 395.333C603.888 397.389 599.015 395.686 599.015 395.686C599.405 397.497 588.274 401.944 566.729 405.467C545.183 408.99 544.929 401.7 544.929 401.7C545.282 404.851 540.057 406.744 540.057 406.744C542.43 416.226 533.618 429.775 531 433.253C528.383 436.731 534.089 449.22 529.316 461.935C524.543 474.651 510.451 470.992 506.909 469.488C503.903 468.229 501.095 454.201 500.063 444.528C499.021 454.201 496.223 468.229 493.207 469.488C489.666 470.974 475.583 474.651 470.801 461.935C466.019 449.22 471.706 436.731 469.116 433.253C466.526 429.775 457.687 416.226 460.06 406.744C460.06 406.744 454.834 404.851 455.187 401.7C455.187 401.7 454.943 408.945 433.388 405.467C411.834 401.989 400.712 397.515 401.101 395.686C401.101 395.686 396.229 397.389 387.833 395.333C387.833 395.333 395.631 406.137 352.603 433.977C352.603 433.977 340.322 448.26 334.834 452.199C334.834 452.199 333.286 471.218 324.636 478.119C324.636 478.119 318.895 499.42 327.716 516.157C331.067 522.497 335.504 531.897 339.743 541.515C339.58 541.162 341.934 534.977 348.31 541.688C354.686 548.398 372.636 570.832 374.004 572.109C375.371 573.386 400.929 599.659 403.211 601.09C405.494 602.521 428.67 625.117 430.671 625.706C432.673 626.294 486.822 660.447 496.467 699.209C498.949 709.171 499.954 720.519 500.09 731.813C500.208 720.474 501.195 709.171 503.713 699.209C513.376 660.447 567.508 626.294 569.5 625.706C571.492 625.117 594.623 602.466 596.905 601.09ZM567.154 571.864C567.154 571.864 568.685 569.763 565.478 566.14C563.033 563.423 563.758 558.596 564.247 556.468C563.948 556.894 563.667 557.319 563.341 557.745C561.221 560.87 559.321 564.138 557.654 567.526C559.499 567.91 561.224 568.734 562.682 569.928C564.141 571.121 565.29 572.649 566.031 574.382C568.748 580.604 560.507 585.15 560.507 585.15C560.507 585.15 561.621 578.222 558.333 575.016C557.634 574.332 557.113 573.488 556.816 572.556C556.519 571.625 556.455 570.634 556.63 569.672C555.068 573.104 553.854 576.685 553.008 580.359C553.008 580.359 557.69 583.982 556.286 587.704C554.882 591.426 545.11 597.34 544.757 599.65C544.757 599.65 541.895 586.826 547.411 582.877C550.128 580.939 551.514 580.296 552.238 580.16C552.993 576.897 554.039 573.709 555.362 570.632C554.846 571.384 554.161 572.005 553.363 572.446C552.564 572.886 551.673 573.133 550.762 573.168C546.179 573.404 542.42 579.327 542.42 579.327C542.42 579.327 539.251 570.46 545.418 567.608C547.16 566.779 549.081 566.395 551.008 566.492C552.935 566.588 554.807 567.161 556.458 568.16C558.239 564.419 560.298 560.816 562.617 557.383C561.24 558.696 557.183 562.21 553.261 561.386C548.516 560.371 547.447 562.753 547.447 562.753C547.447 562.753 548.217 553.887 554.158 553.171C555.822 552.951 557.515 553.17 559.068 553.805C560.622 554.441 561.982 555.471 563.015 556.794C565.223 553.568 567.602 550.463 570.143 547.493C569.072 547.23 567.953 547.23 566.883 547.493C565.153 548.136 563.26 553.832 552.609 550.961C552.609 550.961 540.836 561.974 534.732 577.461C528.627 592.948 515.631 608.081 496.648 591.526C496.648 591.526 485.944 594.614 489.747 610.246C493.551 625.878 487.583 633.358 484.666 626.675C484.666 626.675 478.327 639.943 473.626 624.981C473.626 624.981 464.905 635.097 463.864 620.118C463.864 620.118 453.095 625.081 456.501 613.334C456.501 613.334 444.03 614.801 452.434 603.472C452.434 603.472 441.132 597.639 450.75 591.617C460.368 585.594 465.095 592.776 480.745 578.838C496.395 564.9 494.765 564.954 494.765 564.954C494.765 564.954 487.628 565.615 491.142 561.195C491.142 561.195 468.192 571.484 474.441 548.824C474.441 548.824 449.88 542.321 462.587 530.765C462.587 530.765 437.482 517.742 453.186 511.855C453.186 511.855 437.626 498.397 447.833 498.107C447.833 498.107 438.007 484.839 446.846 483.761C446.846 483.761 441.983 466.78 445.877 469.126C449.772 471.472 453.666 490.645 477.204 499.855C500.742 509.066 504.048 514.092 507.861 525.875C509.355 530.475 510.577 535.438 513.077 538.88C516.111 535.991 515.242 534.17 515.242 534.17C505.977 511.9 516.446 517.57 516.446 517.57C515.26 515.903 514.191 511.565 514.191 511.565C510.46 494.539 522.007 505.135 522.007 505.135C518.701 482.231 528.981 489.838 528.981 489.838C527.088 469.208 538.037 481.543 538.037 481.543C540.238 460.939 558.206 457.678 558.206 457.678C545.862 465.703 543.779 487.321 543.833 508.694C543.888 530.068 533.871 539.333 533.871 539.333C533.536 539.704 533.21 540.057 532.875 540.383C535.312 539.302 537.692 538.092 540.002 536.761C566.33 521.736 569.264 531.97 570.279 539.758C570.53 541.889 570.89 544.004 571.356 546.098C574.476 542.492 577.828 539.095 581.391 535.927L581.907 536.525C578.245 539.784 574.804 543.285 571.61 547.004C571.891 547.909 572.054 548.018 572.054 548.018C572.054 548.018 571.619 547.873 570.994 547.719C568.857 550.201 566.837 552.782 564.935 555.435C566.541 555.723 568.048 556.413 569.315 557.441C570.582 558.469 571.568 559.801 572.181 561.313C574.472 566.829 567.136 571.864 567.136 571.864H567.154Z" fill="white"/>
<path d="M399.62 821.043C400.921 821.559 401.825 822.32 402.33 823.323C402.835 824.327 402.933 825.471 402.625 826.754L385.001 916.31L384.718 917.403C384.408 918.183 383.89 918.731 383.163 919.045C382.349 919.324 381.595 919.326 380.901 919.051L369.45 914.505C367.281 913.644 366.411 912.295 366.84 910.457L379.437 847.224L352.592 880.701C350.864 882.526 349.002 883.042 347.007 882.25L339.98 879.461C337.812 878.6 336.854 876.964 337.108 874.555L340.348 831.858L306.202 886.387C305.65 887.273 305.044 887.785 304.386 887.926C303.607 888.119 302.653 887.991 301.525 887.543L290.075 882.998C289.381 882.723 288.877 882.221 288.563 881.494C288.249 880.767 288.247 880.013 288.557 879.233C288.729 878.799 288.91 878.469 289.1 878.243L337.693 800.98C339.16 798.55 341.195 797.851 343.797 798.885L352.515 802.345C353.73 802.827 354.607 803.527 355.147 804.444C355.686 805.361 355.897 806.348 355.778 807.406L353.101 856.652L384.926 818.976C386.654 817.151 388.646 816.687 390.902 817.582L399.62 821.043Z" fill="white"/>
<path d="M317.934 782.688C318.677 783.252 319.112 783.991 319.239 784.906C319.365 785.822 319.146 786.651 318.583 787.395L263.543 860.039C262.923 860.857 262.192 861.358 261.351 861.54C260.436 861.667 259.569 861.42 258.751 860.8L209.652 823.599C208.834 822.979 208.362 822.212 208.235 821.296C208.109 820.381 208.356 819.514 208.976 818.696L214.556 811.331C215.176 810.513 215.944 810.04 216.859 809.914C217.718 809.862 218.557 810.147 219.375 810.767L256.088 838.582L271.052 818.831L236.795 792.876C235.976 792.256 235.504 791.488 235.378 790.573C235.195 789.732 235.414 788.902 236.034 788.084L241.276 781.165C241.896 780.347 242.664 779.875 243.579 779.749C244.438 779.697 245.277 779.981 246.095 780.601L280.352 806.557L295.824 786.136L258.219 757.644C257.401 757.024 256.929 756.256 256.802 755.341C256.676 754.426 256.923 753.559 257.543 752.74L263.123 745.376C263.743 744.557 264.511 744.085 265.426 743.959C266.285 743.907 267.124 744.191 267.942 744.811L317.934 782.688Z" fill="white"/>
<path d="M256.07 731.833C256.658 732.552 256.906 733.369 256.815 734.283C256.724 735.198 256.318 735.949 255.6 736.537L185.422 793.956C184.631 794.602 183.808 794.916 182.952 794.896C182.038 794.805 181.257 794.364 180.61 793.573L141.802 746.141C141.155 745.351 140.878 744.498 140.969 743.584C141.061 742.669 141.502 741.888 142.292 741.241L149.407 735.42C150.198 734.773 151.05 734.496 151.965 734.587C152.808 734.737 153.552 735.208 154.199 735.998L183.217 771.465L202.298 755.853L175.22 722.759C174.573 721.968 174.296 721.115 174.387 720.201C174.407 719.345 174.812 718.594 175.602 717.947L182.286 712.478C183.077 711.832 183.929 711.554 184.844 711.645C185.687 711.796 186.431 712.266 187.078 713.057L214.156 746.151L233.883 730.011L204.16 693.682C203.513 692.891 203.235 692.039 203.327 691.124C203.418 690.21 203.859 689.429 204.65 688.782L211.764 682.961C212.555 682.314 213.408 682.036 214.322 682.128C215.165 682.278 215.91 682.748 216.557 683.539L256.07 731.833Z" fill="white"/>
<path d="M195.836 639.766C199.408 647.242 201.344 654.21 201.644 660.669C201.945 667.129 200.909 672.628 198.538 677.165C196.166 681.703 192.879 685.08 188.675 687.294C187.919 687.656 187.168 687.705 186.424 687.441C185.679 687.178 185.126 686.669 184.765 685.913L179.407 674.699C178.925 673.691 178.774 672.834 178.953 672.13C179.008 671.381 179.335 670.554 179.935 669.649C182.389 667.444 183.86 664.369 184.347 660.421C184.835 656.474 183.834 651.897 181.346 646.689C178.496 640.725 175.383 636.692 172.006 634.591C168.546 632.531 165.051 632.343 161.523 634.029C159.171 635.152 157.621 636.873 156.871 639.192C156.081 641.426 155.883 644.358 156.276 647.988C156.629 651.534 157.452 656.712 158.746 663.522C161.129 674.558 161.493 683.309 159.836 689.775C158.055 696.198 153.553 701.134 146.329 704.586C141.457 706.914 136.509 707.678 131.485 706.88C126.421 705.998 121.613 703.601 117.061 699.689C112.469 695.692 108.587 690.376 105.417 683.74C102.126 676.852 100.494 670.306 100.522 664.102C100.55 657.898 101.79 652.611 104.242 648.241C106.57 643.828 109.5 640.674 113.031 638.78C113.787 638.419 114.538 638.37 115.283 638.633C116.027 638.896 116.58 639.406 116.942 640.162L122.54 651.88C123.383 653.644 123.167 655.243 121.892 656.678C119.445 658.466 118.022 661.21 117.622 664.908C117.139 668.647 117.9 672.617 119.907 676.817C122.154 681.521 124.802 684.795 127.85 686.641C130.899 688.486 134.103 688.606 137.463 687C139.815 685.877 141.426 684.282 142.296 682.215C143.166 680.149 143.506 677.407 143.318 673.989C143.089 670.487 142.384 665.665 141.204 659.523C139.352 651.328 138.433 644.545 138.446 639.174C138.419 633.718 139.499 629.178 141.688 625.553C143.877 621.928 147.449 618.932 152.405 616.564C157.781 613.995 163.207 613.26 168.684 614.357C174.037 615.411 179.068 618.166 183.776 622.623C188.445 626.996 192.465 632.71 195.836 639.766Z" fill="white"/>
<path d="M167.608 556.9C167.683 557.834 167.42 558.653 166.819 559.359C166.218 560.064 165.451 560.454 164.517 560.529L73.3772 567.82C72.3505 567.902 71.4881 567.69 70.79 567.182C70.0844 566.581 69.6905 565.767 69.6084 564.74L66.8756 530.58C64.6804 503.14 76.2537 488.125 101.596 485.534C106.994 484.914 110.626 484.53 112.493 484.38C114.266 484.238 117.867 484.044 123.296 483.798C136.392 483.126 146.332 485.853 153.116 491.98C159.806 498.113 163.707 508.134 164.82 522.04L167.608 556.9ZM148.776 524.028C148.148 516.188 145.97 510.68 142.24 507.503C138.417 504.333 132.485 502.976 124.444 503.432C118.829 503.693 115.321 503.88 113.921 503.992C112.428 504.111 108.982 504.481 103.584 505.1C95.9452 505.899 90.4553 508.311 87.114 512.336C83.7652 516.267 82.4044 522.152 83.0316 529.992L84.4204 547.352L150.22 542.088L148.776 524.028Z" fill="white"/>
<path d="M165.629 467.303C165.47 468.227 165.012 468.956 164.254 469.492C163.496 470.028 162.655 470.216 161.731 470.058L71.5027 454.564C70.4863 454.389 69.7023 453.969 69.1507 453.304C68.615 452.546 68.4344 451.659 68.6089 450.643L79.0809 389.659C79.2555 388.642 79.7217 387.866 80.4795 387.33C81.2374 386.795 82.1245 386.614 83.1409 386.789L92.2885 388.359C93.3049 388.534 94.081 389 94.6167 389.758C95.0601 390.5 95.1945 391.379 95.0199 392.396L87.1897 437.995L111.722 442.208L119.029 399.657C119.203 398.641 119.669 397.865 120.427 397.329C121.093 396.778 121.934 396.589 122.95 396.764L131.543 398.239C132.56 398.414 133.336 398.88 133.871 399.638C134.315 400.38 134.449 401.259 134.275 402.275L126.968 444.826L152.332 449.181L160.352 402.473C160.527 401.456 160.993 400.68 161.751 400.145C162.509 399.609 163.396 399.428 164.412 399.603L173.56 401.174C174.576 401.348 175.352 401.814 175.888 402.572C176.331 403.314 176.466 404.193 176.291 405.21L165.629 467.303Z" fill="white"/>
<path d="M212.303 329.344C208.15 336.57 203.483 342.152 198.304 346.089C193.125 350.026 187.979 352.307 182.867 352.934C177.754 353.56 173.08 352.764 168.846 350.547C168.115 350.127 167.646 349.533 167.439 348.766C167.231 347.999 167.338 347.25 167.758 346.519L173.988 335.679C174.548 334.704 175.171 334.09 175.857 333.836C176.508 333.455 177.38 333.253 178.472 333.233C181.699 334.008 185.087 333.47 188.635 331.62C192.182 329.77 195.403 326.328 198.296 321.294C201.609 315.528 203.172 310.648 202.985 306.651C202.716 302.608 200.876 299.606 197.466 297.646C195.192 296.34 192.881 296.038 190.533 296.74C188.231 297.362 185.689 298.872 182.907 301.269C180.172 303.586 176.352 307.224 171.45 312.184C163.669 320.459 156.628 325.756 150.326 328.075C143.99 330.267 137.33 329.356 130.347 325.342C125.637 322.636 122.179 318.974 119.972 314.357C117.811 309.658 117.052 304.307 117.694 298.303C118.383 292.218 120.57 285.967 124.257 279.553C128.084 272.894 132.574 267.806 137.729 264.287C142.884 260.768 147.971 258.777 152.991 258.313C157.975 257.722 162.26 258.348 165.845 260.192C166.576 260.612 167.045 261.206 167.252 261.973C167.46 262.74 167.353 263.489 166.933 264.22L160.423 275.547C159.443 277.252 157.995 277.987 156.079 277.749C153.201 276.743 150.115 277.131 146.824 278.911C143.45 280.646 140.597 283.543 138.264 287.603C135.651 292.15 134.45 296.213 134.662 299.791C134.874 303.369 136.604 306.092 139.852 307.959C142.125 309.265 144.366 309.689 146.574 309.23C148.783 308.771 151.248 307.487 153.972 305.38C156.742 303.191 160.334 299.855 164.748 295.37C170.478 289.158 175.572 284.524 180.029 281.468C184.532 278.331 188.91 276.634 193.162 276.377C197.414 276.121 201.936 277.369 206.727 280.122C211.924 283.109 215.631 287.184 217.848 292.347C220.031 297.383 220.621 303.123 219.618 309.567C218.661 315.931 216.223 322.523 212.303 329.344Z" fill="white"/>
<path d="M255.591 270.53C254.947 271.206 254.163 271.554 253.239 271.576C252.316 271.598 251.516 271.287 250.841 270.643L194.813 217.213L176.938 235.957C176.294 236.632 175.51 236.981 174.587 237.003C173.663 237.025 172.863 236.714 172.188 236.07L164.691 228.92C163.948 228.212 163.533 227.429 163.447 226.573C163.425 225.649 163.768 224.816 164.477 224.073L213.751 172.402C214.46 171.659 215.276 171.276 216.2 171.254C217.123 171.232 217.957 171.576 218.7 172.284L226.197 179.434C226.873 180.078 227.221 180.862 227.243 181.785C227.265 182.709 226.922 183.543 226.213 184.285L208.436 202.928L264.464 256.357C265.139 257.001 265.488 257.785 265.51 258.709C265.532 259.633 265.189 260.466 264.48 261.209L255.591 270.53Z" fill="white"/>
<path d="M297.081 232.222C296.297 232.726 295.454 232.88 294.552 232.684C293.651 232.488 292.948 231.998 292.444 231.214L243.228 154.656C242.674 153.794 242.455 152.937 242.573 152.086C242.769 151.184 243.298 150.456 244.161 149.902L295.905 116.638C296.767 116.083 297.649 115.904 298.551 116.1C299.452 116.296 300.18 116.825 300.735 117.688L305.724 125.449C306.279 126.312 306.458 127.194 306.262 128.095C306.015 128.918 305.461 129.607 304.599 130.162L265.908 155.034L279.289 175.849L315.393 152.64C316.255 152.086 317.137 151.907 318.039 152.102C318.89 152.22 319.593 152.71 320.147 153.573L324.834 160.864C325.389 161.726 325.568 162.608 325.372 163.51C325.125 164.333 324.571 165.022 323.709 165.576L287.605 188.785L301.44 210.306L341.071 184.829C341.934 184.275 342.816 184.095 343.717 184.291C344.619 184.487 345.347 185.017 345.901 185.879L350.891 193.641C351.445 194.503 351.625 195.385 351.429 196.287C351.182 197.11 350.628 197.799 349.765 198.353L297.081 232.222Z" fill="white"/>
<path d="M364.097 190.52C363.122 190.828 362.24 190.814 361.451 190.478C360.634 190.053 360.072 189.353 359.764 188.378L332.422 101.795C332.114 100.82 332.172 99.9235 332.597 99.1069C333.022 98.2902 333.722 97.7279 334.697 97.4199L345.204 94.1019C347.066 93.5139 348.662 93.9362 349.992 95.3689L390.781 135.143L401.596 79.0729C401.951 77.1082 403.015 75.8459 404.788 75.2859L415.162 72.0099C416.137 71.7019 417.033 71.7602 417.85 72.1849C418.667 72.6095 419.229 73.3095 419.537 74.2849L446.879 160.868C447.187 161.843 447.129 162.739 446.704 163.556C446.251 164.284 445.537 164.802 444.562 165.11L433.39 168.638C432.503 168.918 431.652 168.846 430.835 168.421C430.018 167.996 429.47 167.341 429.19 166.454L411.004 108.865L403.598 150.256C403.061 152.571 401.862 154.022 400 154.61L394.547 156.332C392.685 156.92 390.87 156.421 389.101 154.834L359.267 125.203L377.453 182.792C377.733 183.679 377.661 184.53 377.236 185.347C376.9 186.136 376.244 186.684 375.269 186.992L364.097 190.52Z" fill="white"/>
<path d="M524.512 165.46C521.814 165.238 520.154 163.791 519.531 161.117L497.036 69.0846L496.86 67.8059C496.929 66.9687 497.266 66.294 497.87 65.7818C498.474 65.2695 499.194 65.0478 500.031 65.1167L512.31 66.1261C513.519 66.2256 514.423 66.6276 515.02 67.3323C515.719 67.9516 516.173 68.6913 516.383 69.5514L534.056 143.348L563.544 73.4287C563.791 72.6999 564.314 72.0405 565.111 71.4505C565.909 70.8605 566.912 70.6153 568.122 70.7147L580.4 71.7242C581.144 71.7854 581.773 72.1179 582.285 72.722C582.89 73.3336 583.158 74.058 583.089 74.8952L582.707 76.128L545.483 163.251C544.432 165.787 542.558 166.944 539.86 166.722L524.512 165.46Z" fill="white"/>
<path d="M616.021 187.006C604.089 182.69 595.884 176.299 591.406 167.834C586.928 159.369 586.671 149.107 590.636 137.048C591.469 134.472 592.774 130.728 594.551 125.814C596.359 120.814 597.768 117.057 598.776 114.544C603.347 103.003 610.181 95.3551 619.277 91.6012C628.374 87.8474 638.712 88.0648 650.293 92.2536C661.874 96.4424 669.959 102.889 674.549 111.593C679.227 120.329 679.631 130.595 675.762 142.39C674.097 147.542 672.82 151.347 671.931 153.803C671.075 156.172 669.638 159.869 667.622 164.894C662.868 176.667 656.062 184.375 647.205 188.016C638.347 191.658 627.953 191.321 616.021 187.006ZM621.495 171.872C627.373 173.998 632.702 173.941 637.48 171.701C642.291 169.373 646.144 164.616 649.041 157.429C651.121 152.229 652.494 148.707 653.16 146.865C653.89 144.847 655.088 141.262 656.753 136.11C659.123 128.733 659.189 122.655 656.949 117.876C654.74 113.01 650.697 109.514 644.819 107.388C639.029 105.293 633.728 105.41 628.918 107.738C624.139 109.978 620.301 114.691 617.404 121.878C616.396 124.39 615.067 127.928 613.417 132.49C611.799 136.964 610.557 140.533 609.693 143.197C607.322 150.574 607.197 156.68 609.318 161.514C611.558 166.293 615.617 169.746 621.495 171.872Z" fill="white"/>
<path d="M693.354 227.764C682.919 220.538 676.618 212.259 674.452 202.926C672.287 193.593 674.663 183.603 681.583 172.955C683.047 170.676 685.266 167.389 688.242 163.091C691.27 158.718 693.594 155.445 695.211 153.273C702.585 143.28 711.15 137.631 720.908 136.327C730.666 135.024 740.609 137.879 750.738 144.892C760.866 151.906 767.037 160.209 769.25 169.801C771.54 179.447 769.304 189.479 762.545 199.897C759.616 204.453 757.409 207.806 755.921 209.955C754.486 212.026 752.151 215.234 748.916 219.579C741.306 229.749 732.753 235.462 723.255 236.719C713.757 237.975 703.79 234.99 693.354 227.764ZM702.52 214.528C707.661 218.088 712.829 219.396 718.023 218.452C723.271 217.431 728.215 213.816 732.855 207.606C736.197 203.108 738.425 200.054 739.541 198.443C740.763 196.678 742.838 193.517 745.767 188.96C749.946 182.432 751.564 176.57 750.62 171.376C749.729 166.104 746.713 161.689 741.572 158.129C736.508 154.622 731.352 153.379 726.104 154.4C720.909 155.344 715.992 158.92 711.352 165.13C709.734 167.302 707.544 170.383 704.781 174.373C702.071 178.287 699.958 181.421 698.44 183.776C694.261 190.304 692.578 196.178 693.392 201.396C694.336 206.591 697.379 210.968 702.52 214.528Z" fill="white"/>
<path d="M736.302 260.564C735.695 259.855 735.428 259.039 735.5 258.118C735.572 257.197 735.962 256.433 736.672 255.826L805.938 196.585C806.718 195.918 807.539 195.585 808.399 195.586C809.32 195.658 810.115 196.084 810.782 196.864L834.351 224.422C841.752 233.076 845.524 241.579 845.667 249.931C845.871 258.354 842.248 265.751 834.8 272.121C829.622 276.55 824.168 279.004 818.437 279.484C812.838 279.974 807.347 278.652 801.965 275.517L788.119 314.257C787.875 314.834 787.576 315.274 787.221 315.577C786.583 316.123 785.839 316.33 784.988 316.197C784.199 316.136 783.561 315.821 783.076 315.254L774.795 305.571C773.824 304.436 773.314 303.337 773.265 302.274C773.276 301.282 773.53 300.143 774.028 298.858L787.506 263.566L774.857 248.776L749.321 270.616C748.611 271.223 747.796 271.49 746.875 271.418C746.014 271.417 745.25 271.027 744.583 270.246L736.302 260.564ZM799.711 253.495C803.351 257.751 807.038 260.124 810.774 260.614C814.57 261.175 818.276 259.909 821.894 256.815C825.511 253.721 827.373 250.225 827.478 246.327C827.645 242.501 825.908 238.459 822.268 234.203L809.437 219.201L786.88 238.493L799.711 253.495Z" fill="white"/>
<path d="M814.817 384C813.897 381.455 814.522 379.344 816.693 377.666L890.994 318.944L892.083 318.253C892.873 317.967 893.626 317.992 894.343 318.328C895.059 318.664 895.561 319.227 895.846 320.017L900.035 331.598C900.447 332.738 900.458 333.727 900.066 334.563C899.793 335.455 899.31 336.176 898.615 336.724L838.886 383.479L914.704 381.205C915.469 381.127 916.286 381.327 917.154 381.807C918.022 382.287 918.662 383.097 919.075 384.238L923.264 395.818C923.518 396.52 923.477 397.23 923.141 397.946C922.836 398.751 922.289 399.296 921.5 399.582L920.22 399.747L825.547 402.144C822.804 402.243 820.973 401.02 820.053 398.476L814.817 384Z" fill="white"/>
<path d="M831.651 442.167C831.569 441.237 831.826 440.418 832.419 439.711C833.013 439.003 833.775 438.608 834.705 438.526L925.496 430.567C926.519 430.478 927.38 430.683 928.08 431.184C928.788 431.778 929.187 432.586 929.276 433.609L932.443 469.73C933.437 481.073 931.566 490.185 926.829 497.065C922.1 504.038 914.854 507.952 905.091 508.808C898.304 509.403 892.439 508.231 887.497 505.291C882.656 502.436 878.956 498.17 876.397 492.492L842.618 515.971C842.085 516.299 841.586 516.483 841.121 516.524C840.284 516.598 839.558 516.333 838.943 515.731C838.336 515.222 838 514.596 837.935 513.852L836.823 501.161C836.692 499.673 836.916 498.482 837.493 497.589C838.079 496.788 838.947 496.009 840.099 495.252L871.575 474.364L869.876 454.978L836.404 457.912C835.474 457.994 834.655 457.738 833.948 457.144C833.248 456.643 832.853 455.881 832.763 454.858L831.651 442.167ZM887.359 473.261C887.848 478.84 889.47 482.913 892.225 485.483C894.988 488.145 898.741 489.268 903.482 488.852C908.224 488.437 911.77 486.674 914.121 483.563C916.48 480.546 917.415 476.248 916.926 470.669L915.202 451.004L885.635 453.596L887.359 473.261Z" fill="white"/>
<path d="M834.063 530.67C834.16 529.742 834.568 528.987 835.286 528.406C836.004 527.824 836.827 527.582 837.756 527.68L928.536 537.221C929.557 537.328 930.312 537.736 930.8 538.445C931.382 539.163 931.624 539.986 931.526 540.914L930.15 554.002C930.043 555.023 929.635 555.778 928.927 556.266C928.302 556.858 927.479 557.1 926.458 556.992L835.678 547.451C834.749 547.353 833.995 546.946 833.413 546.227C832.822 545.602 832.58 544.779 832.687 543.758L834.063 530.67Z" fill="white"/>
<path d="M819.645 598.669C821.648 592.039 824.608 586.284 828.526 581.406C832.418 576.617 837.104 573.241 842.585 571.279C848.067 569.318 854.015 569.208 860.431 570.95C861.237 571.194 861.828 571.666 862.203 572.366C862.668 573.093 862.779 573.86 862.535 574.666L858.678 587.434C858.083 589.405 856.512 590.397 853.966 590.41C849.117 589.63 845.113 590.425 841.952 592.795C838.765 595.254 836.441 598.903 834.979 603.741C833.274 609.386 833.811 614.242 836.592 618.308C839.345 622.464 843.992 625.53 850.533 627.506L893.81 640.579L907.573 595.018C907.844 594.122 908.388 593.455 909.204 593.017C910.021 592.579 910.877 592.496 911.773 592.767L921.181 595.609C922.167 595.906 922.834 596.45 923.182 597.24C923.62 598.056 923.703 598.913 923.432 599.809L904.878 661.229C904.581 662.215 904.023 662.927 903.207 663.364C902.39 663.802 901.489 663.872 900.503 663.574L844.19 646.563C836.753 644.316 830.807 640.858 826.351 636.188C821.895 631.517 819.086 625.927 817.924 619.416C816.825 613.021 817.398 606.106 819.645 598.669Z" fill="white"/>
<path d="M801.867 650.077C802.362 649.284 803.06 648.782 803.961 648.573C804.863 648.364 805.711 648.507 806.504 649.002L883.973 697.306C884.846 697.85 885.411 698.533 885.67 699.356C885.879 700.257 885.711 701.144 885.167 702.017L878.415 712.846C877.871 713.719 877.173 714.22 876.32 714.35C875.419 714.559 874.532 714.391 873.659 713.847L842.957 694.703L821.068 729.808L851.77 748.952C852.643 749.496 853.208 750.179 853.467 751.002C853.676 751.903 853.508 752.79 852.964 753.663L846.286 764.373C845.742 765.246 845.019 765.786 844.118 765.996C843.216 766.205 842.329 766.037 841.456 765.493L763.987 717.189C763.115 716.645 762.574 715.922 762.365 715.02C762.235 714.168 762.442 713.306 762.986 712.433L769.664 701.723C770.159 700.93 770.857 700.428 771.759 700.219C772.66 700.01 773.508 700.153 774.301 700.648L806.193 720.533L828.082 685.428L796.19 665.543C795.397 665.048 794.896 664.35 794.686 663.448C794.428 662.626 794.571 661.779 795.115 660.906L801.867 650.077Z" fill="white"/>
<path d="M748.776 726.11C749.453 725.468 750.254 725.159 751.177 725.184C752.101 725.209 752.884 725.56 753.526 726.238L816.216 792.392C816.922 793.137 817.297 793.94 817.34 794.799C817.315 795.723 816.93 796.538 816.185 797.244L771.472 839.615C770.727 840.321 769.893 840.662 768.969 840.637C768.045 840.612 767.23 840.227 766.524 839.482L760.169 832.775C759.462 832.03 759.122 831.196 759.146 830.272C759.235 829.416 759.653 828.635 760.398 827.929L793.831 796.247L776.786 778.26L745.589 807.824C744.843 808.53 744.009 808.871 743.085 808.846C742.226 808.889 741.443 808.537 740.737 807.792L734.766 801.492C734.06 800.747 733.72 799.912 733.744 798.989C733.833 798.133 734.251 797.352 734.996 796.646L766.193 767.082L748.57 748.485L714.324 780.938C713.579 781.644 712.745 781.985 711.821 781.96C710.898 781.935 710.083 781.55 709.377 780.805L703.021 774.098C702.315 773.353 701.974 772.519 701.999 771.595C702.088 770.739 702.505 769.958 703.25 769.252L748.776 726.11Z" fill="white"/>
<path d="M685.584 779.026C686.368 778.522 687.211 778.368 688.113 778.564C689.014 778.76 689.717 779.25 690.221 780.034L739.513 856.709C740.067 857.572 740.221 858.415 739.975 859.238C739.779 860.139 739.289 860.842 738.505 861.346L727.45 868.453C726.588 869.007 725.745 869.161 724.922 868.915C724.071 868.797 723.368 868.307 722.813 867.445L673.522 790.769C673.018 789.985 672.864 789.142 673.06 788.241C673.178 787.39 673.668 786.687 674.53 786.132L685.584 779.026Z" fill="white"/>
<path d="M650.862 801.064C651.73 800.721 652.588 800.734 653.435 801.102C654.283 801.47 654.878 802.088 655.22 802.956L688.668 887.737C689.044 888.692 689.092 889.576 688.811 890.389C688.443 891.237 687.782 891.849 686.826 892.226L655.05 904.762C629.525 914.832 611.843 908.162 602.006 884.753C599.845 879.785 598.423 876.434 597.738 874.697C597.087 873.048 595.855 869.671 594.042 864.567C589.594 852.275 589.305 842.004 593.174 833.755C597.078 825.593 605.498 818.96 618.434 813.857L650.862 801.064ZM624.994 828.577C617.701 831.454 613.082 835.132 611.137 839.612C609.226 844.179 609.656 850.229 612.428 857.764C614.31 863.042 615.508 866.332 616.021 867.635C616.569 869.024 617.924 872.202 620.084 877.169C623.066 884.22 626.962 888.753 631.77 890.769C636.492 892.819 642.5 892.406 649.793 889.529L665.941 883.158L641.793 821.949L624.994 828.577Z" fill="white"/>
<path d="M465.223 855.997C465.435 855.918 465.653 855.857 465.875 855.816C468.556 855.265 471.333 855.389 473.954 856.178C477.675 857.26 481.102 859.171 483.979 861.766C485.724 863.303 487.248 865.074 488.508 867.028C488.816 867.49 489.16 867.934 489.794 867.816C490.099 867.79 490.39 867.672 490.628 867.479C490.865 867.285 491.039 867.023 491.125 866.729C491.189 866.566 491.234 866.394 491.315 866.231C493.77 860.888 497.338 856.269 501.078 851.84C501.776 851.007 502.555 851.034 503.37 851.84C504.438 852.845 505.516 853.842 506.548 854.883C509.913 858.063 512.828 861.685 515.215 865.651C515.297 865.876 515.439 866.074 515.624 866.224C515.81 866.374 516.033 866.47 516.27 866.503C516.507 866.536 516.748 866.503 516.967 866.409C517.187 866.315 517.376 866.162 517.516 865.968C519.694 863.683 522.02 861.544 524.48 859.565C526.993 857.465 529.922 855.921 533.075 855.037C535.204 854.448 537.456 854.476 539.569 855.119C539.883 855.18 540.17 855.339 540.388 855.573C540.606 855.807 540.744 856.105 540.782 856.423C540.846 857.102 540.384 857.519 539.877 857.881C537.757 859.414 536.014 861.408 534.778 863.713C532.84 867.254 532.297 871.149 532.143 875.107C531.961 879.436 532.142 883.774 532.043 888.094C531.974 891.448 531.714 894.795 531.264 898.119C530.935 900.238 530.45 902.33 529.815 904.377C528.76 908.159 526.949 911.687 524.49 914.747C521.418 918.484 517.279 921.195 512.625 922.518C510.149 923.239 507.607 923.707 505.036 923.913L500.879 923.985C500.655 923.942 500.428 923.912 500.2 923.894C497.572 923.85 494.961 923.454 492.438 922.717C489.358 921.905 486.437 920.579 483.798 918.796C481.093 916.997 478.858 914.578 477.278 911.74C475.844 908.891 474.776 905.873 474.099 902.756C472.699 896.598 472.091 890.286 472.287 883.973C472.414 880.071 472.332 876.165 472.043 872.272C471.776 868.055 470.26 864.013 467.686 860.661C466.81 859.613 465.857 858.632 464.834 857.727C464.679 857.617 464.56 857.465 464.492 857.287C464.424 857.11 464.409 856.917 464.451 856.732C464.493 856.547 464.588 856.378 464.726 856.248C464.863 856.117 465.036 856.03 465.223 855.997V855.997Z" fill="white"/>
</svg>
