<svg width="300" height="265" viewBox="0 0 300 265" fill="none" xmlns="http://www.w3.org/2000/svg">
  <path d="M0 19.6442V245.356C0 256.16 8.82065 265 19.6014 265H154.165C255.897 265 300 207.934 300 132.205C300 56.8699 255.897 0 154.165 0H19.6014C8.82065 0 0 8.83988 0 19.6442Z" fill="white"/>
  <path d="M90.0684 55.3965V222.176H162.496C228.258 222.176 256.779 184.95 256.779 132.303C256.779 81.9161 228.258 42.8242 162.496 42.8242H102.613C95.6548 42.8242 90.0684 48.521 90.0684 55.3965V55.3965Z" fill="#CC0066"/>
  <path d="M154.165 247.026H37.1445C26.7558 247.026 18.3271 238.579 18.3271 228.167V36.9312C18.3271 26.5198 26.7558 18.0728 37.1445 18.0728H154.165C265.207 18.0728 281.77 89.6758 281.77 132.304C281.77 206.264 236.393 247.026 154.165 247.026ZM37.1445 24.3589C30.186 24.3589 24.5996 29.9575 24.5996 36.9312V228.167C24.5996 235.141 30.186 240.74 37.1445 240.74H154.165C232.375 240.74 275.498 202.237 275.498 132.304C275.498 38.4045 199.444 24.3589 154.165 24.3589H37.1445V24.3589Z" fill="black"/>
  <path d="M115.551 109.811C118.099 109.811 120.451 110.204 122.705 110.99C124.96 111.776 126.822 113.052 128.488 114.624C130.056 116.294 131.33 118.356 132.31 120.714C133.192 123.169 133.682 126.018 133.682 129.357C133.682 132.304 133.29 134.956 132.604 137.411C131.82 139.867 130.742 142.028 129.272 143.796C127.802 145.564 125.94 146.939 123.686 148.019C121.431 149.001 118.785 149.591 115.747 149.591H98.5957V109.713H115.551V109.811ZM114.963 142.322C116.237 142.322 117.413 142.126 118.687 141.733C119.863 141.34 120.941 140.652 121.823 139.67C122.705 138.688 123.49 137.509 124.078 135.938C124.666 134.366 124.96 132.598 124.96 130.339C124.96 128.375 124.764 126.509 124.372 124.937C123.98 123.366 123.294 121.892 122.411 120.812C121.529 119.731 120.353 118.749 118.883 118.16C117.413 117.571 115.649 117.276 113.493 117.276H107.22V142.42H114.963V142.322ZM169.063 109.811V117.178H148.089V125.723H167.397V132.5H148.089V142.224H169.553V149.591H139.367V109.713H169.063V109.811ZM199.053 109.811L213.95 149.689H204.835L201.797 140.849H186.9L183.764 149.689H174.943L189.938 109.811H199.053V109.811ZM199.543 134.268L194.545 119.633H194.447L189.252 134.268H199.543ZM228.161 109.811V142.322H247.567V149.689H219.439V109.811H228.161V109.811Z" fill="white"/>
  <path d="M57.3342 148.117C67.4561 148.117 75.6615 139.894 75.6615 129.75C75.6615 119.606 67.4561 111.382 57.3342 111.382C47.2123 111.382 39.0068 119.606 39.0068 129.75C39.0068 139.894 47.2123 148.117 57.3342 148.117Z" fill="black"/>
  <path d="M71.153 222.176C55.7659 222.176 43.417 209.702 43.417 194.379V172.672C43.417 165.011 49.5914 158.725 57.334 158.725C64.9786 158.725 71.251 164.913 71.251 172.672V222.176H71.153Z" fill="black"/>
</svg>
