<svg width="1024" height="1025" viewBox="0 0 1024 1025" fill="none" xmlns="http://www.w3.org/2000/svg">
<path d="M1023.33 511.53C1023.33 579.41 1010.11 644.19 986.1 703.47C967.54 749.32 942.53 791.86 912.16 829.96C910.76 831.72 909.34 833.48 907.91 835.22C895.08 850.92 881.32 865.83 866.72 879.88C863.67 882.84 860.57 885.75 857.44 888.61C855.26 890.61 853.05 892.59 850.84 894.56C849.86 895.44 848.87 896.31 847.88 897.16C847.33 897.64 846.8 898.1 846.27 898.56C843.69 900.8 841.09 903.01 838.45 905.19C837.69 905.84 836.92 906.46 836.15 907.1C834.59 908.37 833.05 909.63 831.48 910.89C830.37 911.78 829.25 912.67 828.13 913.55C827.02 914.44 825.88 915.32 824.77 916.19C824.13 916.69 823.49 917.19 822.83 917.68C822.19 918.18 821.55 918.68 820.89 919.17C819.96 919.87 819.03 920.58 818.07 921.28C814.61 923.88 811.12 926.43 807.58 928.93C806.42 929.77 805.25 930.6 804.08 931.41C802.91 932.23 801.74 933.05 800.56 933.84C799.38 934.66 798.2 935.45 797 936.26C795.77 937.09 794.53 937.91 793.28 938.74C792.03 939.57 790.79 940.38 789.53 941.18C788.98 941.54 788.43 941.9 787.88 942.25C787.33 942.6 786.78 942.95 786.23 943.3C782.08 945.96 777.87 948.55 773.63 951.08C772.48 951.75 771.33 952.44 770.19 953.11C768.87 953.88 767.54 954.67 766.2 955.42C765.52 955.83 764.85 956.22 764.17 956.59C760.28 958.81 756.37 960.97 752.42 963.07C751.44 963.6 750.45 964.12 749.46 964.64C749.32 964.72 749.16 964.8 749.03 964.87C747.82 965.5 746.63 966.12 745.42 966.72C745.36 966.79 745.28 966.81 745.2 966.86C743.64 967.67 742.07 968.46 740.49 969.25C736.6 971.19 732.67 973.09 728.71 974.96C725.54 976.46 722.33 977.92 719.12 979.35C718.46 979.65 717.8 979.93 717.14 980.21C706.22 985.01 695.09 989.43 683.79 993.47C656.62 1003.18 628.39 1010.64 599.31 1015.63C587.2 1017.74 574.97 1019.39 562.59 1020.62H562.58C545.87 1022.27 528.93 1023.12 511.79 1023.12C498.15 1023.12 484.63 1022.59 471.25 1021.53C448.35 1019.73 425.87 1016.43 403.92 1011.73C388.04 1008.31 372.42 1004.16 357.12 999.32C334.87 992.26 313.29 983.75 292.47 973.83C254.63 955.86 219.34 933.36 187.32 907.05C154.67 880.23 125.4 849.45 100.24 815.44C83.8202 793.25 69.1602 769.68 56.4502 744.94C47.9702 728.42 40.3602 711.38 33.6802 693.89C12.0702 637.25 0.240234 575.8 0.240234 511.56C0.240234 451.01 10.7601 392.95 30.0701 339.04C51.9101 278.06 85.0001 222.43 126.85 174.66C220.61 67.61 358.31 0 511.8 0C665.29 0 789.37 61.1 882.56 159.11C916.31 194.59 945 234.91 967.51 278.92C1003.22 348.72 1023.36 427.78 1023.36 511.57L1023.33 511.53Z" fill="#66B7F4"/>
<path d="M909.359 836.4C896.479 852.16 882.669 867.13 868.019 881.23C864.959 884.2 861.849 887.12 858.709 889.99C856.519 892 854.309 893.98 852.079 895.96C851.099 896.84 850.109 897.72 849.109 898.57C848.559 899.05 848.029 899.52 847.489 899.97C844.899 902.22 842.289 904.43 839.639 906.62C838.879 907.27 838.099 907.9 837.339 908.54C835.779 909.82 834.229 911.08 832.649 912.34C831.529 913.23 830.409 914.13 829.279 915.01C828.159 915.9 827.019 916.79 825.899 917.66C825.259 918.16 824.609 918.66 823.949 919.15C823.309 919.65 822.659 920.15 821.999 920.64C821.059 921.35 820.129 922.05 819.169 922.76C815.699 925.37 812.199 927.93 808.639 930.44C807.479 931.28 806.299 932.12 805.129 932.93C803.949 933.75 802.779 934.57 801.589 935.37C800.399 936.19 799.219 936.99 798.019 937.8C796.789 938.63 795.539 939.45 794.289 940.29C793.029 941.12 791.789 941.93 790.519 942.74C789.969 943.1 789.409 943.46 788.869 943.81C788.319 944.16 787.759 944.52 787.219 944.86C783.059 947.53 778.829 950.13 774.579 952.66C773.429 953.33 772.279 954.03 771.119 954.7C769.799 955.48 768.459 956.26 767.119 957.02C766.439 957.43 765.759 957.82 765.079 958.19C761.179 960.42 757.249 962.58 753.279 964.69C752.299 965.23 751.309 965.74 750.309 966.26C750.169 966.34 750.009 966.42 749.879 966.49C748.669 967.12 747.469 967.75 746.249 968.35C746.189 968.42 746.109 968.44 746.029 968.49C744.469 969.3 742.889 970.1 741.309 970.89C737.409 972.84 733.459 974.75 729.489 976.62C726.309 978.13 723.089 979.59 719.859 981.02C719.199 981.32 718.539 981.6 717.869 981.89C715.129 983.1 712.369 984.27 709.609 985.43C708.259 986 706.909 986.56 705.549 987.11C705.409 987.17 705.279 987.22 705.129 987.28C703.849 987.8 702.559 988.32 701.269 988.83C699.879 989.39 698.489 989.94 697.079 990.47C695.679 991.02 694.269 991.55 692.869 992.08C690.049 993.14 687.219 994.18 684.389 995.19C657.119 1004.93 628.789 1012.42 599.609 1017.43C587.459 1019.55 575.179 1021.21 562.759 1022.44H562.749C545.979 1024.09 528.979 1024.95 511.769 1024.95C498.079 1024.95 484.509 1024.41 471.079 1023.35C448.099 1021.55 425.529 1018.23 403.499 1013.52C387.559 1010.09 371.879 1005.92 356.529 1001.06C334.199 993.97 312.529 985.43 291.639 975.48C253.659 957.44 218.239 934.86 186.099 908.46C153.329 881.54 123.949 850.65 98.6992 816.51C121.069 800.1 162.189 768.72 190.009 740.1C190.599 739.5 191.209 738.86 191.859 738.21C232.249 697.3 365.749 580.21 411.239 564.81C413.619 564.01 415.759 563.49 417.629 563.26C451.789 559.18 493.709 552.36 516.069 559.93C518.729 560.83 521.109 561.93 523.169 563.26C542.569 575.81 572.629 589.5 588.399 595.21C604.179 600.91 639.549 598.63 654.379 607.76C669.209 616.89 710.289 668.34 738.809 692.25C767.329 716.16 831.229 752.66 838.069 765.21C843.139 774.5 886.899 815.62 909.349 836.39L909.359 836.4Z" fill="white"/>
<path d="M717.869 981.91C715.129 983.12 712.369 984.29 709.609 985.45C708.259 986.02 706.909 986.58 705.549 987.13C705.409 987.19 705.279 987.24 705.129 987.3C703.849 987.82 702.559 988.34 701.269 988.85C699.879 989.41 698.489 989.96 697.079 990.49C695.679 991.04 694.269 991.57 692.869 992.1C690.049 993.16 687.219 994.2 684.389 995.21C657.119 1004.95 628.789 1012.44 599.609 1017.45C587.459 1019.57 575.179 1021.23 562.759 1022.46H562.749C545.979 1024.11 528.979 1024.97 511.769 1024.97C498.079 1024.97 484.509 1024.43 471.079 1023.37C448.099 1021.57 425.529 1018.25 403.499 1013.54C387.559 1010.11 371.879 1005.94 356.529 1001.08C334.199 993.99 312.529 985.45 291.639 975.5C253.659 957.46 218.239 934.88 186.099 908.48C153.329 881.56 123.949 850.67 98.6992 816.53C121.069 800.12 162.189 768.74 190.009 740.12C190.599 739.52 191.209 738.88 191.859 738.23C232.249 697.32 365.749 580.23 411.239 564.83C413.619 564.03 415.759 563.51 417.629 563.28C451.789 559.2 493.709 552.38 516.069 559.95C515.329 584.81 506.539 641.21 509.559 648.85C513.149 657.98 526.589 699.05 526.589 704.76C526.589 710.47 517.459 734.42 520.889 749.26C524.309 764.09 544.849 750.4 558.539 764.09C572.229 777.78 576.049 790.33 588.399 806.31C600.759 822.28 593.909 854.23 603.039 870.2C612.169 886.17 654.379 896.44 668.069 914.7C681.759 932.96 671.489 955.77 680.619 967.18C686.399 974.4 704.999 979.31 717.859 981.92L717.869 981.91Z" fill="#3182CE"/>
<path d="M576.339 248.38C568.009 274.22 554.289 294.95 540.119 309.87C523.409 327.49 506.07 336.99 496.22 337.21C474.45 337.69 450.059 277.12 472.709 214.42C495.349 151.72 573.73 93.3701 573.73 93.3701C573.73 93.3701 574.869 99.1301 576.369 108.64C581.159 138.94 589.599 207.29 576.339 248.39V248.38Z" fill="white"/>
<path d="M733.27 298.43C733.27 298.43 725.44 316.92 712.43 340.36C691.48 378.14 657.09 428.82 620.36 435.84C558.17 447.73 527.32 412.08 524.96 392.95C524.01 385.31 527.5 368.18 540.78 354.31C547.26 347.54 556.08 341.55 567.85 337.81C603.73 326.43 640.26 326.91 665.88 323.81C694.76 320.31 733.27 298.43 733.27 298.43Z" fill="white"/>
<path d="M495.201 581.48C493.221 581.48 491.381 580.23 490.721 578.25C489.641 575 464.231 498.01 464.221 433.22C464.221 394.44 482.141 336.03 482.901 333.56C483.671 331.07 486.321 329.67 488.811 330.44C491.301 331.21 492.701 333.86 491.931 336.35C491.751 336.94 473.661 395.88 473.671 433.22C473.681 496.45 499.421 574.49 499.681 575.27C500.501 577.75 499.171 580.42 496.691 581.24C496.191 581.41 495.691 581.48 495.201 581.48Z" fill="#3182CE"/>
<path d="M472.191 481.62C472.111 481.62 472.041 481.62 471.961 481.62C469.351 481.49 467.341 479.28 467.471 476.68C469.221 440.29 484.211 418.3 496.481 406.26C509.891 393.1 522.921 388.67 523.471 388.48C525.951 387.66 528.621 389 529.441 391.47C530.261 393.94 528.931 396.61 526.461 397.44C526.341 397.48 514.641 401.53 502.761 413.33C486.881 429.1 478.181 450.57 476.901 477.13C476.781 479.66 474.691 481.63 472.191 481.63V481.62Z" fill="#3182CE"/>
<path d="M482.081 533.98C480.261 533.98 478.531 532.93 477.751 531.16C452.321 473.3 420.741 446.75 420.431 446.49C418.421 444.83 418.141 441.85 419.801 439.84C421.461 437.83 424.431 437.54 426.441 439.2C427.801 440.32 460.001 467.26 486.401 527.36C487.451 529.75 486.361 532.54 483.981 533.58C483.361 533.85 482.721 533.98 482.081 533.98Z" fill="#3182CE"/>
<path d="M510.08 224.04C510.87 275.85 521.62 300.2 540.2 310.35C523.4 328.06 505.98 337.6 496.08 337.82C474.2 338.3 449.69 277.43 472.45 214.41C495.21 151.39 573.98 92.75 573.98 92.75C573.98 92.75 575.13 98.54 576.63 108.09C558.01 126 509.38 177.3 510.09 224.03L510.08 224.04Z" fill="#3182CE"/>
<path d="M712.43 340.37C691.48 378.15 657.09 428.83 620.36 435.85C558.17 447.74 527.32 412.09 524.96 392.96C524.01 385.32 527.5 368.19 540.78 354.32C545 369.56 558.19 390.24 598.48 392.96C641.5 395.87 686.83 362.87 712.43 340.37Z" fill="#3182CE"/>
<path d="M423.44 442.23C423.39 442.29 423.33 442.36 423.27 442.42C415.17 451.08 356.13 435.98 336.07 392.72C314.13 345.41 319.76 272.4 324.93 233.82C327.05 217.91 329.1 207.86 329.1 207.86C329.1 207.86 393.39 292.82 409.32 315.99C428.46 343.83 448.46 415.07 423.45 442.24L423.44 442.23Z" fill="white"/>
<path d="M423.61 442.66C423.56 442.72 423.5 442.79 423.44 442.85C415.31 451.54 356.05 436.38 335.92 392.96C313.9 345.47 319.55 272.19 324.73 233.47C331.4 268.17 344.47 328.67 359.55 358.83C374.33 388.4 406.3 424.29 423.62 442.66H423.61Z" fill="#3182CE"/>
</svg>
